<?xml version="1.0" encoding="UTF-8"?>
<svg id="Layer_1" xmlns="http://www.w3.org/2000/svg" version="1.1" viewBox="0 0 3000 3000">
  <!-- Generator: Adobe Illustrator 29.2.1, SVG Export Plug-In . SVG Version: 2.1.0 Build 116)  -->
  <defs>
    <style>
      .st0 {
        fill: #6d36f1;
      }

      .st1 {
        fill: #fff;
      }

      .st2 {
        fill: #424242;
      }
    </style>
  </defs>
  <path class="st2" d="M491,867.2c-42.7,0-85.5-37.5-87.4-39.1-1.2-1.2-2-2.9-2.1-4.6-.1-1.8.4-3.5,1.5-4.9.6-.7,1.3-1.2,2-1.6s1.6-.6,2.5-.6c.9,0,1.7.1,2.5.4.8.3,1.5.8,2.1,1.4.7.3,52.9,46,93.7,33.5,19.7-5.9,34.2-25.3,42.7-57.5l1.3-4.9h4.9c6.9,0,168-2.6,222.9,52.3,1,1.3,1.4,2.8,1.3,4.4-.1,1.6-.8,3.1-1.9,4.2s-2.6,1.8-4.2,1.9c-1.6.1-3.1-.3-4.4-1.3-46-46-181.1-48.3-208.7-48.3-9.9,34.2-26.6,54.9-50.3,62.1-6,1.7-12.2,2.6-18.4,2.6h0Z"/>
  <path class="st0" d="M2237.9,1281.1c-1.5,0-3-.4-4.2-1.4-1.2-1-1.9-2.4-2.1-3.9l-14.8-74.3c-.3-1.7,0-3.5,1.1-5,1-1.5,2.5-2.5,4.2-2.9,1.7-.3,3.4,0,4.8,1.1,1.4,1,2.4,2.5,2.7,4.2l14.8,74.3c.3,1.7,0,3.5-1.1,5-1,1.5-2.5,2.5-4.2,2.9h-1.3Z"/>
  <path class="st0" d="M2138.2,1328.1c-1.7,0-3.3-.6-4.5-1.8-1.2-1.2-2-2.8-2-4.4,0-.8,0-1.7.2-2.5.3-.8.7-1.6,1.2-2.2.6-.7,1.2-1.2,2-1.6.8-.4,1.6-.6,2.4-.6l63.8-4.6c.9,0,1.7,0,2.6.2.8.2,1.6.7,2.3,1.2.7.5,1.2,1.2,1.6,2,.4.8.7,1.6.7,2.5,0,1.8-.5,3.5-1.7,4.9-1.2,1.3-2.8,2.2-4.6,2.4l-63.8,4.6h-.3Z"/>
  <path class="st0" d="M2251,1417.2c-1.6,0-3.2-.7-4.4-1.8-1.2-1.2-1.8-2.8-1.8-4.4l-5.3-66.7c0-.9,0-1.7.4-2.5.3-.8.7-1.6,1.3-2.2.6-.6,1.3-1.2,2.1-1.5.8-.4,1.6-.6,2.5-.6.9,0,1.7,0,2.5.2s1.6.7,2.2,1.2c.7.6,1.2,1.2,1.6,2,.4.8.6,1.6.6,2.4l4.9,66.7c0,.9,0,1.7-.2,2.6-.2.8-.7,1.6-1.2,2.3-.5.7-1.2,1.2-2,1.6-.8.4-1.6.7-2.5.8h-.7Z"/>
  <path class="st0" d="M2273,1306.1c-1.5-.2-2.8-1-3.8-2.1-1-1.1-1.6-2.5-1.7-4,0-1.5.4-3,1.2-4.2.9-1.2,2.1-2.1,3.6-2.5l57.5-6.9c1.7-.2,3.5.3,4.9,1.3,1.4,1,2.4,2.6,2.7,4.3,0,.9,0,1.7-.2,2.6-.2.8-.7,1.6-1.2,2.3-.6.7-1.2,1.2-2,1.6-.8.4-1.6.7-2.5.7l-57.5,6.9h-1Z"/>
  <path class="st1" d="M1682.6,1189.4l6.9-8.2c5.6-8,9.5-17.1,11.5-26.6,7.6-36.2-11.5-80.2-51.3-109.1-39.8-28.9-95-34.2-126.9-10.5-5.4,4.1-10.3,9-14.5,14.5-2,2.8-3.8,5.8-5.3,8.9-20.1,38.8-1.3,93.4,45,126.9,46.4,33.5,103.9,34.8,134.5,4.3Z"/>
  <path class="st2" d="M1624.1,1218c-28.8-.5-56.8-10.1-79.9-27.3-48.3-35.5-68.7-93.4-47-135.4,1.7-3.4,3.7-6.7,5.9-9.9,4.2-5.5,9.1-10.5,14.5-14.8,1.2-.9,2.7-1.4,4.2-1.5,1.5,0,3,.3,4.3,1.2,1.3.9,2.3,2.2,2.8,3.6.5,1.5.6,3.1.2,4.6-7.6,33.9,11.8,73.3,49,100.3,37.1,26.9,88.4,33.2,118.7,10.8l3.9-2.6,7.6,4.6-.7,4.6c-2.1,10.5-6.5,20.3-12.8,28.9-2.2,3.2-4.8,6.1-7.6,8.9-16.1,16.1-38.8,24-63.1,24ZM1514.3,1052.3c0,.3-.3.7-.6,1-.3.3-3.3,5.3-4.6,7.9-18.7,36.5-.3,87.4,42.7,118.7,43.1,31.6,97.3,33.5,126.2,4.6l6.2-6.9,4.9-8.6c-34.5,15.4-80.9,8.2-119-19.4-38.1-27.6-56.2-62.8-55.9-97.3Z"/>
  <path class="st2" d="M1650.1,1176.9c-28.8-.5-56.8-10.1-79.9-27.3-36.8-27-58.5-68.7-55.2-106.2.4-4,1.7-7.8,3.9-11.2,2.2-3.4,5.1-6.2,8.6-8.2,35.5-19.7,86.1-13.2,126.2,16.1,40.1,29.3,59.5,70,55.2,108.2-.5,3.3-1.6,6.4-3.5,9.2-1.8,2.8-4.2,5.1-7,6.9-14.7,8.5-31.4,12.8-48.3,12.5ZM1573.8,1025.7c-13.9-.2-27.6,3.2-39.8,9.9-1.6.9-3,2.2-4,3.7-1,1.5-1.7,3.3-1.9,5.1-3,33.2,16.8,70.3,50,94.3,36.8,26.9,82.5,32.9,113.4,14.5,1.1-.7,2.1-1.7,2.8-2.8.7-1.1,1.2-2.4,1.5-3.7,3.6-33.5-15.8-71-49.6-96-22.7-16.1-48.7-25-72.3-25Z"/>
  <path class="st2" d="M1520.2,1133.8c-.9,0-1.8-.2-2.6-.7-1.6-.7-2.8-2-3.4-3.6-.6-1.6-.6-3.4,0-4.9l13.5-28.9c.7-1.6,2.1-2.9,3.8-3.5,1.7-.6,3.5-.5,5.1.2,1.6.7,2.9,2.1,3.5,3.8.6,1.7.5,3.5-.2,5.1l-13.5,28.9c-.6,1.1-1.5,2.1-2.6,2.7-1.1.6-2.3,1-3.6.9h0Z"/>
  <path class="st2" d="M1552.8,1161.8c-1.1.1-2.3,0-3.3-.7-1.5-.8-2.7-2.2-3.1-3.9-.5-1.7-.3-3.4.5-5l10.8-19.7c.8-1.5,2.2-2.7,3.9-3.1,1.7-.5,3.4-.3,5,.5.8.4,1.5.9,2.1,1.6.6.7,1,1.4,1.2,2.3.2.8.3,1.7.2,2.6-.1.9-.4,1.7-.9,2.4l-10.8,19.7c-.5,1-1.3,1.9-2.3,2.5-1,.6-2.1.9-3.3.8h0Z"/>
  <path class="st2" d="M1610.3,1196.9l-2.9-.7c-1.5-.8-2.7-2.2-3.2-3.9-.5-1.7-.3-3.5.5-5l11.8-23.7c.9-1.5,2.3-2.5,3.9-3,1.6-.5,3.4-.3,4.9.4.8.4,1.5.9,2.1,1.6.6.7,1,1.4,1.3,2.2.3.8.4,1.7.3,2.6,0,.9-.3,1.7-.7,2.5l-12.2,23.3c-.5,1.1-1.4,2.1-2.4,2.7-1,.6-2.3,1-3.5.9h0Z"/>
  <path class="st2" d="M1663.2,1149.3h-.3c-1.8,0-3.4-.7-4.7-1.9s-1.9-2.9-1.9-4.7c.2-1.8,1-3.4,2.2-4.6,1.3-1.2,2.9-1.9,4.7-2h0c1.3,0,4.9-.3,5.6-2,.7-1.6,3.3-11.2-31.2-45.4-34.5-34.2-52.3-36.8-60.8-36.5-3.8.1-7.4,1.6-10.2,4.3-1,1.3-2.5,2.2-4.2,2.4-1.6.2-3.3-.1-4.7-1.1-1.4-1.1-2.3-2.6-2.6-4.3-.3-1.7,0-3.5,1-4.9,2.3-2.8,5.2-5.1,8.5-6.7,3.3-1.6,6.9-2.4,10.5-2.5,19.1-1.6,43.4,11.8,71.7,39.8,28.3,27.9,39.4,47.3,34.2,59.8-5.3,12.5-12.5,10.2-17.8,10.2Z"/>
  <path class="st1" d="M2770.1,867.6c.2-4.9,0-9.9-.3-14.8-1.6-13.9-6.2-27.2-13.5-39.1-26.6-45.4-89.1-73.3-158.1-65.7-74.6,7.9-132.8,54.6-143.3,110.1-1.9,9.5-2.4,19.3-1.3,28.9.3,5,1.2,10,2.6,14.8,16.1,59.5,87.8,99.3,168.6,90.4,80.9-8.9,142.3-62.8,145.3-124.6Z"/>
  <path class="st2" d="M2602.4,1000c-73.6,0-137.1-39.1-152.5-96.6-1.4-5.1-2.3-10.2-3-15.4-.5-9.6.4-19.2,2.6-28.6l3.9-20.1,8.9,15.1c26.6,45.4,85.5,70,149.9,63.1,71.7-7.9,126.6-48.7,136.8-101.2l3.3-17.1,8.9,15.1c7.2,11.8,13.2,22,14.8,37.8.7,5.2.9,10.5.7,15.8-3,65.4-68,121.6-151.2,130.8-7.6.7-15.4,1.3-23,1.3ZM2460.4,874.5c-.8,3.9-.9,7.9-.3,11.8.4,4.7,1.2,9.3,2.3,13.8,15.4,57.2,84.8,93.7,161.7,85.5,76.6-8.2,136.8-59.2,139.4-118.3.2-4.6.1-9.2-.3-13.8-.9-6.5-2.8-12.8-5.6-18.7-18.1,50.6-73.6,88.1-144,95.7-63.1,6.9-121.3-14.8-153.2-55.9h0Z"/>
  <path class="st2" d="M2590.9,931.7c-55.2,0-106.5-22-134.4-59.2-3-4-5.1-8.7-5.9-13.7-.9-5-.5-10.1,1-14.9,17.4-53.6,76.3-95,146-102.6,63.8-6.9,123.6,14.8,156.1,56.5,3.4,4.4,5.7,9.6,6.6,15.1s.5,11.2-1.3,16.4c-18.1,52.9-76.3,93.7-145.3,100.9-7.5.9-15.1,1.4-22.7,1.3h0ZM2620.2,753.2c-7,0-14.1.4-21,1.3-64.8,6.9-119,44.7-135.1,93.7-.8,2.8-1,5.7-.5,8.6.5,2.9,1.7,5.6,3.4,7.9,28.9,38.5,86.1,59.2,145.3,52.9,63.8-6.9,117.7-44,134.4-92.4,1-3.2,1.2-6.6.6-9.9-.6-3.3-1.9-6.4-3.9-9.1-26-33.2-72.6-52.9-123.3-52.9Z"/>
  <path class="st2" d="M2540.3,964.2c-1.4,0-2.7-.5-3.8-1.3-1.1-.8-2-2-2.4-3.3l-13.2-43.1c-.3-.8-.4-1.7-.4-2.6,0-.9.3-1.7.7-2.5.4-.8,1-1.5,1.6-2,.7-.5,1.5-.9,2.3-1.2.8-.3,1.7-.4,2.6-.4.9,0,1.7.3,2.5.7.8.4,1.5,1,2,1.6.6.7.9,1.5,1.2,2.3l13.1,43.1c.3.8.4,1.7.4,2.6,0,.9-.3,1.7-.7,2.5-.4.8-1,1.5-1.6,2-.7.5-1.5.9-2.3,1.2l-2,.3Z"/>
  <path class="st2" d="M2601.1,962.9c-1.5,0-3-.6-4.1-1.6-1.2-.9-2-2.2-2.4-3.7l-7.2-30.9c-.2-.8-.2-1.7,0-2.6.1-.9.4-1.7.9-2.4.4-.7,1-1.4,1.8-1.9.7-.5,1.5-.9,2.3-1.1.8-.2,1.7-.2,2.6,0,.8.1,1.7.5,2.4.9.7.5,1.4,1.1,1.9,1.8.5.7.9,1.5,1.1,2.3l7.2,30.9c.4,1.7.1,3.4-.7,4.9-.9,1.5-2.2,2.6-3.9,3l-1.6.3Z"/>
  <path class="st2" d="M2695.1,944.5c-1.4,0-2.8-.5-4-1.4-1.1-.9-1.9-2.1-2.3-3.5l-9.9-36.2c-.2-.8-.3-1.7-.2-2.5,0-.9.4-1.7.8-2.4.4-.7,1-1.4,1.7-1.9.7-.5,1.5-.9,2.3-1.1.8-.2,1.7-.3,2.6-.2.9,0,1.7.4,2.5.8.8.4,1.4,1,2,1.7.5.7.9,1.5,1.2,2.3l9.9,35.8c.4,1.7.2,3.5-.7,5-.9,1.5-2.3,2.7-3.9,3.2l-2,.3Z"/>
  <path class="st2" d="M2512,846.2c-1.6,0-3.2-.6-4.4-1.7-1.2-1.1-2-2.6-2.2-4.2,0-4.7.8-9.3,2.5-13.7s4.4-8.3,7.7-11.6c18.1-19.4,55.6-28.3,111.8-25.6,56.2,2.6,84.8,11.5,90.4,28.3,3.9,10.5-3.3,20.7-8.2,25-1.4,1.1-3.1,1.6-4.9,1.5-1.8-.1-3.4-.9-4.6-2.1-1.1-1.3-1.7-3-1.6-4.7.1-1.7.9-3.3,2.2-4.5.3,0,6.6-5.9,4.9-10.8-1.6-4.9-11.2-16.8-78.9-19.4-67.7-2.6-90.1,9.9-100.9,20.7-10.8,10.8-7.2,15.5-7.2,15.8,0,.9,0,1.7-.2,2.6-.2.8-.7,1.6-1.2,2.3-.5.7-1.2,1.2-2,1.6-.8.4-1.6.7-2.5.7h-.7Z"/>
  <path class="st2" d="M1894.3,1716.7c-48.3,0-89.7-17.1-111.4-46.7-21.7-29.6-21.4-61.1-5.6-97.6,12-28.7,34.2-51.9,62.5-65.1,45.4-21,98.6-14.8,140,17.1,35.8,27.6,50.3,66.4,39.1,105.8-12.8,45-54.9,80.2-102.2,85.1-7.6.7-15.1,1.3-22.3,1.3ZM1895,1508.2c-17.1,0-34.1,3.7-49.6,10.8-25.3,11.8-45.3,32.7-55.9,58.5-14.1,32.5-12.8,61.8,4,84.5,22.3,30.6,69,45.7,122,40.1,41.4-4.3,79.6-36.2,90.7-75.6,5.6-20,8.9-58.5-34.5-92-21.9-17-48.9-26.2-76.6-26.3Z"/>
  <path class="st2" d="M1898.9,1749.2c-8.8,0-17.6-.8-26.3-2.3-40.1-6.2-69.7-22.7-87.8-48.3-26.6-38.1-18.7-82.8-18.1-84.5.5-1.5,1.5-2.8,2.9-3.6,1.4-.8,3-1.1,4.5-.8,1.6.3,3,1.1,4,2.3,1,1.2,1.5,2.8,1.4,4.4,0,.7-7.6,41.4,16.1,74.6,16.1,22.7,42.7,37.2,78.9,43.1,36.2,5.9,68.4-1.3,91.4-21.7,37.5-33.2,44.1-89.7,43.4-108.8,0-1.7.7-3.4,1.9-4.6,1.2-1.2,2.9-1.9,4.6-1.9.9,0,1.7,0,2.5.4.8.3,1.5.8,2.1,1.3.6.6,1.1,1.3,1.4,2.1.3.8.5,1.6.5,2.5,1,29.9-10.9,86.5-48,119-20.4,17.8-45.7,26.9-75.6,26.9Z"/>
  <path class="st2" d="M1832.9,1731.1c-.8,0-1.7,0-2.5-.4-.8-.3-1.5-.8-2.1-1.3-.6-.6-1.1-1.3-1.4-2.1-.3-.8-.5-1.6-.5-2.5l-1.6-25.6c0-.9,0-1.7.4-2.5.3-.8.7-1.6,1.3-2.2.6-.6,1.3-1.2,2.1-1.5s1.6-.6,2.5-.6c.8,0,1.7,0,2.5.2.8.2,1.6.7,2.2,1.2.7.5,1.2,1.2,1.6,2,.4.8.6,1.6.6,2.4l1.6,26c0,.9,0,1.7-.4,2.6-.3.8-.7,1.6-1.3,2.2s-1.3,1.2-2.1,1.5c-.8.4-1.6.6-2.5.6h-.3Z"/>
  <path class="st2" d="M1884.5,1743.3h-.3c-.9,0-1.8-.2-2.6-.5-.8-.4-1.5-.9-2.1-1.5s-1-1.4-1.3-2.2c-.3-.8-.4-1.7-.3-2.6v-23.7c0-1.8.7-3.4,1.9-4.7,1.2-1.2,2.9-1.9,4.7-1.9h.3c.9,0,1.7.3,2.5.6.8.4,1.5.9,2.1,1.5.6.6,1,1.4,1.3,2.2.3.8.4,1.7.4,2.6v23.7c0,1.7-.8,3.4-2,4.6-1.2,1.2-2.8,1.9-4.6,2h0Z"/>
  <path class="st2" d="M1934.4,1739.3c-1.7,0-3.2-.7-4.4-1.9-1.2-1.1-2-2.7-2.1-4.3l-1.3-23.7c0-.9,0-1.7.4-2.5.3-.8.7-1.6,1.3-2.2.6-.6,1.3-1.2,2.1-1.5.8-.4,1.6-.6,2.5-.6,1.7,0,3.4.6,4.7,1.8,1.3,1.2,2.1,2.8,2.2,4.5l1.3,23.7c0,.9,0,1.8-.3,2.6-.3.8-.7,1.6-1.3,2.3-.6.6-1.3,1.2-2.1,1.5-.8.4-1.7.5-2.5.5h-.3Z"/>
  <path class="st2" d="M1907.2,1686.8c-21.6,0-43.1-4.1-63.1-12.2-11.4-4.6-21.4-12-29-21.7-7.6-9.6-12.6-21.1-14.4-33.2-2-12.7-.8-25.6,3.5-37.7,4.2-12.1,11.4-23,20.9-31.6,12.4-10,26.9-17.2,42.4-21,15.2-4,31.1-4.4,46.4-1,15.3,3.4,29.6,10.4,41.7,20.4,11.7,9.6,20.9,22,26.7,35.9,5.9,14,8.2,29.2,6.8,44.3h0c0,1.2,0,2.4-.3,3.6-.9,8.7-3.9,17.1-8.8,24.5-4.9,7.3-11.4,13.4-19.1,17.6-15.1,8.5-34.2,12.2-53.6,12.2ZM1893,1539.2c-7.4,0-14.8,1-22,3-13.8,3.2-26.6,9.5-37.5,18.4-15.5,13.2-23.3,35.8-20.1,57.2,1.5,9.9,5.6,19.2,11.8,27.1,6.2,7.8,14.4,13.9,23.7,17.6,30.9,12.8,76.6,17.1,104.9.7,6-3.1,11.1-7.7,14.9-13.4,3.8-5.6,6.1-12.1,6.8-18.8.3-1,.4-2,.3-3,1.2-13.1-.8-26.2-5.9-38.3-5.1-12.1-13-22.8-23.1-31.1-15.1-12.6-34.2-19.4-53.9-19.4h0Z"/>
  <path class="st2" d="M1901.9,1653.6h-2.6l-3-1.7c-19.7-8.5-38.5-17.1-35.2-59.2,1.3-14.5,7.9-20.4,13.2-23,18.4-8.9,47,9.5,50.3,11.8.7.5,1.3,1.1,1.8,1.8.5.7.8,1.5.9,2.3.1.8.1,1.7,0,2.5-.2.8-.5,1.6-1,2.3-.9,1.4-2.4,2.4-4,2.8-1.7.4-3.4,0-4.8-.8-9.9-6.6-28.6-15.1-37.2-10.8-1.3.6-5.3,2.3-5.9,12.2-2.6,32.9,8.5,37.8,27.3,46.3l3.3,1.3c1.3.7,2.4,1.8,3.1,3.1.6,1.3.8,2.9.5,4.3-.3,1.5-1.2,2.8-2.4,3.7-1.2.9-2.6,1.4-4.1,1.4v-.3Z"/>
  <path class="st2" d="M571.9,737.4c-26.3,0-57.5-12.8-92.7-38.1-.7-.5-1.3-1.2-1.7-1.9-.4-.7-.7-1.6-.9-2.4-.1-.9,0-1.7.1-2.6.2-.8.6-1.6,1.1-2.3.5-.7,1.2-1.3,1.9-1.7.7-.4,1.6-.7,2.4-.9.9-.1,1.7,0,2.6.1.8.2,1.6.6,2.3,1.1,47.3,34.2,85.5,43.7,113.4,28.3,69.7-38.5,59.5-217.9,59.2-219.6,0-1.8.6-3.5,1.8-4.8,1.1-1.3,2.7-2.2,4.5-2.4.9,0,1.7,0,2.5.4.8.3,1.6.7,2.2,1.3.6.6,1.2,1.3,1.5,2.1.4.8.6,1.6.6,2.5.7,7.9,11.2,189.7-66.1,232.1-10.6,6-22.7,9-34.8,8.9h0Z"/>
  <path class="st2" d="M392.7,791.3c-1.5,0-3-.4-4.3-1.3-1.4-1.2-2.2-2.8-2.4-4.6-.2-1.8.3-3.6,1.4-5,7.8-9.5,13.6-20.5,17.1-32.2,1.9-6.5,3.3-13.1,4.3-19.7l19.1-114.4c-8.2-5.6-26.6-19.7-30.6-37.1-1-4.3-1.1-8.9-.2-13.2.9-4.4,2.8-8.5,5.4-12.1,6.6-9.5,14.1-14.1,22.7-13.5,16.4,1.6,27,24,27.9,26.6.4.8.6,1.6.6,2.5s-.1,1.7-.4,2.5c-.3.8-.8,1.5-1.4,2.1-.6.6-1.3,1.1-2.1,1.4-.8.4-1.6.6-2.5.6-.9,0-1.7-.1-2.5-.4-.8-.3-1.5-.8-2.1-1.4-.6-.6-1.1-1.3-1.4-2.1h0c-2.6-5.9-10.5-18.1-17.4-18.7-6.9-.7-7.9,4.3-10.5,7.9-1.5,2.1-2.6,4.5-3.2,7-.6,2.5-.6,5.2,0,7.7,3,13.8,21.4,27.3,28.3,31.2l3.9,2.3-1,4.6-19.4,118.7c-1.3,6.9-2.6,14.1-4.6,21-4.1,13.5-10.8,26.2-19.7,37.1-.6.7-1.3,1.3-2.2,1.7-.9.4-1.8.6-2.7.6h0Z"/>
  <path class="st2" d="M618,559.7c.8-6.5-2-12.1-6.2-12.6-4.1-.5-8.1,4.4-8.9,10.9-.8,6.5,2,12.1,6.1,12.6,4.1.5,8.1-4.4,8.9-10.9Z"/>
  <path class="st2" d="M533.3,553.2c.8-6.5-2-12.1-6.1-12.6-4.1-.5-8.1,4.4-8.9,10.9-.8,6.5,2,12.1,6.2,12.6,4.1.5,8.1-4.4,8.9-10.9Z"/>
  <path class="st2" d="M591.3,544.8c-2.2.2-4.3-.5-6-1.9-1.7-1.4-2.7-3.4-2.9-5.6-.2-2.2.5-4.3,1.9-6,1.4-1.7,3.4-2.7,5.6-2.9l39.8-6.9c2.1-.3,4.3.3,6,1.6,1.7,1.3,2.9,3.2,3.2,5.3.2,1.1.3,2.2,0,3.2-.2,1.1-.6,2.1-1.3,3-.6.9-1.4,1.7-2.3,2.2-.9.6-2,.9-3,1.1l-39.4,6.6-1.6.3Z"/>
  <path class="st2" d="M549.9,541.1h-3l-31.9-12.5c-2-.8-3.7-2.4-4.6-4.4-.9-2-1-4.3-.2-6.3.8-2,2.4-3.7,4.4-4.6,2-.9,4.3-1,6.3-.2l31.9,12.5c1,.4,1.9.9,2.7,1.7.8.7,1.4,1.6,1.8,2.6.4,1,.7,2,.7,3.1,0,1.1-.2,2.1-.6,3.1-.6,1.5-1.7,2.7-3,3.6-1.3.9-2.9,1.3-4.5,1.3Z"/>
  <path class="st2" d="M571.6,622.7h-1.3c-1.8,0-3.4-.8-4.7-2.1-1.2-1.3-1.9-3-1.9-4.8,0-.9.3-1.7.6-2.5.4-.8.9-1.5,1.5-2.1.6-.6,1.4-1,2.2-1.3s1.7-.4,2.5-.4c2,.2,4.1-.1,5.9-1,1-1.6-2.6-10.2-7.9-17.1-.6-.7-1.1-1.4-1.5-2.3-.3-.9-.5-1.8-.4-2.7,0-.9.3-1.8.7-2.6.4-.8,1-1.5,1.7-2.1.7-.6,1.5-1,2.4-1.2.9-.2,1.8-.3,2.7-.1.9.1,1.8.5,2.5,1s1.4,1.1,1.9,1.9c3.6,4.6,14.8,20.7,9.2,31.6-2,3.6-6.2,7.9-16.4,7.9Z"/>
  <path class="st2" d="M553.8,804.1c-1.5,0-3-.5-4.2-1.4-1.2-1-2-2.3-2.3-3.8-8.9-40.1-10.5-63.4-4.6-69,1.2-1.2,2.8-2,4.5-2,1.7,0,3.4.6,4.7,1.7,1.1,1,1.8,2.4,1.9,3.9.2,1.5-.2,3-1,4.3-.3,1.6-2.6,12.8,7.2,58.5.2.8.2,1.7,0,2.6-.1.9-.5,1.7-.9,2.4-.5.7-1.1,1.4-1.8,1.9-.7.5-1.5.9-2.3,1.1h-1.3Z"/>
  <path class="st2" d="M1409.1,1988.5c-12.5,151.2-82.2,516.4-82.2,516.4l-184.7-94.3s17.1-135.1,21.4-242.3c4.6-56.5,4.6-100.9-7.2-121.6,0,0-.2,0-.2,0s0-.1,0-.2c-.8-1.9-2-3.6-3.6-4.9-32.5-35.8-254.1-235.4-267.9-247.9h-.7s30.2,251.8-10.2,382.6c-40.4,130.8-269.9,380-269.9,380l-179.8,1.6s250.2-364.6,242.6-422.7c-7.6-58.2-186.4-521-108.5-571.3,61.1-39.5,274.8-134.5,364.6-173.9,11.5-5,24.4-6.2,36.6-3.2,12.2,3,23.2,9.9,31.1,19.6l182.1,222.9s249.5,208.4,236.7,359.3Z"/>
  <path class="st2" d="M319.4,1223.6c-27.6,0-53.6-11.2-75.9-32.9-57.2-55.9-80.9-167.3-70-239,15.4-102.6,208.7-170.3,217-173.2.8-.3,1.7-.4,2.6-.4.9,0,1.7.3,2.5.7.8.4,1.5,1,2,1.6.5.7.9,1.5,1.2,2.3.3.8.5,1.6.4,2.5,0,.9-.2,1.7-.6,2.5-.4.8-.9,1.5-1.5,2-.6.6-1.4,1-2.2,1.2-2,.7-193.9,68-208.1,162.7-10.5,68.4,11.8,174.9,66.1,227.5,24.3,24,52.3,33.2,82.8,27.9,102.6-18.1,241.9-184.7,262-209.4-16.8-37.8-48.7-95.7-67.7-99.9-26.6-5.9-205.5,103.9-217.3,133.5-.3.8-.7,1.6-1.3,2.2s-1.3,1.2-2.1,1.5c-.8.4-1.7.6-2.5.6-.9,0-1.8-.1-2.6-.4-1.6-.7-2.8-2-3.5-3.6-.7-1.6-.7-3.4-.2-5,10.2-26,92.4-77.3,108.8-87.1,16.4-9.9,99.6-60.2,123.6-54.6,32.5,7.2,74,100.6,78.6,111.1l1.3,3.6-2.3,3c-6.2,8.2-157.1,196.9-272.5,217.3-6.1,1.2-12.2,1.7-18.4,1.6Z"/>
  <path class="st2" d="M342.4,995.8c-1.4,0-2.7-.5-3.8-1.3-1.1-.8-2-2-2.4-3.3-5.3-17.1-35.2-67.1-35.5-67.7-.8-1.5-1-3.2-.5-4.9.4-1.6,1.4-3.1,2.8-4,.8-.5,1.6-.8,2.5-.9.9-.1,1.8-.1,2.6.1.9.2,1.7.6,2.4,1.1.7.5,1.3,1.2,1.7,2,1,2,30.9,51.9,36.5,70.3.5,1.7.4,3.5-.4,5-.8,1.5-2.2,2.7-3.8,3.2l-2,.3Z"/>
  <path class="st2" d="M969.3,1403.4c-.9,0-1.9-.2-2.7-.6-.9-.4-1.6-1-2.2-1.7-7.6-8.5-184.4-215-207.8-392.8,0-1.5.7-3,1.8-4.1,1-1.1,2.5-1.8,4-2,1.5-.2,3.1.2,4.4,1,1.3.8,2.3,2.1,2.7,3.5,23,173.9,203.2,383.9,205.1,385.9,1.1,1.3,1.7,3,1.6,4.7-.1,1.7-.9,3.3-2.2,4.5-.6.6-1.3,1-2.1,1.3-.8.3-1.6.4-2.5.3h0Z"/>
  <path class="st2" d="M1078.1,1412.6c-.7,0-1.4,0-2.1-.2-.7-.2-1.3-.6-1.8-1.1-161.1-122.3-270.9-428.7-272.2-431.9-.5-1.7-.4-3.5.4-5,.8-1.5,2.2-2.7,3.8-3.2.8-.3,1.6-.5,2.5-.4.9,0,1.7.2,2.5.6.8.4,1.5.9,2,1.5.6.6,1,1.4,1.2,2.2,1,3,109.8,306,267.6,425.7,1.3,1.1,2.2,2.6,2.4,4.3.2,1.7-.2,3.4-1.1,4.8-.6.9-1.4,1.6-2.3,2-.9.5-1.9.7-3,.6h0Z"/>
  <path class="st2" d="M556.1,1578.3c-1.5,0-3-.5-4.1-1.5-1.1-1-1.9-2.3-2.1-3.8-55.9-223.9-167-361.9-168-363.2-.6-.7-1-1.4-1.3-2.2-.3-.8-.4-1.7-.3-2.6,0-.9.4-1.7.8-2.5.4-.8,1-1.4,1.7-1.9,1.3-1.1,3-1.7,4.7-1.6,1.7.1,3.3.9,4.5,2.2,1.3,1.7,113.7,141.7,170.6,368.8.2.8.2,1.7,0,2.6-.1.8-.5,1.7-.9,2.4-.5.7-1.1,1.4-1.8,1.9-.7.5-1.5.9-2.3,1l-1.6.3Z"/>
  <path class="st0" d="M1490.7,1081.9l28.3-89.1c2.1-6.9,1.6-14.3-1.3-20.9-3-6.6-8.2-11.9-14.8-14.9-121.6-53.6-669.3-276.1-872.4-21.7-246.9,309-78.9,746.2,752.1,684.4,7.2-.5,13.9-3.7,18.9-8.8,5-5.1,8-11.9,8.4-19.1l4.6-83.8c.7-17.1-87.4-56.5-104.2-56.5-384.6-2.6-551.3-42.7-619.3-229.1-36.2-98.9,41.4-191.6,115.7-231.7,108.1-57.9,277.4-23.3,645.9,110.4,3.8,1.3,7.7,1.9,11.7,1.7,4-.2,7.9-1.3,11.4-3.1,3.6-1.8,6.7-4.3,9.3-7.3,2.6-3,4.5-6.6,5.7-10.3h0Z"/>
  <path class="st2" d="M1235.6,1516.8c-90.1,0-170.3-7.6-240-22.7-83.5-18.4-152.2-47.7-203.8-86.8-89.1-67.7-97.6-141-98-144-.2-1.7.4-3.5,1.5-4.8,1.1-1.3,2.7-2.2,4.5-2.4,1.7-.2,3.5.3,4.8,1.5,1.4,1.1,2.2,2.7,2.4,4.5h0c0,.7,8.5,71.3,93.7,135.4,79.2,59.8,242.9,125.6,572.3,100.9.9,0,1.7,0,2.6.2.8.2,1.6.7,2.3,1.2.7.6,1.2,1.2,1.6,2,.4.8.7,1.6.8,2.5,0,1.8-.5,3.5-1.7,4.9-1.2,1.3-2.8,2.2-4.6,2.4-48.3,3.6-94.3,5.3-138.4,5.3Z"/>
  <path class="st2" d="M1337.2,1044.1h-2c-.8-.2-1.6-.6-2.3-1.2-.7-.5-1.2-1.2-1.7-2-.4-.8-.6-1.6-.7-2.5,0-.9,0-1.8.4-2.6l38.5-122.3c.2-.8.6-1.6,1.2-2.3.5-.7,1.2-1.2,2-1.6.8-.4,1.6-.6,2.5-.7.9,0,1.8,0,2.6.4.8.2,1.6.6,2.3,1.2.7.5,1.2,1.2,1.7,2,.4.8.6,1.6.7,2.5,0,.9,0,1.7-.4,2.6l-38.5,122.3c-.5,1.3-1.3,2.4-2.5,3.1-1.1.8-2.4,1.2-3.8,1.1Z"/>
  <path class="st2" d="M1260.2,1625.3h-.7c-.9,0-1.7-.3-2.5-.8-.8-.4-1.4-1-2-1.6-.5-.7-1-1.5-1.2-2.3-.2-.8-.3-1.7-.2-2.6l6.6-108.8-33.9-49c-1-1.4-1.4-3.2-1.1-4.9.3-1.7,1.3-3.3,2.7-4.3,1.4-1,3.2-1.4,4.9-1.1,1.7.3,3.3,1.3,4.3,2.7l36.5,52.6-6.9,113.7c-.2,1.7-.9,3.2-2.1,4.4-1.2,1.1-2.8,1.8-4.5,1.9h0Z"/>
  <path class="st1" d="M543.9,893.5s86.5-75.3,167-53.3c80.5,22,127.5,43.4,122.6,76.9-4.3,27.6-40.8-7.9-54.2-21.7-1-1.3-3.3,0-3,1.6,3.3,14.8,9.5,50-4.9,65.4-14.5,15.4-21.4-28.3-26.3-52.6-.3-2-3.3-1.6-3.3.7.3,23-.7,65.7-14.1,70.3-13.5,4.6-21.4-44.7-27-70.7-.2-.3-.5-.6-.8-.8-.3-.2-.7-.3-1.1-.2-.4,0-.8.2-1.1.4s-.5.6-.6.9c2,26.6,3.9,77.9-9.5,75.6-18.7-3.3-2.6-62.5-56.5-43.7-14.2,5.6-26.3,15.5-34.5,28.3-3,4.6-5.9-1-8.5-5.6l-39.8-64.8"/>
  <path class="st2" d="M688.3,992.8h-2c-10.5-1.6-13.5-12.5-16.4-23-3-10.5-5.3-18.7-12.2-22.4-6.9-3.6-13.5-2.3-24.7,1.6-11.2,3.9-27,19.1-30.9,25.6-.8,1.4-2,2.5-3.4,3.3-1.4.8-2.9,1.2-4.5,1.3h0c-5.6,0-8.9-4.9-11.5-9.2l-40.1-65.7c-.5-.6-.8-1.3-1-2-.2-.7-.2-1.5,0-2.2-1.1-.4-2-1-2.6-2-.6-.6-1.1-1.4-1.4-2.2-.3-.8-.4-1.7-.4-2.6,0-.9.3-1.7.7-2.5.4-.8,1-1.4,1.6-2,3.6-3.3,90.1-77.2,172.9-54.9,82.8,22.4,133.5,44.7,127.5,84.5-1.6,10.2-6.9,13.8-10.8,15.1-9.9,3.3-24.3-4.3-43.7-22.4,3,19.1,3,42.7-9.2,56.2-1.6,2-3.6,3.5-6,4.4-2.4.9-5,1.1-7.5.5-7.2-2-11.8-10.8-15.8-24-3.6,34.2-13.5,37.8-17.1,39.1-1.6.6-3.4.9-5.2.8-1.8-.1-3.5-.6-5-1.5-6.6-3.6-11.2-13.5-15.1-27.3-1.3,24-6.6,28.6-8.5,30.6-2.2,1.8-5,2.7-7.9,2.6h0ZM649.5,932.3c5-.2,10,1,14.5,3.3,11.8,6.2,15.5,19.4,18.4,30.2,1.6,5.3,3.3,11.8,5.6,13.5,2.6-4.3,5.9-22.4,2.6-68-.2-2.1.5-4.2,1.8-5.9,1.3-1.7,3.3-2.7,5.4-3,1-.2,2.1-.2,3.1,0,1,.2,2,.7,2.9,1.3.9.6,1.6,1.4,2.1,2.3.6.9.9,1.9,1.1,2.9,1,3.9,2,8.2,3,13.1,3,14.8,9.5,48.7,15.8,52.6,3.3-1.6,10.2-16.1,9.5-64.1,0-2.1.6-4.1,1.9-5.7,1.3-1.6,3.2-2.6,5.3-2.9,2.1-.2,4.2.4,5.9,1.7,1.7,1.3,2.9,3.1,3.3,5.2l1,5.6c2.6,11.8,7.9,39.4,13.1,44.4l.7-.7c12.8-13.8,5.9-49.3,3.6-59.5-.5-1.8-.3-3.7.4-5.4.7-1.7,2-3.2,3.6-4.1,1.7-.8,3.5-1.1,5.4-.8,1.8.3,3.5,1.2,4.8,2.5,23,24.3,37.1,31.2,41.1,29.9,1-1.3,1.6-2.9,1.6-4.6,3.9-25.3-31.2-46.3-117.7-69.7-67.1-18.1-139.7,34.8-157.1,48.7l1.6,2,40.1,65.7c9-11.9,21-21.1,34.8-26.6,6.7-2.4,13.6-3.7,20.7-3.9h0Z"/>
  <path class="st1" d="M471,918.5s40.1,50.3,60.5,97.3l-60.5-97.3Z"/>
  <path class="st2" d="M531.5,1022.4c-1.3,0-2.6-.4-3.7-1.1-1.1-.7-2-1.7-2.6-2.8-19.4-45.7-59.2-95.3-59.5-96-1.1-1.4-1.6-3.1-1.4-4.8s1-3.3,2.4-4.4c1.4-1.1,3.1-1.6,4.8-1.4,1.7.2,3.3,1,4.4,2.4,2,2.3,41.1,51.6,61.5,98.9.7,1.6.7,3.3,0,4.9-.6,1.6-1.8,2.9-3.4,3.6l-2.6.7Z"/>
  <path class="st1" d="M513.7,2525.3c-1.5,0-3-.5-4.2-1.4-1.2-1-2-2.3-2.3-3.8-.3-1.7.1-3.4,1.1-4.9,1-1.4,2.5-2.4,4.2-2.7,12.8-2.6,48-13.5,57.5-32.2,3.6-6.9,3.3-14.5-1-23-6.9-15.1-8.2-26.3-4.3-35.5,6.6-14.5,24.3-19.4,46.7-26,10.5-3.3,22.4-6.6,34.2-11.2,37.8-15.1,34.2-40.8,22.7-97.3-1.6-6.9-3-14.1-4.6-22-7.2-38.1,15.8-53.6,39.8-70,24-16.4,47.3-31.9,60.2-69.7,12.8-37.8-5.3-56.9-28.9-77.2-23.7-20.4-44-38.1-45.4-78.2-1-29.3,9.2-50.6,18.1-69.4,16.4-34.8,27.3-57.9-41.1-109.1-37.1-27.9-58.2-59.8-62.1-94.7-5.6-49.6,25-86.8,26.3-88.4,1.1-1.3,2.7-2.1,4.5-2.2,1.7-.1,3.4.4,4.7,1.5,1.3,1.1,2.2,2.7,2.4,4.4.2,1.7-.3,3.4-1.4,4.8-.3.3-28.6,34.5-23.3,78.6,3.6,30.9,22.7,59.8,56.9,85.5,77.2,57.9,62.5,89.1,45,125.2-8.5,18.4-17.4,37.2-16.8,63.5,1,34.2,21.4,51.6,41.1,68.7,19.7,17.1,48.7,42.4,32.5,91.1-14.1,42.4-42.4,61.5-65.1,76.9s-40.1,26.9-34.5,56.5c1.6,7.6,3.3,14.8,4.6,21.7,11.2,53.6,19.1,92.1-30.6,112.1-11.6,4.5-23.5,8.3-35.5,11.5-19.1,5.6-34.2,9.9-38.1,18.7-3.9,8.9-1,13.5,4.3,24.6,2.8,5.3,4.3,11.2,4.4,17.2.1,6-1.2,11.9-3.7,17.3-14.5,28.6-64.8,38.8-66.7,39.1h-1.3Z"/>
  <path class="st2" d="M506.1,957c-1.1,0-2.3-.3-3.3-.9-1-.6-1.8-1.4-2.3-2.4-.9-1.5-1.1-3.3-.7-5.1.4-1.7,1.5-3.2,3-4.1l15.1-8.5c1.5-.8,3.3-1,5-.5,1.7.5,3.1,1.6,3.9,3.1.5.7.8,1.5.9,2.4.1.8,0,1.7-.1,2.6-.2.8-.6,1.6-1.1,2.3-.5.7-1.2,1.2-2,1.6l-15.1,8.5c-1,.6-2.1,1-3.3,1h0Z"/>
  <path class="st2" d="M521.3,993.8c-1.1,0-2.3-.3-3.3-.9-1-.6-1.8-1.4-2.3-2.4-.5-.7-.8-1.5-.9-2.4-.1-.8,0-1.7.1-2.6.2-.8.6-1.6,1.1-2.3.5-.7,1.2-1.2,2-1.6l54.9-32.9c.8-.5,1.6-.8,2.5-.9.9-.1,1.8,0,2.6.1.9.2,1.7.6,2.4,1.1.7.5,1.3,1.2,1.7,2,.8,1.5,1,3.2.5,4.9-.4,1.6-1.4,3.1-2.8,4l-55.2,32.9c-1,.7-2.1,1-3.3,1Z"/>
  <path class="st2" d="M562.7,677.9c-17.4,0-30.9-4.6-40.4-13.5-17.8-16.1-15.4-40.4-15.4-41.4.2-1.7,1.1-3.3,2.5-4.4,1.3-1.1,3-1.6,4.8-1.5.9,0,1.7.3,2.5.7.8.4,1.4,1,2,1.6.6.7,1,1.4,1.2,2.3.2.8.3,1.7.2,2.6,0,.3-1.6,19.1,11.2,30.6,12.8,11.5,29.9,12.5,55.9,6.9,1.7-.3,3.5,0,5,1.1,1.5,1,2.5,2.5,2.9,4.2.3,1.7,0,3.5-1.1,5-1,1.5-2.5,2.5-4.2,2.9-8.9,1.9-17.9,2.9-27,3Z"/>
  <path class="st1" d="M1175.1,1563.2c0-6.6,3.6-11.5-1.6-15.5-5.3-3.9-10.5-4.3-19.4-3-8.9,1.3-28.3,4.6-36.2,2.6-7.9-2-24.3,8.9-24.3,8.9,0,0-16.8-14.8-30.6-9.9-13.8,4.9-8.6,18.4-8.6,18.4,0,0-7.2-29.6-38.8-14.5-11.2,5.6-5.9,57.5,6.9,75.3,12.8,17.8,12.8,36.5,46.4,25.6,0,0,3,16.8,33.5,1,0,0,28.9-5.3,52.6-7.9,12.8-1.3,23,3.6,28.6-2.3,0,0-8.2-62.5-8.6-78.9Z"/>
  <path class="st2" d="M1054.1,1658.8c-4.5,0-8.9-1.1-12.8-3.3-23.3-12.5-32.5-57.5-35.8-83.2-.5-3.2-.3-6.4.5-9.5.8-3.1,2.2-6,4.2-8.6,6.2-8.9,14.8-12.8,23.3-11.2,1.7.3,3.2,1.3,4.3,2.7,1,1.4,1.5,3.1,1.3,4.9-.4,1.7-1.4,3.2-2.9,4.2-1.5,1-3.2,1.4-5,1.1-1.3-.3-5.6-1-10.5,5.9-.9,1.3-1.5,2.7-1.9,4.2-.3,1.5-.4,3.1,0,4.6,4,29.9,13.5,65.1,28.9,73.3,2.4,1.2,5,1.8,7.6,1.7,2.6-.1,5.2-.9,7.5-2.3.8-.4,1.6-.6,2.5-.7.9,0,1.7,0,2.6.3.8.3,1.6.7,2.2,1.3.7.6,1.2,1.3,1.6,2.1.7,1.6.7,3.4.1,5.1s-1.8,3-3.4,3.8c-4.4,2.3-9.2,3.5-14.1,3.6h0Z"/>
  <path class="st2" d="M1090.6,1665.4c-4.1,0-8-1.2-11.5-3.3-24-14.1-41.4-74-29.6-101.6,5.6-12.8,12.8-20.1,22-21.4,14.1-1.6,25,11.5,26.3,13.2.6.7,1.1,1.4,1.5,2.3.3.9.4,1.8.4,2.7,0,.9-.3,1.8-.7,2.6-.4.8-1,1.5-1.7,2.1-.7.6-1.5,1-2.4,1.2-.9.2-1.8.3-2.7.1s-1.8-.5-2.5-1c-.8-.5-1.4-1.1-1.9-1.9-2-2.3-8.5-8.9-14.5-8.2-5.9.7-9.2,7.6-11.5,13.5-10.2,23.3,6.9,74.9,24,85.1,3.6,2,7.9,2.9,13.8-4.6.5-.7,1.1-1.3,1.9-1.8.8-.5,1.6-.8,2.5-.9.9-.1,1.8,0,2.6.2.8.2,1.6.7,2.3,1.2,1.4,1.1,2.2,2.7,2.4,4.4.2,1.7-.3,3.4-1.4,4.8-5.6,7.6-12.2,11.2-19.1,11.2Z"/>
  <path class="st2" d="M1131,1661.1h-6.6c-30.2-4.6-39.4-47-38.5-74,1-27,7.2-38.5,18.4-44.4,11.2-5.9,24.6,1,25.3,1.3.8.5,1.4,1.1,1.9,1.8.5.7.9,1.5,1.1,2.4.2.9.2,1.7.1,2.6s-.4,1.7-.9,2.5c-.5.8-1.1,1.4-1.8,1.9-.7.5-1.5.9-2.4,1.1-.8.2-1.7.3-2.6.1s-1.7-.4-2.5-.9c-1.8-1.2-3.9-2-6.1-2.2-2.2-.2-4.4.2-6.4,1.2-3.6,2-9.9,8.9-11.2,32.9-1.3,24,6.9,57.5,27.3,60.5,4,.7,9.2.7,12.2-2,2.1-2.7,3.1-6.1,3-9.5-.2-1.7.3-3.4,1.3-4.7,1-1.3,2.6-2.2,4.3-2.5,1.7-.2,3.5.3,4.9,1.3,1.4,1,2.4,2.6,2.7,4.3,0,1.3,1,12.8-6.9,20.7-4.7,4-10.7,6-16.8,5.6Z"/>
  <path class="st2" d="M1172.8,1656.5h-1.6c-30.2-1.3-35.2-30.6-33.5-80.5.7-19.1,10.8-40.4,24.3-40.1,13.5.3,19.7,18.1,19.7,54.9,0,0,0,1.3.3,5.9.8,10.6,2.8,21.1,5.9,31.2,3,10.2,2.6,17.8-1.6,22.7-4.3,4.9-5.9,5.9-13.5,5.9ZM1161.6,1549c-3.3,1-10.5,12.5-10.8,27.3-2,61.1,8.2,66.4,21,67.1.7.2,1.5.2,2.2,0,.7-.1,1.4-.4,2.1-.8.7-1,1.3-4.3-1-10.8-3.2-11.2-5.3-22.6-6.2-34.2-.3-4.9-.3-6.2-.3-6.9,0-34.2-5.9-40.8-6.9-41.8h0Z"/>
  <path class="st2" d="M2474.9,2441.2c-8,0-15.9-2.3-22.7-6.6-62.5-38.1-173.6-108.2-216-145-6.4-5.5-10.5-13.3-11.4-21.7-.9-8.4,1.4-16.9,6.4-23.6l323.5-436.5c2.3-3.3,4.3-6.9,6.2-10.2,5.3-9.5,12.8-23.7,29.2-15.1,38.5,20,95.3,50,144.6,79.9,90.1,54.2,98.3,73.6,94.4,85.5-14.1,42.4-248.9,382-319.5,476-4,5.5-9.3,9.9-15.3,12.9-6.1,3-12.8,4.6-19.5,4.5h0ZM2581,1792.9c-2,0-3.9,2.6-8.6,10.8-2.1,4.1-4.5,8.1-7.2,11.8l-323.5,436.2c-3,4.2-4.4,9.4-3.9,14.5.6,5.2,3,9.9,6.8,13.4,43.4,37.5,164.4,113.1,214.3,143.7,6.4,4.1,14.1,5.6,21.6,4.2,7.5-1.4,14.1-5.6,18.5-11.8,77.2-102.9,304.7-433.9,317.5-472.4,1-2.3,1.6-28.3-232.4-149.2-1-.7-2.1-1.1-3.3-1.3h0ZM2426.2,2367.2c-4,0-7.9-1.3-11.2-3.6l-80.9-55.2c-3.7-2.5-6.5-6.1-7.9-10.3-1.4-4.2-1.4-8.8,0-13,5.9-16.1,17.4-55.9-2.3-74.9-3.6-3.2-5.9-7.7-6.3-12.5-.5-4.8.8-9.6,3.7-13.5l198.2-279.1c2-2.7,4.6-4.9,7.7-6.3,3-1.4,6.4-2.1,9.8-1.9,12.8.7,55.6,1.3,69.7-15.5,3.1-3.5,7.3-5.8,11.9-6.5,4.6-.7,9.4.2,13.4,2.6l78.6,46c4.1,2.4,7.2,6.2,8.8,10.7,1.6,4.5,1.6,9.4,0,13.9-7.2,18.1-14.8,51.6,10.9,67.7,2.3,1.5,4.2,3.4,5.8,5.7,1.5,2.3,2.6,4.8,3.1,7.5.6,2.6.7,5.3.1,7.9-.5,2.6-1.6,5.1-3.1,7.2l-205.4,299.8c-2.4,3.5-5.8,6.1-9.8,7.5-3.9,1.4-8.2,1.6-12.3.4-13.8-3.9-48.6-11.5-67.7,8.9-1.9,2.1-4.2,3.7-6.7,4.8-2.6,1.1-5.3,1.7-8.1,1.8h0ZM2536,1909.9c-1.1,0-2.2.2-3.2.8-1,.5-1.8,1.3-2.4,2.2l-198.5,278.8c-.9,1.4-1.3,3-1.1,4.6.2,1.6.9,3.1,2.1,4.3,25.6,24.7,12.8,70.3,5.9,89.1-.5,1.4-.6,3,0,4.4s1.4,2.7,2.7,3.5l80.9,55.2c1.4.9,3.2,1.3,4.8,1,1.7-.2,3.2-1.1,4.4-2.3,23.3-24.3,60.8-18.1,80.9-12.2,1.4.4,2.9.3,4.3-.2,1.4-.5,2.5-1.5,3.3-2.7l205.5-299.5c1-1.6,1.3-3.4,1-5.3-.1-1-.5-1.9-1.1-2.7-.6-.8-1.3-1.4-2.2-1.9-24.3-15.4-30.2-46-16.1-83.8.6-1.5.6-3.2,0-4.7-.5-1.5-1.6-2.8-3-3.5l-78.6-46c-1.3-.9-2.9-1.3-4.5-1.1-1.6.2-3,.9-4.1,2.1-17.1,20-57.9,21-80.5,20h-.3Z"/>
  <path class="st0" d="M2730.6,2040.4l-205.1,299.8c-1.6,2.3-3.9,4.1-6.6,5-2.6.9-5.5,1-8.2.3-16.8-4.9-53.2-11.8-74.3,10.5-2.2,2.4-5.2,3.9-8.5,4.3-3.2.4-6.5-.3-9.3-2l-80.9-55.2c-2.5-1.7-4.4-4.1-5.4-7-.9-2.9-.9-6,0-8.8,6.9-18.7,18.4-60.5-4.3-81.9-2.3-2.3-3.8-5.3-4.1-8.6-.3-3.2.6-6.5,2.4-9.2l198.2-278.8c1.3-1.8,3.1-3.3,5.2-4.3,2.1-1,4.3-1.4,6.6-1.3,17.1.7,59.2,1,75.3-17.8,2.1-2.3,4.9-3.8,7.9-4.3,3-.5,6.2.1,8.8,1.7l78.6,46.3c2.8,1.5,5,4.1,6.1,7.1,1.1,3,1,6.4-.2,9.3-6.9,18.1-16.8,56.5,13.5,75.6,1.6.9,3,2.2,4,3.7,1.1,1.5,1.8,3.2,2.2,5,.4,1.8.4,3.6,0,5.4-.4,1.8-1.1,3.5-2.2,5h0Z"/>
  <path class="st2" d="M2426.2,2367.2c-4,0-7.9-1.3-11.2-3.6l-80.9-55.2c-3.7-2.5-6.5-6.1-7.9-10.3-1.4-4.2-1.4-8.8,0-13,5.9-16.1,17.4-55.9-2.3-74.9-3.6-3.2-5.9-7.7-6.3-12.5-.5-4.8.8-9.6,3.7-13.5l198.2-279.1c2-2.7,4.6-4.9,7.7-6.3,3.1-1.4,6.4-2.1,9.8-1.9,12.8.7,55.6,1.3,69.7-15.5,3.1-3.5,7.3-5.8,11.9-6.5,4.6-.7,9.4.2,13.4,2.6l78.6,46c4.1,2.4,7.2,6.2,8.8,10.7,1.6,4.5,1.6,9.4,0,13.9-7.2,18.1-14.8,51.6,10.9,67.7,2.3,1.5,4.2,3.4,5.8,5.7,1.5,2.3,2.6,4.8,3.1,7.5.6,2.6.7,5.3.1,7.9-.5,2.6-1.6,5.1-3.1,7.2l-205.4,299.8c-2.4,3.5-5.8,6.1-9.7,7.5-4,1.4-8.2,1.6-12.3.4-13.8-3.9-48.6-11.5-67.7,8.9-1.9,2.1-4.2,3.7-6.7,4.8-2.5,1.1-5.3,1.7-8.1,1.8h0ZM2536,1909.9c-1.1,0-2.2.2-3.2.8-1,.5-1.8,1.3-2.4,2.2l-198.5,278.8c-.9,1.4-1.3,3-1.1,4.6.2,1.6.9,3.1,2.1,4.3,25.6,24.6,12.8,70.3,5.9,89.1-.5,1.4-.6,3,0,4.4s1.4,2.7,2.7,3.5l80.9,55.2c1.4.9,3.2,1.3,4.8,1,1.7-.2,3.2-1.1,4.4-2.3,23.3-24.3,60.8-18.1,80.9-12.2,1.4.4,2.9.3,4.3-.2,1.4-.5,2.5-1.5,3.3-2.7l205.5-299.5c1-1.6,1.3-3.4,1-5.3-.1-1-.5-1.9-1.1-2.7-.6-.8-1.3-1.4-2.2-1.9-24.3-15.4-30.2-46-16.1-83.8.6-1.5.6-3.2,0-4.7-.6-1.5-1.6-2.8-3.1-3.5l-78.6-46c-1.3-.9-2.9-1.3-4.5-1.1-1.6.2-3,.9-4.1,2.1-17.1,20-57.9,21-80.5,20h-.3Z"/>
  <path class="st0" d="M2527.1,1792.9h-.3l-43.1-3.3c-.9,0-1.8-.2-2.6-.5-.8-.4-1.5-.9-2.1-1.5-.6-.6-1-1.4-1.3-2.2-.3-.8-.4-1.7-.3-2.6.2-1.7,1.1-3.3,2.4-4.5,1.3-1.2,3-1.8,4.8-1.8l43.1,3.3c1.7,0,3.4.9,4.6,2.2,1.2,1.3,1.8,3,1.7,4.8,0,1.7-.9,3.4-2.2,4.5-1.3,1.2-3,1.8-4.7,1.7h0Z"/>
  <path class="st0" d="M2538,1752.8c-1.6-.1-3-.7-4.3-1.6l-38.5-33.9c-1.3-1.1-2.1-2.8-2.2-4.5-.1-1.7.4-3.4,1.6-4.7.5-.7,1.2-1.2,2-1.7.8-.4,1.6-.6,2.5-.7.9,0,1.7,0,2.6.3.8.3,1.6.8,2.2,1.3l38.5,33.9c.7.5,1.2,1.2,1.6,2,.4.8.7,1.6.7,2.5,0,.9,0,1.7-.4,2.6-.3.8-.8,1.6-1.4,2.2-.6.8-1.3,1.3-2.2,1.8-.8.4-1.8.6-2.7.5h0Z"/>
  <path class="st0" d="M2568.9,1732.8h-.3c-.9,0-1.7-.3-2.5-.6-.8-.4-1.5-.9-2.1-1.5s-1-1.4-1.3-2.2c-.3-.8-.4-1.7-.4-2.5l1.6-43.1c0-.9.2-1.7.5-2.5.3-.8.8-1.5,1.4-2.1.6-.6,1.3-1,2.1-1.3.8-.3,1.6-.4,2.5-.4.9,0,1.8.2,2.6.5.8.3,1.6.9,2.2,1.5.6.6,1.1,1.4,1.4,2.2.3.8.4,1.7.4,2.6l-1.7,43.1c0,.8-.2,1.7-.5,2.5-.3.8-.8,1.5-1.4,2.1-.6.6-1.3,1-2.1,1.3-.8.3-1.6.4-2.5.4Z"/>
  <path class="st0" d="M2602.7,1742c-1.1,0-2.3-.3-3.3-.9-1-.6-1.8-1.4-2.4-2.4-.6-1-.9-2.1-.9-3.3,0-1.1.3-2.3.9-3.3l29.2-50.6c.8-1.5,2.2-2.7,3.9-3.1,1.7-.5,3.4-.3,5,.5.8.4,1.4,1,2,1.6.5.7.9,1.5,1.1,2.3.2.8.3,1.7.1,2.6-.1.8-.4,1.7-.9,2.4l-29.3,51c-.5,1-1.3,1.9-2.3,2.5-1,.6-2.1.9-3.3.8h0Z"/>
  <path class="st0" d="M393.7,2628.2s72.6-51.9,115.1.7c18.4,23-12.8,82.5-109.1,101.6"/>
  <path class="st2" d="M736.9,2808h-8.2l-275.1-7.2c-17.7-1.7-34.1-9.8-46.2-22.9-12.1-13-18.9-30-19.2-47.8l-2-129.2c-.2-6.5,1-12.9,3.3-19s5.9-11.5,10.5-16.2c9.3-9.2,21.8-14.5,34.8-14.8l179.8-1.6h.7c9.2,0,18,3.6,24.7,9.9,6.6,6.4,10.5,15.1,10.9,24.3,3.3,84.8,35.5,106.8,90.1,116,9,1.6,17.5,4.8,25.3,9.5,24.7,15.8,35.8,40.4,27.9,63.1-7.9,22.7-26.3,35.8-57.2,35.8ZM454.5,2787.3l275.5,7.2c30.6,3,47-12.5,51.6-26.6,4.6-14.1-2.6-35.5-22.4-48-6.4-3.7-13.4-6.3-20.7-7.6-70.3-12.2-97.6-47-100.9-128.5-.2-5.9-2.6-11.4-6.9-15.5-4.2-4.1-9.9-6.3-15.8-6.2l-180.1,1.6c-9.5.2-18.6,4.1-25.3,10.8-3.4,3.3-6,7.3-7.8,11.8-1.8,4.4-2.6,9.1-2.4,13.9l2,129.2c.2,14.5,5.7,28.4,15.5,39.1,9.8,10.7,23.3,17.3,37.7,18.7Z"/>
  <path class="st2" d="M735.3,2808l-8.2-.7-275.1-7.2c-27.6-2.6-50-20.4-59.5-48l-3.6-10.8,11.2,2.3c128.5,25,382.3,14.5,384.6,14.5h2.6l7.2,5.9-1,3.9c-4.6,19.7-24.7,40.1-58.2,40.1ZM452.9,2787.3l275.1,6.9c26.3,2.6,43.7-9.2,50.3-23-40.8,1.7-248.2,7.9-368.5-12.5,4.3,7.9,10.5,14.6,18,19.6,7.5,5,16.1,8.1,25,9h0Z"/>
  <path class="st2" d="M656.4,2721.9c7.4,0,13.5-6,13.5-13.5s-6-13.5-13.5-13.5-13.5,6-13.5,13.5,6,13.5,13.5,13.5Z"/>
  <path class="st2" d="M662.9,2743.3c-12.2,0-32.9-8.2-43.4-18.4-10.5-10.2-9.2-17.4-7.9-22.7,6.6-22,47-34.5,51.6-35.8,1.7-.4,3.4-.2,4.9.6,1.5.8,2.7,2.1,3.3,3.7.2.8.3,1.7.2,2.6,0,.9-.4,1.7-.8,2.5-.4.8-1,1.4-1.7,2s-1.5.9-2.3,1.2c-14.5,4.6-39.1,15.8-42.4,27-1,2.6.3,5.6,3.9,9.2,9.9,10.2,31.2,16.4,35.8,15.1,4.6-1.3,18.1-11.2,28.6-18.1,19.7-13.8,23.3-15.8,27-15.8s3.4.7,4.6,1.9c1.2,1.2,1.9,2.9,1.9,4.7,0,1.5-.5,3-1.4,4.2s-2.3,2-3.8,2.3c-7.3,4-14.3,8.5-21,13.5-15.5,10.9-26,17.8-31.9,19.7-1.7.6-3.5.8-5.3.7h0Z"/>
  <path class="st0" d="M1091.6,2464.2s88.1-13.5,102.2,52.3c6.2,28.6-48.6,68.1-143,41.8"/>
  <path class="st2" d="M1348,2786.6c-13.4-.2-26.5-4.2-37.8-11.5l-242.6-130.2c-15.1-9.5-26.1-24.2-31-41.3-4.9-17.1-3.3-35.4,4.4-51.4l56.2-116c2.8-5.8,6.7-11,11.6-15.3,4.8-4.3,10.5-7.6,16.6-9.7,6.1-2.1,12.6-3,19-2.6,6.4.4,12.8,2.1,18.6,4.9l161.7,79.2c8.3,4.1,14.8,11.2,17.9,19.9,3.1,8.7,2.7,18.3-1.1,26.8-35.2,77.2-16.4,111.4,28.3,144.3,7.3,5.4,13.5,12.1,18.4,19.7,15.1,25,13.8,52.3-3.3,69-9.9,9.4-23.2,14.4-36.8,14.1ZM1074.2,2633.5l242.9,130.2c26,16.4,47.7,9.9,58.2-.3,10.5-10.2,13.5-32.9,1.3-52.9-3.8-6.3-8.8-11.8-14.8-16.1-57.5-42.4-66.4-85.8-32.6-160.1,2.5-5.4,2.8-11.5.8-17.1-2-5.6-6-10.2-11.4-12.8l-161.7-78.9c-4.2-2.2-8.8-3.5-13.5-3.8-4.7-.4-9.5.3-14,1.8-4.5,1.5-8.6,4-12.1,7.1-3.5,3.2-6.4,7-8.4,11.3l-56.2,116.4c-6.4,13-7.7,27.8-3.8,41.7,3.9,13.9,12.9,25.8,25.1,33.5Z"/>
  <path class="st2" d="M1346.4,2785.7c-13.4-.2-26.5-4.2-37.8-11.5l-242.3-130.2c-11.6-7.1-20.7-17.5-26.3-29.9-5.6-12.4-7.4-26.1-5.2-39.5l1.3-11.5,9.2,6.9c103.6,80.2,335,184.7,337.3,185.7l2.3,1,3.9,8.2-2.6,3.3c-5,5.6-11.1,10.1-18,13.1-6.9,3-14.3,4.5-21.8,4.3h0ZM1072.9,2632.8l242.6,129.8c22.7,14.1,43.1,11.5,55.2,2-36.8-16.8-225.2-104.5-323.5-176.5.3,9,2.8,17.7,7.3,25.5,4.5,7.8,10.8,14.4,18.3,19.2h0Z"/>
  <path class="st2" d="M1289.8,2667.3c7.4,0,13.5-6,13.5-13.5s-6-13.5-13.5-13.5-13.5,6-13.5,13.5,6,13.5,13.5,13.5Z"/>
  <path class="st2" d="M1289.2,2690h-4c-10.8-1.6-29.6-21.7-35.2-37.8-5.6-16.1-.7-19.7,3-23.7,15.8-16.8,57.5-9.9,62.1-8.9.9,0,1.9.3,2.7.7.8.4,1.6,1,2.2,1.8.6.7,1,1.6,1.2,2.5.2.9.3,1.9,0,2.8-.2.9-.5,1.8-1.1,2.6-.5.8-1.2,1.4-2,1.9-.8.5-1.7.8-2.6.9-.9.1-1.9,0-2.8-.3-15.1-2.6-42.1-3.6-50.3,4.9-1.6,2-2,5.3-.3,9.9,4.3,13.8,20.7,28.9,25,29.9,4.3,1,21.4-1.6,33.9-3.6,24-3.3,27.9-3.3,31.2-1.6.8.4,1.5.9,2,1.5.6.6,1,1.4,1.3,2.2.3.8.4,1.6.3,2.5,0,.8-.3,1.7-.7,2.4-.7,1.4-1.9,2.5-3.3,3.2-1.4.7-3.1.8-4.6.4-8.3.4-16.5,1.2-24.7,2.6-15.1,1.7-26.6,3.3-33.5,3.3Z"/>
  <path class="st2" d="M486.7,516.5h-2l-63.8-3.9c-3.3-.1-6.5-1-9.5-2.4s-5.5-3.6-7.6-6.1c-2.1-2.5-3.7-5.4-4.7-8.5-1-3.1-1.3-6.4-.9-9.6,3.6-30.6,15.5-86.1,57.9-112.4,29.3-18.7,67.7-19.7,114.4-3.3,21,7.2,41.4,15.8,62.1,39.8v.7c41.4-11.5,86.5-8.2,127.5,28.9,12.8,11.5,20.1,20.4,17.1,28.9-3,8.5-21.4,12.2-63.1,14.8-55.4,2.4-110.7,8.5-165.3,18.1-1.6,0-3.1-.4-4.4-1.4-1.2-1-2.1-2.4-2.4-4-.3-1.6,0-3.2.8-4.5.8-1.4,2.1-2.4,3.6-2.9,55.2-9.5,111-15.6,167-18.4,23.7-1.3,46.4-2.6,51.3-5.9-.7-1.6-3-5.6-13.1-14.8-92.7-83.2-209.4,23-242.9,57.5-2.8,3-6.3,5.4-10,7-3.8,1.6-7.9,2.5-12,2.5h0ZM510.4,371.9c-16.6-.3-33,4-47.3,12.5-37.5,23.7-48.3,74.6-51.6,103.2-.2,2.9.8,5.8,2.7,8,1.9,2.2,4.6,3.6,7.5,3.8l63.8,3.9c2.6.2,5.3-.2,7.7-1.2,2.4-1,4.6-2.5,6.4-4.4,19.4-20.1,65.7-62.8,120-82.5-17.4-19.1-34.5-26.3-53.6-32.9-17.8-6.5-36.6-10.1-55.6-10.5h0Z"/>
  <path class="st2" d="M764.8,471.5s40.1,2-101.9,43.7l-7.2-32.2,109.1-11.5Z"/>
  <path class="st2" d="M396.7,568.1l2.6-76.9s34.2,26,104.9,19.4l-51.6,60.5c-3,3.6-9.2-.3-9.5-5.3-1.3-11.5-26.3-43.7-46.4,2.3Z"/>
  <path class="st0" d="M461.8,464.6h-22c-6,0-10.8,4.9-10.8,10.8h0c0,6.1,4.9,11,10.8,11h22c6,0,10.8-4.9,10.8-10.8h0c0-6.1-4.9-11-10.8-11Z"/>
  <path class="st0" d="M2549.1,292.3c-1.4,0-2.8-.4-4-1.3-1.2-.8-2-2.1-2.4-3.4-.4-1.4-.4-2.9.2-4.2.5-1.3,1.5-2.5,2.7-3.3l87.1-57.2c1.5-1,3.3-1.3,5-.9,1.7.4,3.2,1.4,4.2,2.9,1,1.5,1.3,3.3.9,5-.4,1.7-1.4,3.2-2.9,4.2l-87.1,56.9c-1,.8-2.3,1.3-3.6,1.3h0Z"/>
  <path class="st0" d="M2612.9,399.8c-1.7,0-3.4-.7-4.6-2l-53.6-50.3c-.7-.6-1.2-1.3-1.6-2-.4-.8-.6-1.6-.6-2.5,0-.9.1-1.7.4-2.5.3-.8.8-1.5,1.4-2.1.6-.7,1.3-1.2,2-1.6.8-.4,1.6-.6,2.5-.6.9,0,1.7.1,2.5.4.8.3,1.5.8,2.1,1.4l53.6,50.3c.7.6,1.2,1.3,1.6,2,.4.8.6,1.6.6,2.5,0,.9-.1,1.7-.4,2.5-.3.8-.8,1.5-1.4,2.1-1.2,1.3-2.8,2.2-4.6,2.3h0Z"/>
  <path class="st0" d="M2492,285.4c-1.1,0-2.3-.2-3.3-.8-1-.6-1.8-1.4-2.3-2.5l-47-80.5c-.5-.7-.8-1.5-.9-2.4-.1-.9,0-1.7.1-2.6.2-.8.6-1.6,1.1-2.3.5-.7,1.2-1.2,1.9-1.6,1.5-.8,3.2-1.1,4.9-.7,1.7.4,3.1,1.5,4,3l47,80.5c.5.8.8,1.6.9,2.5.1.9.1,1.8-.1,2.6-.2.9-.6,1.7-1.1,2.4-.5.7-1.2,1.3-2,1.7l-3.3.7Z"/>
  <path class="st0" d="M2441.7,392.9c-.9,0-1.9-.1-2.8-.5-.9-.4-1.6-1-2.2-1.8-.6-.6-1.1-1.4-1.4-2.2-.3-.8-.4-1.7-.3-2.6,0-.9.3-1.7.7-2.5.4-.8,1-1.4,1.6-2l43.7-36.8c.6-.6,1.4-1.1,2.2-1.4.8-.3,1.7-.4,2.6-.4.9,0,1.7.3,2.5.7.8.4,1.4,1,2,1.6,1.1,1.4,1.6,3.1,1.4,4.8-.2,1.7-1,3.3-2.4,4.4l-43.4,36.8c-.6.5-1.2,1-2,1.3-.7.3-1.5.4-2.3.4h0Z"/>
  <path class="st2" d="M2518.9,2179.2h-6.6c-17.1-2.6-31.6-15.4-42.4-37.8-20.4-41.4,11.5-75.6,12.8-76.9,1.2-1.2,2.8-2,4.5-2.1,1.7,0,3.4.6,4.7,1.7.7.6,1.2,1.3,1.6,2,.4.8.6,1.6.6,2.5,0,.9-.1,1.7-.4,2.5-.3.8-.8,1.5-1.4,2.2h0c-1,1.3-27,29.2-10.5,62.4,8.9,18.1,20.1,28.3,32.5,30.2,20.7,3.3,43.7-15.4,59.2-31.9.6-.7,1.2-1.2,2-1.6.8-.4,1.6-.6,2.5-.6.9,0,1.7.1,2.5.4.8.3,1.5.8,2.1,1.4,1.2,1.2,2,2.8,2.1,4.5,0,1.7-.6,3.4-1.7,4.7-16.1,16.8-39.8,36.2-64.1,36.2Z"/>
</svg>