<?xml version="1.0" encoding="UTF-8"?>
<svg id="Layer_2" data-name="Layer 2" xmlns="http://www.w3.org/2000/svg" xmlns:xlink="http://www.w3.org/1999/xlink" viewBox="0 0 309.08 287.19">
  <defs>
    <style>
      .cls-1 {
        fill: none;
      }

      .cls-2 {
        fill: #4c3ded;
      }

      .cls-3 {
        fill: #329492;
      }

      .cls-4 {
        fill: #2779c5;
      }

      .cls-5 {
        fill: #2c84b1;
      }

      .cls-6 {
        fill: #329394;
      }

      .cls-7 {
        fill: #43c042;
      }

      .cls-8 {
        fill: #2e8aa5;
      }

      .cls-9 {
        fill: #226ae0;
      }

      .cls-10 {
        fill: #48cd2a;
      }

      .cls-11 {
        fill: #226bdd;
      }

      .cls-12 {
        fill: #38a475;
      }

      .cls-13 {
        fill: #46c735;
      }

      .cls-14 {
        fill: #3caf60;
      }

      .cls-15 {
        fill: #3d48ef;
      }

      .cls-16 {
        fill: #37a07c;
      }

      .cls-17 {
        fill: #49d024;
      }

      .cls-18 {
        fill: #359c83;
      }

      .cls-19 {
        fill: #3db15d;
      }

      .cls-20 {
        fill: #4ad220;
      }

      .cls-21 {
        fill: #359b86;
      }

      .cls-22 {
        fill: #4bd41c;
      }

      .cls-23 {
        fill: #47ca2f;
      }

      .cls-24 {
        fill: #236ddb;
      }

      .cls-25 {
        fill: #246fd7;
      }

      .cls-26 {
        fill: #2858f1;
      }

      .cls-27 {
        fill: #2168e3;
      }

      .cls-28 {
        fill: #2269e1;
      }

      .cls-29 {
        fill: #344ff0;
      }

      .cls-30 {
        fill: #2675cc;
      }

      .cls-31 {
        fill: #297cbf;
      }

      .cls-32 {
        fill: #236ed9;
      }

      .cls-33 {
        fill: #2572d1;
      }

      .cls-34 {
        fill: #3db15c;
      }

      .cls-35 {
        fill: #5734ec;
      }

      .cls-36 {
        fill: #34998a;
      }

      .cls-37 {
        fill: #40ba4d;
      }

      .cls-38 {
        fill: #369f7d;
      }

      .cls-39 {
        fill: #38a376;
      }

      .cls-40 {
        fill: #297dbd;
      }

      .cls-41 {
        fill: #2b83b2;
      }

      .cls-42 {
        fill: #33988c;
      }

      .cls-43 {
        fill: #369f7e;
      }

      .cls-44 {
        fill: #2a7ebb;
      }

      .cls-45 {
        fill: #5238ed;
      }

      .cls-46 {
        fill: #2b81b5;
      }

      .cls-47 {
        fill: #2f8da0;
      }

      .cls-48 {
        fill: #2778c7;
      }

      .cls-49 {
        fill: #3baa69;
      }

      .cls-50 {
        fill: #4f3aed;
      }

      .cls-51 {
        fill: #44c23e;
      }

      .cls-52 {
        fill: #5833ec;
      }

      .cls-53 {
        fill: #5437ed;
      }

      .cls-54 {
        fill: #2b82b4;
      }

      .cls-55 {
        fill: #38a377;
      }

      .cls-56 {
        fill: #2a7fb9;
      }

      .cls-57 {
        fill: #45c539;
      }

      .cls-58 {
        fill: #2573cf;
      }

      .cls-59 {
        fill: #3c49ef;
      }

      .cls-60 {
        fill: #43c041;
      }

      .cls-61 {
        fill: #235cf1;
      }

      .cls-62 {
        fill: #47cb2e;
      }

      .cls-63 {
        fill: #622ceb;
      }

      .cls-64 {
        fill: #47cc2c;
      }

      .cls-65 {
        fill: #308f9c;
      }

      .cls-66 {
        fill: #5933ec;
      }

      .cls-67 {
        fill: #2d86ad;
      }

      .cls-68 {
        fill: #5b31ec;
      }

      .cls-69 {
        fill: #2470d5;
      }

      .cls-70 {
        fill: #287ac3;
      }

      .cls-71 {
        fill: #1f63ec;
      }

      .cls-72 {
        fill: #48ce28;
      }

      .cls-73 {
        fill: #5c30ec;
      }

      .cls-74 {
        fill: #329591;
      }

      .cls-75 {
        fill: #1f64eb;
      }

      .cls-76 {
        fill: #364df0;
      }

      .cls-77 {
        fill: #2e89a7;
      }

      .cls-78 {
        fill: #226bde;
      }

      .cls-79 {
        fill: #42bf44;
      }

      .cls-80 {
        fill: #329395;
      }

      .cls-81 {
        fill: #44c43b;
      }

      .cls-82 {
        fill: #45c636;
      }

      .cls-83 {
        fill: #2c85af;
      }

      .cls-84 {
        fill: #2e88a8;
      }

      .cls-85 {
        fill: #1f5ff2;
      }

      .cls-86 {
        fill: #2167e5;
      }

      .cls-87 {
        fill: #369d81;
      }

      .cls-88 {
        fill: #369e80;
      }

      .cls-89 {
        fill: #308e9e;
      }

      .cls-90 {
        fill: #2e53f0;
      }

      .cls-91 {
        fill: #44c43a;
      }

      .cls-92 {
        fill: #3cad64;
      }

      .cls-93 {
        fill: #2a57f1;
      }

      .cls-94 {
        fill: #297ebc;
      }

      .cls-95 {
        fill: #2065e8;
      }

      .cls-96 {
        fill: #3f46ef;
      }

      .cls-97 {
        fill: #39a770;
      }

      .cls-98 {
        fill: #3cae63;
      }

      .cls-99 {
        fill: #319296;
      }

      .cls-100 {
        fill: #4245ee;
      }

      .cls-101 {
        fill: #374cef;
      }

      .cls-102 {
        fill: #2169e2;
      }

      .cls-103 {
        fill: #369e7f;
      }

      .cls-104 {
        fill: #2573d0;
      }

      .cls-105 {
        fill: #2f8ca2;
      }

      .cls-106 {
        fill: #4ad31f;
      }

      .cls-107 {
        fill: #2674cd;
      }

      .cls-108 {
        fill: #2571d2;
      }

      .cls-109 {
        fill: #394bef;
      }

      .cls-110 {
        fill: #319199;
      }

      .cls-111 {
        fill: #5e2fec;
      }

      .cls-112 {
        fill: #3caf61;
      }

      .cls-113 {
        fill: #4ad122;
      }

      .cls-114 {
        fill: #33968f;
      }

      .cls-115 {
        fill: #2d87ab;
      }

      .cls-116 {
        fill: #4e3bed;
      }

      .cls-117 {
        fill: #49d123;
      }

      .cls-118 {
        fill: #4a3eee;
      }

      .cls-119 {
        fill: #4bd51b;
      }

      .cls-120 {
        fill: #3a4aef;
      }

      .cls-121 {
        fill: #37a279;
      }

      .cls-122 {
        fill: #47cb2d;
      }

      .cls-123 {
        fill: #503aed;
      }

      .cls-124 {
        fill: #1f62ee;
      }

      .cls-125 {
        fill: #3052f0;
      }

      .cls-126 {
        fill: #30909b;
      }

      .cls-127 {
        fill: #3250f0;
      }

      .cls-128 {
        fill: #40b850;
      }

      .cls-129 {
        fill: #4741ee;
      }

      .cls-130 {
        fill: #2c55f1;
      }

      .cls-131 {
        fill: #265af1;
      }

      .cls-132 {
        fill: #33978d;
      }

      .cls-133 {
        fill: #48ce27;
      }

      .cls-134 {
        fill: #2776c9;
      }

      .cls-135 {
        fill: #642aeb;
      }

      .cls-136 {
        fill: #354ef0;
      }

      .cls-137 {
        fill: #4ad221;
      }

      .cls-138 {
        fill: #4542ee;
      }

      .cls-139 {
        fill: #44c33c;
      }

      .cls-140 {
        fill: #46c734;
      }

      .cls-141 {
        fill: #3bab67;
      }

      .cls-142 {
        fill: #45c637;
      }

      .cls-143 {
        fill: #612ceb;
      }

      .cls-144 {
        fill: #3151f0;
      }

      .cls-145 {
        fill: #3bab68;
      }

      .cls-146 {
        fill: #359d82;
      }

      .cls-147 {
        fill: #31909a;
      }

      .cls-148 {
        fill: #349989;
      }

      .cls-149 {
        fill: #359b85;
      }

      .cls-150 {
        fill: #2f53f0;
      }

      .cls-151 {
        fill: #297bc0;
      }

      .cls-152 {
        fill: #fff;
      }

      .cls-153 {
        fill: #3eb359;
      }

      .cls-154 {
        fill: #3e47ef;
      }

      .cls-155 {
        fill: #2777c8;
      }

      .cls-156 {
        fill: #5536ed;
      }

      .cls-157 {
        fill: #3aa96c;
      }

      .cls-158 {
        fill: #4344ee;
      }

      .cls-159 {
        fill: #37a278;
      }

      .cls-160 {
        fill: #359c84;
      }

      .cls-161 {
        fill: #39a572;
      }

      .cls-162 {
        fill: #236ed8;
      }

      .cls-163 {
        fill: #37a17a;
      }

      .cls-164 {
        fill: #48cd29;
      }

      .cls-165 {
        fill: #493fee;
      }

      .cls-166 {
        fill: #329493;
      }

      .cls-167 {
        fill: #5d2fec;
      }

      .cls-168 {
        fill: #3db05f;
      }

      .cls-169 {
        fill: #2c84b0;
      }

      .cls-170 {
        fill: #3db05e;
      }

      .cls-171 {
        fill: #2e8ba4;
      }

      .cls-172 {
        fill: #2675cb;
      }

      .cls-173 {
        fill: #2066e7;
      }

      .cls-174 {
        fill: #632beb;
      }

      .cls-175 {
        fill: #4d3ced;
      }

      .cls-176 {
        fill: #42bd47;
      }

      .cls-177 {
        fill: #3eb25b;
      }

      .cls-178 {
        fill: #384cef;
      }

      .cls-179 {
        fill: #40b751;
      }

      .cls-180 {
        fill: #4bd41d;
      }

      .cls-181 {
        fill: #41bb4b;
      }

      .cls-182 {
        fill: #233239;
      }

      .cls-183 {
        fill: #3fb555;
      }

      .cls-184 {
        fill: #2b81b6;
      }

      .cls-185 {
        fill: #3eb457;
      }

      .cls-186 {
        fill: #4641ee;
      }

      .cls-187 {
        fill: #43bf43;
      }

      .cls-188 {
        fill: #225df2;
      }

      .cls-189 {
        fill: #3fb556;
      }

      .cls-190 {
        fill: #6926ea;
      }

      .cls-191 {
        fill: #4443ee;
      }

      .cls-192 {
        fill: #1f63ed;
      }

      .cls-193 {
        opacity: .7;
      }

      .cls-194 {
        fill: #75e6a4;
      }

      .cls-195 {
        fill: #1e60f2;
      }

      .cls-196 {
        fill: #2168e4;
      }

      .cls-197 {
        fill: #5337ed;
      }

      .cls-198 {
        fill: #5f2eec;
      }

      .cls-199 {
        fill: #2e8aa6;
      }

      .cls-200 {
        fill: #297cbe;
      }

      .cls-201 {
        fill: #41bc49;
      }

      .cls-202 {
        fill: #2470d4;
      }

      .cls-203 {
        fill: #2d88a9;
      }

      .cls-204 {
        fill: #4840ee;
      }

      .cls-205 {
        fill: #3eb35a;
      }

      .cls-206 {
        fill: #49d025;
      }

      .cls-207 {
        fill: #3fb752;
      }

      .cls-208 {
        fill: #287ac2;
      }

      .cls-209 {
        fill: #42bd46;
      }

      .cls-210 {
        fill: #40b94e;
      }

      .cls-211 {
        fill: #2167e6;
      }

      .cls-212 {
        fill: #2f8d9f;
      }

      .cls-213 {
        fill: #41bb4a;
      }

      .cls-214 {
        fill: #45c538;
      }

      .cls-215 {
        fill: #2a7fba;
      }

      .cls-216 {
        fill: #40b94f;
      }

      .cls-217 {
        fill: #3eb458;
      }

      .cls-218 {
        fill: #2064ea;
      }

      .cls-219 {
        fill: #1e61f0;
      }

      .cls-220 {
        fill: #2d54f0;
      }

      .cls-221 {
        fill: #2571d3;
      }

      .cls-222 {
        fill: #3fb654;
      }

      .cls-223 {
        fill: #3fb653;
      }

      .cls-224 {
        fill: #246fd6;
      }

      .cls-225 {
        fill: #319198;
      }

      .cls-226 {
        fill: #46c833;
      }

      .cls-227 {
        fill: #308e9d;
      }

      .cls-228 {
        fill: #37a17b;
      }

      .cls-229 {
        fill: #48cc2b;
      }

      .cls-230 {
        fill: #319297;
      }

      .cls-231 {
        fill: #226adf;
      }

      .cls-232 {
        fill: #215ef2;
      }

      .cls-233 {
        fill: #236dda;
      }

      .cls-234 {
        fill: #34988b;
      }

      .cls-235 {
        fill: #39a671;
      }

      .cls-236 {
        fill: #2c85ae;
      }

      .cls-237 {
        fill: #602deb;
      }

      .cls-238 {
        fill: #205ef2;
      }

      .cls-239 {
        fill: #4045ef;
      }

      .cls-240 {
        fill: #4ad31e;
      }

      .cls-241 {
        fill: #5139ed;
      }

      .cls-242 {
        fill: #339690;
      }

      .cls-243 {
        fill: #2674ce;
      }

      .cls-244 {
        fill: #4b3eee;
      }

      .cls-245 {
        fill: #3b49ef;
      }

      .cls-246 {
        fill: #46c832;
      }

      .cls-247 {
        fill: #2f8ca1;
      }

      .cls-248 {
        fill: #2676ca;
      }

      .cls-249 {
        fill: #2065e9;
      }

      .cls-250 {
        fill: #287bc1;
      }

      .cls-251 {
        fill: #49cf26;
      }

      .cls-252 {
        fill: #46c931;
      }

      .cls-253 {
        fill: #42bc48;
      }

      .cls-254 {
        fill: #3aa86d;
      }

      .cls-255 {
        fill: #3cae62;
      }

      .cls-256 {
        fill: #41ba4c;
      }

      .cls-257 {
        fill: #2d87aa;
      }

      .cls-258 {
        fill: #2b82b3;
      }

      .cls-259 {
        fill: #236cdc;
      }

      .cls-260 {
        fill: #255bf1;
      }

      .cls-261 {
        fill: #2b56f1;
      }

      .cls-262 {
        fill: #43c13f;
      }

      .cls-263 {
        fill: #3aaa6a;
      }

      .cls-264 {
        fill: #2f8ba3;
      }

      .cls-265 {
        fill: #33978e;
      }

      .cls-266 {
        fill: #5a32ec;
      }

      .cls-267 {
        fill: #3aa86e;
      }

      .cls-268 {
        fill: #1f62ef;
      }

      .cls-269 {
        fill: #3350f0;
      }

      .cls-270 {
        fill: #38a573;
      }

      .cls-271 {
        fill: #245bf1;
      }

      .cls-272 {
        clip-path: url(#clippath);
      }

      .cls-273 {
        fill: #349a88;
      }

      .cls-274 {
        fill: #5635ec;
      }

      .cls-275 {
        fill: #0f6cf4;
      }

      .cls-276 {
        fill: #43c140;
      }

      .cls-277 {
        fill: #2879c4;
      }

      .cls-278 {
        fill: #44c23d;
      }

      .cls-279 {
        fill: #2a80b8;
      }

      .cls-280 {
        fill: #3aa96b;
      }

      .cls-281 {
        fill: #3bad65;
      }

      .cls-282 {
        fill: #2d86ac;
      }

      .cls-283 {
        fill: #47ca30;
      }

      .cls-284 {
        fill: #38a474;
      }

      .cls-285 {
        fill: #1e61f1;
      }

      .cls-286 {
        fill: #2957f1;
      }

      .cls-287 {
        fill: #3bac66;
      }

      .cls-288 {
        fill: #2a80b7;
      }

      .cls-289 {
        fill: #2759f1;
      }

      .cls-290 {
        fill: #2778c6;
      }

      .cls-291 {
        fill: #39a76f;
      }

      .cls-292 {
        fill: #42be45;
      }
    </style>
    <clipPath id="clippath">
      <rect class="cls-1" x="167.55" y="138.08" width="98.46" height="107.44"/>
    </clipPath>
  </defs>
  <g id="Layer_1-2" data-name="Layer 1">
    <g>
      <g>
        <path class="cls-194" d="M197.6,8.79s-52.29-22.94-100.66,5.3C48.56,42.33,26.85,103.07,7.99,151.63c-18.85,48.56-3.39,100.14,36.28,125.71,39.67,25.57,63.74-6.93,117.41-5.21,53.66,1.72,68.61,10.97,111.3-19.16,42.7-30.13,46.25-107.41,7.72-167.18C242.17,26.01,197.6,8.79,197.6,8.79Z"/>
        <g class="cls-193">
          <path class="cls-190" d="M197.6,8.79s-52.29-22.94-100.66,5.3C48.56,42.33,26.85,103.07,7.99,151.63c-18.85,48.56-3.39,100.14,36.28,125.71,39.67,25.57,63.74-6.93,117.41-5.21,53.66,1.72,68.61,10.97,111.3-19.16,42.7-30.13,46.25-107.41,7.72-167.18C242.17,26.01,197.6,8.79,197.6,8.79Z"/>
        </g>
      </g>
      <g>
        <path class="cls-182" d="M308.76,281.96h-20.64c-.18,0-.32-.14-.32-.32s.14-.32.32-.32h20.64c.18,0,.32.14.32.32s-.14.32-.32.32Z"/>
        <path class="cls-182" d="M283.05,281.96H3.95c-.18,0-.32-.14-.32-.32s.14-.32.32-.32h279.09c.18,0,.32.14.32.32s-.14.32-.32.32Z"/>
      </g>
      <g>
        <g>
          <path class="cls-119" d="M60.7,281.68h-1.92c6.46-40.75,34.08-75.84,72.2-91.66.48-.2,1.04.03,1.24.51.2.48-.03,1.04-.51,1.24-37.42,15.53-64.56,49.93-71,89.91Z"/>
          <g>
            <path class="cls-119" d="M86.57,253.22c-10-5.83-21.95,8.54-21.66,8.93-.71,1.86-1.37,3.74-1.98,5.65,1.64-2.1,7.86-4.17,16.57-3.68,8.65.17,16.81-5.7,7.08-10.9Z"/>
            <path class="cls-119" d="M56.94,237.73c-10.01-5.37-11.92,10.18-4.97,16.13,6.6,6.06,10.48,11.25,10.8,13.89.49-1.95,1.02-3.88,1.6-5.79-.45.02,1.87-18.8-7.42-24.24Z"/>
          </g>
          <g>
            <path class="cls-119" d="M95.78,238.73c-8.88-7.41-22.98,4.58-22.76,4.99-1,1.69-1.96,3.4-2.87,5.14,1.96-1.75,8.41-2.68,16.89-.69,8.48,1.68,17.46-2.68,8.74-9.44Z"/>
            <path class="cls-119" d="M69.18,218.49c-8.97-6.96-13.39,7.92-7.53,14.92,5.5,7.06,8.47,12.78,8.35,15.39.8-1.8,1.64-3.59,2.52-5.35-.44-.04,4.91-18.03-3.33-24.96Z"/>
          </g>
          <g>
            <path class="cls-119" d="M107.24,226.04c-7.53-8.77-23.38.63-23.23,1.06-1.26,1.48-2.48,3-3.67,4.55,2.21-1.38,8.71-1.19,16.73,2.21,8.06,3.09,17.63.32,10.17-7.82Z"/>
            <path class="cls-119" d="M84.4,201.64c-7.68-8.36-14.5,5.55-9.88,13.41,4.25,7.86,6.23,13.98,5.68,16.52,1.08-1.63,2.2-3.23,3.36-4.81-.44-.1,7.8-16.89.84-25.11Z"/>
          </g>
          <g>
            <path class="cls-119" d="M120.68,215.43c-5.96-9.91-23.19-3.26-23.1-2.82-1.49,1.25-2.95,2.54-4.37,3.87,2.41-.99,8.78.29,16.12,4.98,7.43,4.4,17.35,3.25,11.36-6.02Z"/>
            <path class="cls-119" d="M102.25,187.54c-6.18-9.53-15.26,3.08-12.02,11.59,2.88,8.47,3.81,14.83,2.85,17.23,1.33-1.42,2.7-2.82,4.11-4.17-.42-.16,10.53-15.36,5.06-24.65Z"/>
          </g>
          <g>
            <path class="cls-119" d="M135.84,207.17c-4.22-10.78-22.46-7.05-22.42-6.6-1.69.99-3.35,2.02-4.98,3.1,2.55-.58,8.63,1.74,15.09,7.59,6.59,5.57,16.64,6.07,12.31-4.08Z"/>
            <path class="cls-119" d="M122.39,176.57c-4.49-10.44-15.7.52-13.93,9.47,1.4,8.84,1.24,15.28-.12,17.49,1.56-1.18,3.15-2.33,4.77-3.44-.41-.23,13.08-13.44,9.28-23.52Z"/>
          </g>
          <g>
            <path class="cls-119" d="M123.13,194.62c-.29-.11,12.03-11.71,20.81-14.66,8.54-3.16,12.93,2.51,12.07,6.39-.8,3.92-6.83,5.87-12.13,6.42-5.28.13-20.72,1.57-20.75,1.85Z"/>
            <path class="cls-119" d="M122.99,195.23s-.05-.01-.08-.02c-.25-.09-.42-.34-.41-.61,0-.02,0-.04.01-.06.02-.18.04-.31.25-.43,1.87-2.5,13.44-12.21,20.98-14.75,4.2-1.55,8.08-1.18,10.63,1.04,1.83,1.6,2.72,3.98,2.26,6.08-1.08,5.3-9.98,6.63-12.68,6.92-5.15.13-19.2,1.45-20.51,1.78-.14.08-.3.1-.45.06ZM150.57,179.87c-1.57-.36-3.67-.33-6.41.68-6.93,2.33-15.97,10.03-19.25,13.12,1.32-.17,3.37-.37,6.57-.66,4.13-.38,9.55-.8,12.38-.87,5.07-.53,10.81-2.37,11.53-5.92.37-1.66-.36-3.57-1.85-4.87-.61-.53-1.58-1.16-2.97-1.48Z"/>
          </g>
        </g>
        <g>
          <path class="cls-119" d="M50.75,281.68h-2.3c-20.87-30.53-26.66-69.77-14.91-105.19.16-.49.7-.77,1.2-.6.5.16.77.7.6,1.2-11.7,35.28-5.73,74.41,15.42,104.6Z"/>
          <g>
            <path class="cls-119" d="M52.25,251.43c-10.95,3.75-7.91,22.18-7.42,22.22.94,1.75,1.93,3.48,2.97,5.2-.52-2.62,1.99-8.67,8.06-14.93,5.79-6.43,6.69-16.44-3.61-12.49Z"/>
            <path class="cls-119" d="M21.15,263.69c-10.61,4.06-.11,15.67,8.94,14.32,8.91-1.02,15.37-.56,17.57.93-1.15-1.64-2.26-3.31-3.33-5-.28.35-12.99-13.72-23.18-10.25Z"/>
          </g>
          <g>
            <path class="cls-119" d="M47.33,234.98c-11.41,1.87-11.58,20.37-11.13,20.48.62,1.86,1.29,3.71,2.01,5.54-.04-2.63,3.48-8.11,10.54-13.23,6.82-5.31,9.41-14.95-1.42-12.79Z"/>
            <path class="cls-119" d="M14.61,241.84c-11.14,2.23-2.77,15.31,6.35,15.46,8.94.46,15.2,1.96,17.1,3.76-.84-1.78-1.64-3.59-2.39-5.41-.32.31-10.42-15.51-21.05-13.82Z"/>
          </g>
          <g>
            <path class="cls-119" d="M45.24,218.01c-11.56-.05-14.82,18.09-14.4,18.26.3,1.92.64,3.84,1.04,5.75.4-2.58,4.81-7.36,12.62-11.21,7.61-4.07,11.78-13.12.75-12.8Z"/>
            <path class="cls-119" d="M11.84,219.3c-11.35.34-5.29,14.59,3.67,16.25,8.73,1.93,14.65,4.44,16.21,6.51-.53-1.88-1.01-3.78-1.44-5.69-.36.26-7.66-16.95-18.44-17.07Z"/>
          </g>
          <g>
            <path class="cls-119" d="M46.02,200.91c-11.39-1.98-17.64,15.4-17.25,15.62-.03,1.94,0,3.89.06,5.84.83-2.47,5.97-6.45,14.31-8.93,8.19-2.74,13.81-10.99,2.88-12.53Z"/>
            <path class="cls-119" d="M12.87,196.58c-11.25-1.56-7.66,13.55.9,16.67,8.29,3.37,13.7,6.82,14.89,9.12-.2-1.94-.36-3.89-.47-5.84-.4.21-4.72-18.02-15.32-19.96Z"/>
          </g>
          <g>
            <path class="cls-119" d="M49.69,184.04c-10.91-3.86-20.03,12.36-19.67,12.63-.35,1.92-.66,3.85-.92,5.79,1.23-2.3,6.97-5.38,15.61-6.44,8.53-1.34,15.48-8.61,4.98-11.98Z"/>
            <path class="cls-119" d="M17.75,174.17c-10.83-3.43-9.88,12.21-1.96,16.73,7.6,4.73,12.36,9.06,13.15,11.54.12-1.95.3-3.91.52-5.86-.44.16-1.6-18.69-11.71-22.41Z"/>
          </g>
          <g>
            <path class="cls-119" d="M31.88,185.43c-.27.15-.98-16.76,2.53-25.33,3.2-8.52,10.36-8.13,12.73-4.95,2.44,3.17-.04,9.01-3.08,13.38-3.36,4.07-12.37,16.69-12.18,16.9Z"/>
            <path class="cls-119" d="M32.26,185.93s-.05.03-.07.04c-.23.13-.53.09-.73-.09-.01-.01-.03-.03-.04-.05-.12-.13-.21-.23-.16-.47-.66-3.06-.44-18.15,2.58-25.52,1.58-4.2,4.4-6.88,7.75-7.36,2.41-.34,4.79.55,6.08,2.27,3.3,4.28-1.52,11.89-3.07,14.12-3.27,3.97-11.47,15.46-12.08,16.67-.03.15-.12.29-.25.38ZM38.69,155.03c-1.3.95-2.66,2.56-3.68,5.29-2.77,6.76-2.87,18.64-2.68,23.14.74-1.1,1.93-2.79,3.81-5.4,2.42-3.37,5.65-7.75,7.45-9.93,2.92-4.19,5.28-9.72,3.07-12.59-1.02-1.36-2.93-2.06-4.89-1.78-.8.11-1.91.43-3.07,1.28Z"/>
          </g>
        </g>
      </g>
      <g>
        <g>
          <path class="cls-119" d="M167.1,281.68h-1.2c4.04-25.51,21.33-47.47,45.19-57.38.3-.12.65.02.77.32.13.3-.02.65-.32.77-23.43,9.72-40.41,31.25-44.45,56.28Z"/>
          <g>
            <path class="cls-119" d="M183.29,263.86c-6.26-3.65-13.74,5.35-13.56,5.59-.44,1.16-.86,2.34-1.24,3.54,1.03-1.32,4.92-2.61,10.37-2.3,5.41.11,10.52-3.57,4.43-6.83Z"/>
            <path class="cls-119" d="M164.75,254.17c-6.27-3.36-7.46,6.37-3.11,10.1,4.13,3.8,6.56,7.04,6.76,8.69.3-1.22.64-2.43,1-3.62-.28,0,1.17-11.77-4.65-15.17Z"/>
          </g>
          <g>
            <path class="cls-119" d="M189.06,254.79c-5.56-4.64-14.39,2.87-14.25,3.12-.62,1.06-1.22,2.13-1.8,3.22,1.23-1.1,5.27-1.68,10.58-.43,5.31,1.05,10.93-1.67,5.47-5.91Z"/>
            <path class="cls-119" d="M172.41,242.12c-5.62-4.36-8.38,4.96-4.71,9.34,3.45,4.42,5.3,8,5.22,9.63.5-1.13,1.02-2.25,1.58-3.35-.28-.03,3.07-11.29-2.09-15.63Z"/>
          </g>
          <g>
            <path class="cls-119" d="M196.23,246.85c-4.71-5.49-14.64.4-14.54.66-.79.93-1.55,1.88-2.3,2.85,1.39-.86,5.45-.74,10.47,1.38,5.05,1.93,11.04.2,6.37-4.89Z"/>
            <path class="cls-119" d="M181.94,231.57c-4.81-5.23-9.07,3.47-6.19,8.39,2.66,4.92,3.9,8.75,3.56,10.34.68-1.02,1.38-2.02,2.1-3.01-.27-.06,4.89-10.57.53-15.72Z"/>
          </g>
          <g>
            <path class="cls-119" d="M204.64,240.21c-3.73-6.2-14.52-2.04-14.46-1.77-.93.78-1.84,1.59-2.74,2.42,1.51-.62,5.5.18,10.09,3.12,4.65,2.75,10.86,2.03,7.11-3.77Z"/>
            <path class="cls-119" d="M193.11,222.75c-3.87-5.96-9.55,1.93-7.52,7.26,1.8,5.3,2.39,9.28,1.78,10.78.83-.89,1.69-1.76,2.57-2.61-.27-.1,6.59-9.62,3.17-15.43Z"/>
          </g>
          <g>
            <path class="cls-119" d="M214.13,235.04c-2.64-6.74-14.06-4.41-14.04-4.13-1.06.62-2.09,1.27-3.12,1.94,1.59-.36,5.4,1.09,9.45,4.75,4.13,3.49,10.42,3.8,7.71-2.55Z"/>
            <path class="cls-119" d="M205.71,215.88c-2.81-6.53-9.82.33-8.72,5.93.88,5.53.78,9.56-.07,10.95.97-.74,1.97-1.46,2.98-2.16-.26-.14,8.19-8.41,5.81-14.72Z"/>
          </g>
          <g>
            <path class="cls-119" d="M206.18,227.18c-.18-.07,7.53-7.33,13.02-9.18,5.34-1.98,8.09,1.57,7.56,4-.5,2.45-4.28,3.67-7.59,4.02-3.3.08-12.97.98-12.99,1.16Z"/>
            <path class="cls-119" d="M206.09,227.57s-.03,0-.05-.02c-.16-.06-.26-.21-.26-.38,0-.01,0-.02,0-.04.01-.11.02-.19.16-.27,1.17-1.57,8.41-7.65,13.13-9.23,2.63-.97,5.06-.74,6.65.65,1.15,1,1.7,2.49,1.41,3.81-.67,3.32-6.25,4.15-7.94,4.33-3.22.08-12.02.91-12.84,1.11-.09.05-.19.06-.28.04ZM223.35,217.95c-.98-.23-2.3-.21-4.01.43-4.34,1.46-10,6.28-12.05,8.21.82-.1,2.11-.23,4.12-.41,2.59-.24,5.98-.5,7.75-.55,3.18-.33,6.76-1.48,7.22-3.71.23-1.04-.23-2.23-1.16-3.05-.38-.33-.99-.73-1.86-.93Z"/>
          </g>
        </g>
        <g>
          <path class="cls-119" d="M160.87,281.68h-1.44c-13.06-19.11-16.69-43.67-9.34-65.85.1-.31.44-.48.75-.38.31.1.48.44.38.75-7.32,22.08-3.58,46.58,9.65,65.47Z"/>
          <g>
            <path class="cls-119" d="M161.81,262.74c-6.86,2.34-4.95,13.89-4.65,13.91.59,1.1,1.21,2.18,1.86,3.25-.32-1.64,1.25-5.43,5.05-9.35,3.63-4.02,4.19-10.29-2.26-7.82Z"/>
            <path class="cls-119" d="M142.35,270.42c-6.64,2.54-.07,9.81,5.6,8.96,5.58-.64,9.62-.35,11,.58-.72-1.03-1.42-2.07-2.08-3.13-.18.22-8.13-8.59-14.51-6.42Z"/>
          </g>
          <g>
            <path class="cls-119" d="M158.73,252.45c-7.14,1.17-7.25,12.75-6.96,12.82.39,1.16.81,2.32,1.26,3.47-.03-1.65,2.18-5.08,6.59-8.28,4.27-3.33,5.89-9.36-.89-8.01Z"/>
            <path class="cls-119" d="M138.25,256.74c-6.97,1.39-1.74,9.58,3.97,9.68,5.59.29,9.52,1.23,10.7,2.36-.53-1.12-1.03-2.24-1.5-3.38-.2.19-6.52-9.71-13.18-8.65Z"/>
          </g>
          <g>
            <path class="cls-119" d="M157.42,241.83c-7.24-.03-9.28,11.33-9.02,11.43.19,1.2.4,2.4.65,3.6.25-1.61,3.01-4.61,7.9-7.01,4.77-2.55,7.37-8.21.47-8.01Z"/>
            <path class="cls-119" d="M136.51,242.63c-7.1.21-3.31,9.13,2.3,10.17,5.46,1.21,9.17,2.78,10.14,4.08-.33-1.18-.63-2.37-.9-3.56-.23.17-4.79-10.61-11.54-10.69Z"/>
          </g>
          <g>
            <path class="cls-119" d="M157.91,231.12c-7.13-1.24-11.04,9.64-10.8,9.78-.02,1.22,0,2.44.04,3.65.52-1.54,3.74-4.03,8.96-5.59,5.12-1.71,8.64-6.88,1.8-7.84Z"/>
            <path class="cls-119" d="M137.16,228.41c-7.04-.98-4.8,8.48.56,10.44,5.19,2.11,8.58,4.27,9.32,5.71-.13-1.21-.23-2.43-.29-3.65-.25.13-2.96-11.28-9.59-12.49Z"/>
          </g>
          <g>
            <path class="cls-119" d="M160.21,220.56c-6.83-2.42-12.54,7.74-12.31,7.91-.22,1.2-.41,2.41-.57,3.62.77-1.44,4.36-3.37,9.77-4.03,5.34-.84,9.69-5.39,3.11-7.5Z"/>
            <path class="cls-119" d="M140.21,214.39c-6.78-2.15-6.18,7.64-1.23,10.47,4.76,2.96,7.74,5.67,8.23,7.22.08-1.22.19-2.45.32-3.67-.28.1-1-11.7-7.33-14.03Z"/>
          </g>
          <g>
            <path class="cls-119" d="M149.06,221.43c-.17.09-.61-10.49,1.58-15.85,2-5.33,6.48-5.09,7.97-3.1,1.53,1.98-.02,5.64-1.93,8.37-2.1,2.55-7.74,10.45-7.62,10.58Z"/>
            <path class="cls-119" d="M149.3,221.75s-.03.02-.04.03c-.15.08-.33.06-.46-.05,0,0-.02-.02-.02-.03-.07-.08-.13-.14-.1-.29-.42-1.91-.28-11.36,1.61-15.97.99-2.63,2.75-4.31,4.85-4.6,1.51-.21,3,.35,3.8,1.42,2.07,2.68-.95,7.44-1.92,8.84-2.05,2.49-7.18,9.68-7.56,10.43-.02.1-.08.18-.15.24ZM153.32,202.4c-.81.59-1.66,1.6-2.3,3.31-1.73,4.23-1.8,11.67-1.68,14.49.46-.69,1.21-1.74,2.38-3.38,1.51-2.11,3.53-4.85,4.66-6.22,1.83-2.62,3.31-6.09,1.92-7.88-.64-.85-1.84-1.29-3.06-1.12-.5.07-1.2.27-1.92.8Z"/>
          </g>
        </g>
      </g>
      <g>
        <path class="cls-182" d="M138,96.96c0-1.5-.11-2.97-.32-4.41l7.97-3.45-2.38-7.32-8.3,1.85c-1.45-3.02-3.39-5.76-5.7-8.13l4.42-7.49-6.23-4.52-5.63,6.38c-2.88-1.56-6.05-2.66-9.39-3.24l-.82-8.65h-7.7l-.81,8.48c-3.37.45-6.57,1.44-9.5,2.89l-5.75-6.51-6.23,4.52,4.34,7.34c-2.4,2.29-4.43,4.96-5.99,7.92l-8.48-1.89-2.38,7.32,7.82,3.39c-.33,1.79-.5,3.64-.5,5.52,0,1.5.11,2.97.32,4.41l-7.97,3.45,2.38,7.32,8.3-1.85c1.45,3.02,3.39,5.76,5.7,8.13l-4.42,7.49,6.23,4.52,5.63-6.38c2.88,1.56,6.05,2.66,9.39,3.24l.82,8.65h7.7l.81-8.48c3.37-.45,6.57-1.44,9.5-2.89l5.75,6.51,6.23-4.52-4.34-7.34c2.4-2.29,4.43-4.96,5.99-7.92l8.48,1.89,2.38-7.32-7.82-3.39c.32-1.79.5-3.64.5-5.52ZM87.7,96.96c0-10.78,8.74-19.52,19.52-19.52s19.52,8.74,19.52,19.52-8.74,19.52-19.52,19.52-19.52-8.74-19.52-19.52Z"/>
        <path class="cls-119" d="M183.52,47.16c0-1.32-.1-2.61-.28-3.87l7-3.03-2.09-6.43-7.29,1.63c-1.28-2.65-2.98-5.06-5.01-7.15l3.88-6.58-5.47-3.97-4.95,5.61c-2.53-1.37-5.31-2.34-8.25-2.84l-.72-7.6h-6.76l-.71,7.45c-2.96.39-5.77,1.27-8.35,2.54l-5.05-5.72-5.47,3.97,3.81,6.45c-2.11,2.01-3.89,4.36-5.26,6.96l-7.45-1.66-2.09,6.43,6.87,2.98c-.29,1.57-.44,3.19-.44,4.85,0,1.32.1,2.61.28,3.87l-7,3.03,2.09,6.43,7.29-1.63c1.28,2.65,2.98,5.06,5.01,7.15l-3.88,6.58,5.47,3.97,4.95-5.61c2.53,1.37,5.31,2.34,8.25,2.84l.72,7.6h6.76l.71-7.45c2.96-.39,5.77-1.27,8.35-2.54l5.05,5.72,5.47-3.97-3.81-6.45c2.11-2.01,3.89-4.36,5.26-6.96l7.45,1.66,2.09-6.43-6.87-2.98c.29-1.57.44-3.19.44-4.85ZM139.33,47.16c0-9.47,7.68-17.15,17.15-17.15s17.15,7.68,17.15,17.15-7.68,17.15-17.15,17.15-17.15-7.68-17.15-17.15Z"/>
      </g>
      <g>
        <g>
          <g>
            <path class="cls-182" d="M227.61,29.01c-29.73,0-53.92,24.19-53.92,53.92v79.66h14.69v-79.66c0-21.63,17.6-39.23,39.23-39.23s39.23,17.6,39.23,39.23v23.19l4.42,8.23h-4.42v7.38h14.69v-38.81c0-29.73-24.19-53.92-53.92-53.92Z"/>
            <path class="cls-182" d="M188.7,162.91h-15.33v-79.98c0-29.9,24.33-54.23,54.23-54.23s54.23,24.33,54.23,54.23v39.13h-15.33v-8.02h4.21l-4.21-7.91v-23.19c0-21.45-17.45-38.91-38.91-38.91s-38.91,17.45-38.91,38.91v79.98ZM174.01,162.27h14.05v-79.34c0-21.81,17.74-39.55,39.55-39.55s39.55,17.74,39.55,39.55v23.11l4.63,8.63h-4.63v6.75h14.05v-38.49c0-29.55-24.04-53.6-53.6-53.6s-53.6,24.04-53.6,53.6v79.34Z"/>
          </g>
          <g>
            <path class="cls-182" d="M228.84,38.16c-26.09,0-47.32,21.23-47.32,47.32v61.67c0,5.41.92,10.6,2.6,15.44h4.27v-1.33c-1.55-4.42-2.4-9.16-2.4-14.1v-61.67c0-23.63,19.22-42.85,42.85-42.85s42.85,19.22,42.85,42.85v36.26h4.47v-36.26c0-26.09-21.23-47.32-47.32-47.32Z"/>
            <path class="cls-182" d="M188.7,162.91h-4.81l-.07-.21c-1.74-5.02-2.62-10.25-2.62-15.54v-61.67c0-26.27,21.37-47.64,47.64-47.64s47.64,21.37,47.64,47.64v36.58h-5.11v-36.58c0-23.45-19.08-42.53-42.53-42.53s-42.53,19.08-42.53,42.53v61.67c0,4.78.8,9.48,2.38,14l.02.11v1.65ZM184.34,162.27h3.72v-.96c-1.59-4.57-2.4-9.33-2.4-14.16v-61.67c0-23.8,19.37-43.17,43.17-43.17s43.17,19.37,43.17,43.17v35.94h3.83v-35.94c0-25.92-21.08-47-47-47s-47,21.08-47,47v61.67c0,5.15.84,10.24,2.51,15.12Z"/>
          </g>
        </g>
        <g>
          <g>
            <rect class="cls-182" x="175.73" y="138.08" width="111.94" height="107.44"/>
            <path class="cls-182" d="M287.98,245.84h-112.57v-108.08h112.57v108.08ZM176.05,245.2h111.3v-106.8h-111.3v106.8Z"/>
          </g>
          <g class="cls-272">
            <rect class="cls-135" x="167.55" y="138.08" width=".7" height="107.44"/>
            <rect class="cls-174" x="168.25" y="138.08" width=".7" height="107.44"/>
            <rect class="cls-63" x="168.94" y="138.08" width=".7" height="107.44"/>
            <rect class="cls-143" x="169.64" y="138.08" width=".7" height="107.44"/>
            <rect class="cls-237" x="170.34" y="138.08" width=".7" height="107.44"/>
            <rect class="cls-198" x="171.03" y="138.08" width=".7" height="107.44"/>
            <rect class="cls-111" x="171.73" y="138.08" width=".7" height="107.44"/>
            <rect class="cls-167" x="172.42" y="138.08" width=".7" height="107.44"/>
            <rect class="cls-73" x="173.12" y="138.08" width=".7" height="107.44"/>
            <rect class="cls-68" x="173.82" y="138.08" width=".7" height="107.44"/>
            <rect class="cls-266" x="174.51" y="138.08" width=".7" height="107.44"/>
            <rect class="cls-66" x="175.21" y="138.08" width=".7" height="107.44"/>
            <rect class="cls-52" x="175.9" y="138.08" width=".7" height="107.44"/>
            <rect class="cls-35" x="176.6" y="138.08" width=".7" height="107.44"/>
            <rect class="cls-274" x="177.29" y="138.08" width=".7" height="107.44"/>
            <rect class="cls-156" x="177.99" y="138.08" width=".7" height="107.44"/>
            <rect class="cls-53" x="178.69" y="138.08" width=".7" height="107.44"/>
            <rect class="cls-197" x="179.38" y="138.08" width=".7" height="107.44"/>
            <rect class="cls-45" x="180.08" y="138.08" width=".7" height="107.44"/>
            <rect class="cls-241" x="180.77" y="138.08" width=".7" height="107.44"/>
            <rect class="cls-123" x="181.47" y="138.08" width=".7" height="107.44"/>
            <rect class="cls-50" x="182.17" y="138.08" width=".7" height="107.44"/>
            <rect class="cls-116" x="182.86" y="138.08" width=".7" height="107.44"/>
            <rect class="cls-175" x="183.56" y="138.08" width=".7" height="107.44"/>
            <rect class="cls-2" x="184.25" y="138.08" width=".7" height="107.44"/>
            <rect class="cls-244" x="184.95" y="138.08" width=".7" height="107.44"/>
            <rect class="cls-118" x="185.65" y="138.08" width=".7" height="107.44"/>
            <rect class="cls-165" x="186.34" y="138.08" width=".7" height="107.44"/>
            <rect class="cls-204" x="187.04" y="138.08" width=".7" height="107.44"/>
            <rect class="cls-129" x="187.73" y="138.08" width=".7" height="107.44"/>
            <rect class="cls-186" x="188.43" y="138.08" width=".7" height="107.44"/>
            <rect class="cls-138" x="189.13" y="138.08" width=".7" height="107.44"/>
            <rect class="cls-191" x="189.82" y="138.08" width=".7" height="107.44"/>
            <rect class="cls-158" x="190.52" y="138.08" width=".7" height="107.44"/>
            <rect class="cls-100" x="191.21" y="138.08" width=".7" height="107.44"/>
            <rect class="cls-239" x="191.91" y="138.08" width=".7" height="107.44"/>
            <rect class="cls-96" x="192.61" y="138.08" width=".7" height="107.44"/>
            <rect class="cls-154" x="193.3" y="138.08" width=".7" height="107.44"/>
            <rect class="cls-15" x="194" y="138.08" width=".7" height="107.44"/>
            <rect class="cls-59" x="194.69" y="138.08" width=".7" height="107.44"/>
            <rect class="cls-245" x="195.39" y="138.08" width=".7" height="107.44"/>
            <rect class="cls-120" x="196.09" y="138.08" width=".7" height="107.44"/>
            <rect class="cls-109" x="196.78" y="138.08" width=".7" height="107.44"/>
            <rect class="cls-178" x="197.48" y="138.08" width=".7" height="107.44"/>
            <rect class="cls-101" x="198.17" y="138.08" width=".7" height="107.44"/>
            <rect class="cls-76" x="198.87" y="138.08" width=".7" height="107.44"/>
            <rect class="cls-136" x="199.57" y="138.08" width=".7" height="107.44"/>
            <rect class="cls-29" x="200.26" y="138.08" width=".7" height="107.44"/>
            <rect class="cls-269" x="200.96" y="138.08" width=".7" height="107.44"/>
            <rect class="cls-127" x="201.65" y="138.08" width=".7" height="107.44"/>
            <rect class="cls-144" x="202.35" y="138.08" width=".7" height="107.44"/>
            <rect class="cls-125" x="203.05" y="138.08" width=".7" height="107.44"/>
            <rect class="cls-150" x="203.74" y="138.08" width=".7" height="107.44"/>
            <rect class="cls-90" x="204.44" y="138.08" width=".7" height="107.44"/>
            <rect class="cls-220" x="205.13" y="138.08" width=".7" height="107.44"/>
            <rect class="cls-130" x="205.83" y="138.08" width=".7" height="107.44"/>
            <rect class="cls-261" x="206.53" y="138.08" width=".7" height="107.44"/>
            <rect class="cls-93" x="207.22" y="138.08" width=".7" height="107.44"/>
            <rect class="cls-286" x="207.92" y="138.08" width=".7" height="107.44"/>
            <rect class="cls-26" x="208.61" y="138.08" width=".7" height="107.44"/>
            <rect class="cls-289" x="209.31" y="138.08" width=".7" height="107.44"/>
            <rect class="cls-131" x="210" y="138.08" width=".7" height="107.44"/>
            <rect class="cls-260" x="210.7" y="138.08" width=".7" height="107.44"/>
            <rect class="cls-271" x="211.4" y="138.08" width=".7" height="107.44"/>
            <rect class="cls-61" x="212.09" y="138.08" width=".7" height="107.44"/>
            <rect class="cls-188" x="212.79" y="138.08" width=".7" height="107.44"/>
            <rect class="cls-232" x="213.48" y="138.08" width=".7" height="107.44"/>
            <rect class="cls-238" x="214.18" y="138.08" width=".7" height="107.44"/>
            <rect class="cls-85" x="214.88" y="138.08" width=".7" height="107.44"/>
            <rect class="cls-195" x="215.57" y="138.08" width=".7" height="107.44"/>
            <rect class="cls-195" x="216.27" y="138.08" width=".23" height="107.44"/>
            <rect class="cls-285" x="216.5" y="138.08" width=".23" height="107.44"/>
            <rect class="cls-219" x="216.73" y="138.08" width=".23" height="107.44"/>
            <rect class="cls-268" x="216.96" y="138.08" width=".23" height="107.44"/>
            <rect class="cls-124" x="217.19" y="138.08" width=".23" height="107.44"/>
            <rect class="cls-192" x="217.43" y="138.08" width=".23" height="107.44"/>
            <rect class="cls-71" x="217.66" y="138.08" width=".23" height="107.44"/>
            <rect class="cls-75" x="217.89" y="138.08" width=".23" height="107.44"/>
            <rect class="cls-218" x="218.12" y="138.08" width=".23" height="107.44"/>
            <rect class="cls-249" x="218.35" y="138.08" width=".23" height="107.44"/>
            <rect class="cls-95" x="218.58" y="138.08" width=".23" height="107.44"/>
            <rect class="cls-173" x="218.81" y="138.08" width=".23" height="107.44"/>
            <rect class="cls-211" x="219.04" y="138.08" width=".23" height="107.44"/>
            <rect class="cls-86" x="219.28" y="138.08" width=".23" height="107.44"/>
            <rect class="cls-196" x="219.51" y="138.08" width=".23" height="107.44"/>
            <rect class="cls-27" x="219.74" y="138.08" width=".23" height="107.44"/>
            <rect class="cls-102" x="219.97" y="138.08" width=".23" height="107.44"/>
            <rect class="cls-28" x="220.2" y="138.08" width=".23" height="107.44"/>
            <rect class="cls-9" x="220.43" y="138.08" width=".23" height="107.44"/>
            <rect class="cls-231" x="220.66" y="138.08" width=".23" height="107.44"/>
            <rect class="cls-78" x="220.9" y="138.08" width=".23" height="107.44"/>
            <rect class="cls-11" x="221.13" y="138.08" width=".23" height="107.44"/>
            <rect class="cls-259" x="221.36" y="138.08" width=".23" height="107.44"/>
            <rect class="cls-24" x="221.59" y="138.08" width=".23" height="107.44"/>
            <rect class="cls-233" x="221.82" y="138.08" width=".23" height="107.44"/>
            <rect class="cls-32" x="222.05" y="138.08" width=".23" height="107.44"/>
            <rect class="cls-162" x="222.28" y="138.08" width=".23" height="107.44"/>
            <rect class="cls-25" x="222.52" y="138.08" width=".23" height="107.44"/>
            <rect class="cls-224" x="222.75" y="138.08" width=".23" height="107.44"/>
            <rect class="cls-69" x="222.98" y="138.08" width=".23" height="107.44"/>
            <rect class="cls-202" x="223.21" y="138.08" width=".23" height="107.44"/>
            <rect class="cls-221" x="223.44" y="138.08" width=".23" height="107.44"/>
            <rect class="cls-108" x="223.67" y="138.08" width=".23" height="107.44"/>
            <rect class="cls-33" x="223.9" y="138.08" width=".23" height="107.44"/>
            <rect class="cls-104" x="224.13" y="138.08" width=".23" height="107.44"/>
            <rect class="cls-58" x="224.37" y="138.08" width=".23" height="107.44"/>
            <rect class="cls-243" x="224.6" y="138.08" width=".23" height="107.44"/>
            <rect class="cls-107" x="224.83" y="138.08" width=".23" height="107.44"/>
            <rect class="cls-30" x="225.06" y="138.08" width=".23" height="107.44"/>
            <rect class="cls-172" x="225.29" y="138.08" width=".23" height="107.44"/>
            <rect class="cls-248" x="225.52" y="138.08" width=".23" height="107.44"/>
            <rect class="cls-134" x="225.75" y="138.08" width=".23" height="107.44"/>
            <rect class="cls-155" x="225.99" y="138.08" width=".23" height="107.44"/>
            <rect class="cls-48" x="226.22" y="138.08" width=".23" height="107.44"/>
            <rect class="cls-290" x="226.45" y="138.08" width=".23" height="107.44"/>
            <rect class="cls-4" x="226.68" y="138.08" width=".23" height="107.44"/>
            <rect class="cls-277" x="226.91" y="138.08" width=".23" height="107.44"/>
            <rect class="cls-70" x="227.14" y="138.08" width=".23" height="107.44"/>
            <rect class="cls-208" x="227.37" y="138.08" width=".23" height="107.44"/>
            <rect class="cls-250" x="227.61" y="138.08" width=".23" height="107.44"/>
            <rect class="cls-151" x="227.84" y="138.08" width=".23" height="107.44"/>
            <rect class="cls-31" x="228.07" y="138.08" width=".23" height="107.44"/>
            <rect class="cls-200" x="228.3" y="138.08" width=".23" height="107.44"/>
            <rect class="cls-40" x="228.53" y="138.08" width=".23" height="107.44"/>
            <rect class="cls-94" x="228.76" y="138.08" width=".23" height="107.44"/>
            <rect class="cls-44" x="228.99" y="138.08" width=".23" height="107.44"/>
            <rect class="cls-215" x="229.22" y="138.08" width=".23" height="107.44"/>
            <rect class="cls-56" x="229.46" y="138.08" width=".23" height="107.44"/>
            <rect class="cls-279" x="229.69" y="138.08" width=".23" height="107.44"/>
            <rect class="cls-288" x="229.92" y="138.08" width=".23" height="107.44"/>
            <rect class="cls-184" x="230.15" y="138.08" width=".23" height="107.44"/>
            <rect class="cls-46" x="230.38" y="138.08" width=".23" height="107.44"/>
            <rect class="cls-54" x="230.61" y="138.08" width=".23" height="107.44"/>
            <rect class="cls-258" x="230.84" y="138.08" width=".23" height="107.44"/>
            <rect class="cls-41" x="231.08" y="138.08" width=".23" height="107.44"/>
            <rect class="cls-5" x="231.31" y="138.08" width=".23" height="107.44"/>
            <rect class="cls-169" x="231.54" y="138.08" width=".23" height="107.44"/>
            <rect class="cls-83" x="231.77" y="138.08" width=".23" height="107.44"/>
            <rect class="cls-236" x="232" y="138.08" width=".23" height="107.44"/>
            <rect class="cls-67" x="232.23" y="138.08" width=".23" height="107.44"/>
            <rect class="cls-282" x="232.46" y="138.08" width=".23" height="107.44"/>
            <rect class="cls-115" x="232.7" y="138.08" width=".23" height="107.44"/>
            <rect class="cls-257" x="232.93" y="138.08" width=".23" height="107.44"/>
            <rect class="cls-203" x="233.16" y="138.08" width=".23" height="107.44"/>
            <rect class="cls-84" x="233.39" y="138.08" width=".23" height="107.44"/>
            <rect class="cls-77" x="233.62" y="138.08" width=".23" height="107.44"/>
            <rect class="cls-199" x="233.85" y="138.08" width=".23" height="107.44"/>
            <rect class="cls-8" x="234.08" y="138.08" width=".23" height="107.44"/>
            <rect class="cls-171" x="234.31" y="138.08" width=".23" height="107.44"/>
            <rect class="cls-264" x="234.55" y="138.08" width=".23" height="107.44"/>
            <rect class="cls-105" x="234.78" y="138.08" width=".23" height="107.44"/>
            <rect class="cls-247" x="235.01" y="138.08" width=".23" height="107.44"/>
            <rect class="cls-47" x="235.24" y="138.08" width=".23" height="107.44"/>
            <rect class="cls-212" x="235.47" y="138.08" width=".23" height="107.44"/>
            <rect class="cls-89" x="235.7" y="138.08" width=".23" height="107.44"/>
            <rect class="cls-227" x="235.93" y="138.08" width=".23" height="107.44"/>
            <rect class="cls-65" x="236.17" y="138.08" width=".23" height="107.44"/>
            <rect class="cls-126" x="236.4" y="138.08" width=".23" height="107.44"/>
            <rect class="cls-147" x="236.63" y="138.08" width=".23" height="107.44"/>
            <rect class="cls-110" x="236.86" y="138.08" width=".23" height="107.44"/>
            <rect class="cls-225" x="237.09" y="138.08" width=".23" height="107.44"/>
            <rect class="cls-230" x="237.32" y="138.08" width=".23" height="107.44"/>
            <rect class="cls-99" x="237.55" y="138.08" width=".23" height="107.44"/>
            <rect class="cls-80" x="237.79" y="138.08" width=".23" height="107.44"/>
            <rect class="cls-6" x="238.02" y="138.08" width=".23" height="107.44"/>
            <rect class="cls-166" x="238.25" y="138.08" width=".23" height="107.44"/>
            <rect class="cls-3" x="238.48" y="138.08" width=".23" height="107.44"/>
            <rect class="cls-74" x="238.71" y="138.08" width=".23" height="107.44"/>
            <rect class="cls-242" x="238.94" y="138.08" width=".23" height="107.44"/>
            <rect class="cls-114" x="239.17" y="138.08" width=".23" height="107.44"/>
            <rect class="cls-265" x="239.4" y="138.08" width=".23" height="107.44"/>
            <rect class="cls-132" x="239.64" y="138.08" width=".23" height="107.44"/>
            <rect class="cls-42" x="239.87" y="138.08" width=".23" height="107.44"/>
            <rect class="cls-234" x="240.1" y="138.08" width=".23" height="107.44"/>
            <rect class="cls-36" x="240.33" y="138.08" width=".23" height="107.44"/>
            <rect class="cls-148" x="240.56" y="138.08" width=".23" height="107.44"/>
            <rect class="cls-273" x="240.79" y="138.08" width=".23" height="107.44"/>
            <rect class="cls-21" x="241.02" y="138.08" width=".23" height="107.44"/>
            <rect class="cls-149" x="241.26" y="138.08" width=".23" height="107.44"/>
            <rect class="cls-160" x="241.49" y="138.08" width=".23" height="107.44"/>
            <rect class="cls-18" x="241.72" y="138.08" width=".23" height="107.44"/>
            <rect class="cls-146" x="241.95" y="138.08" width=".23" height="107.44"/>
            <rect class="cls-87" x="242.18" y="138.08" width=".23" height="107.44"/>
            <rect class="cls-88" x="242.41" y="138.08" width=".23" height="107.44"/>
            <rect class="cls-103" x="242.64" y="138.08" width=".23" height="107.44"/>
            <rect class="cls-43" x="242.88" y="138.08" width=".23" height="107.44"/>
            <rect class="cls-38" x="243.11" y="138.08" width=".23" height="107.44"/>
            <rect class="cls-16" x="243.34" y="138.08" width=".23" height="107.44"/>
            <rect class="cls-228" x="243.57" y="138.08" width=".23" height="107.44"/>
            <rect class="cls-163" x="243.8" y="138.08" width=".23" height="107.44"/>
            <rect class="cls-121" x="244.03" y="138.08" width=".23" height="107.44"/>
            <rect class="cls-159" x="244.26" y="138.08" width=".23" height="107.44"/>
            <rect class="cls-55" x="244.49" y="138.08" width=".23" height="107.44"/>
            <rect class="cls-39" x="244.73" y="138.08" width=".23" height="107.44"/>
            <rect class="cls-12" x="244.96" y="138.08" width=".23" height="107.44"/>
            <rect class="cls-284" x="245.19" y="138.08" width=".23" height="107.44"/>
            <rect class="cls-270" x="245.42" y="138.08" width=".23" height="107.44"/>
            <rect class="cls-161" x="245.65" y="138.08" width=".23" height="107.44"/>
            <rect class="cls-235" x="245.88" y="138.08" width=".23" height="107.44"/>
            <rect class="cls-97" x="246.11" y="138.08" width=".23" height="107.44"/>
            <rect class="cls-291" x="246.35" y="138.08" width=".23" height="107.44"/>
            <rect class="cls-267" x="246.58" y="138.08" width=".23" height="107.44"/>
            <rect class="cls-254" x="246.81" y="138.08" width=".23" height="107.44"/>
            <rect class="cls-157" x="247.04" y="138.08" width=".23" height="107.44"/>
            <rect class="cls-280" x="247.27" y="138.08" width=".23" height="107.44"/>
            <rect class="cls-263" x="247.5" y="138.08" width=".23" height="107.44"/>
            <rect class="cls-49" x="247.73" y="138.08" width=".23" height="107.44"/>
            <rect class="cls-145" x="247.97" y="138.08" width=".23" height="107.44"/>
            <rect class="cls-141" x="248.2" y="138.08" width=".23" height="107.44"/>
            <rect class="cls-287" x="248.43" y="138.08" width=".23" height="107.44"/>
            <rect class="cls-281" x="248.66" y="138.08" width=".23" height="107.44"/>
            <rect class="cls-92" x="248.89" y="138.08" width=".23" height="107.44"/>
            <rect class="cls-98" x="249.12" y="138.08" width=".23" height="107.44"/>
            <rect class="cls-255" x="249.35" y="138.08" width=".23" height="107.44"/>
            <rect class="cls-112" x="249.58" y="138.08" width=".23" height="107.44"/>
            <rect class="cls-14" x="249.82" y="138.08" width=".23" height="107.44"/>
            <rect class="cls-168" x="250.05" y="138.08" width=".23" height="107.44"/>
            <rect class="cls-170" x="250.28" y="138.08" width=".23" height="107.44"/>
            <rect class="cls-19" x="250.51" y="138.08" width=".23" height="107.44"/>
            <rect class="cls-34" x="250.74" y="138.08" width=".23" height="107.44"/>
            <rect class="cls-177" x="250.97" y="138.08" width=".23" height="107.44"/>
            <rect class="cls-205" x="251.2" y="138.08" width=".23" height="107.44"/>
            <rect class="cls-153" x="251.44" y="138.08" width=".23" height="107.44"/>
            <rect class="cls-217" x="251.67" y="138.08" width=".23" height="107.44"/>
            <rect class="cls-185" x="251.9" y="138.08" width=".23" height="107.44"/>
            <rect class="cls-189" x="252.13" y="138.08" width=".23" height="107.44"/>
            <rect class="cls-183" x="252.36" y="138.08" width=".23" height="107.44"/>
            <rect class="cls-222" x="252.59" y="138.08" width=".23" height="107.44"/>
            <rect class="cls-223" x="252.82" y="138.08" width=".23" height="107.44"/>
            <rect class="cls-207" x="253.06" y="138.08" width=".23" height="107.44"/>
            <rect class="cls-179" x="253.29" y="138.08" width=".23" height="107.44"/>
            <rect class="cls-128" x="253.52" y="138.08" width=".23" height="107.44"/>
            <rect class="cls-216" x="253.75" y="138.08" width=".23" height="107.44"/>
            <rect class="cls-210" x="253.98" y="138.08" width=".23" height="107.44"/>
            <rect class="cls-37" x="254.21" y="138.08" width=".23" height="107.44"/>
            <rect class="cls-256" x="254.44" y="138.08" width=".23" height="107.44"/>
            <rect class="cls-181" x="254.67" y="138.08" width=".23" height="107.44"/>
            <rect class="cls-213" x="254.91" y="138.08" width=".23" height="107.44"/>
            <rect class="cls-201" x="255.14" y="138.08" width=".23" height="107.44"/>
            <rect class="cls-253" x="255.37" y="138.08" width=".23" height="107.44"/>
            <rect class="cls-176" x="255.6" y="138.08" width=".23" height="107.44"/>
            <rect class="cls-209" x="255.83" y="138.08" width=".23" height="107.44"/>
            <rect class="cls-292" x="256.06" y="138.08" width=".23" height="107.44"/>
            <rect class="cls-79" x="256.29" y="138.08" width=".23" height="107.44"/>
            <rect class="cls-187" x="256.53" y="138.08" width=".23" height="107.44"/>
            <rect class="cls-7" x="256.76" y="138.08" width=".23" height="107.44"/>
            <rect class="cls-60" x="256.99" y="138.08" width=".23" height="107.44"/>
            <rect class="cls-276" x="257.22" y="138.08" width=".23" height="107.44"/>
            <rect class="cls-262" x="257.45" y="138.08" width=".23" height="107.44"/>
            <rect class="cls-51" x="257.68" y="138.08" width=".23" height="107.44"/>
            <rect class="cls-278" x="257.91" y="138.08" width=".23" height="107.44"/>
            <rect class="cls-139" x="258.15" y="138.08" width=".23" height="107.44"/>
            <rect class="cls-81" x="258.38" y="138.08" width=".23" height="107.44"/>
            <rect class="cls-91" x="258.61" y="138.08" width=".23" height="107.44"/>
            <rect class="cls-57" x="258.84" y="138.08" width=".23" height="107.44"/>
            <rect class="cls-214" x="259.07" y="138.08" width=".23" height="107.44"/>
            <rect class="cls-142" x="259.3" y="138.08" width=".23" height="107.44"/>
            <rect class="cls-82" x="259.53" y="138.08" width=".23" height="107.44"/>
            <rect class="cls-13" x="259.76" y="138.08" width=".23" height="107.44"/>
            <rect class="cls-140" x="260" y="138.08" width=".23" height="107.44"/>
            <rect class="cls-226" x="260.23" y="138.08" width=".23" height="107.44"/>
            <rect class="cls-246" x="260.46" y="138.08" width=".23" height="107.44"/>
            <rect class="cls-252" x="260.69" y="138.08" width=".23" height="107.44"/>
            <rect class="cls-283" x="260.92" y="138.08" width=".23" height="107.44"/>
            <rect class="cls-23" x="261.15" y="138.08" width=".23" height="107.44"/>
            <rect class="cls-62" x="261.38" y="138.08" width=".23" height="107.44"/>
            <rect class="cls-122" x="261.62" y="138.08" width=".23" height="107.44"/>
            <rect class="cls-64" x="261.85" y="138.08" width=".23" height="107.44"/>
            <rect class="cls-229" x="262.08" y="138.08" width=".23" height="107.44"/>
            <rect class="cls-10" x="262.31" y="138.08" width=".23" height="107.44"/>
            <rect class="cls-164" x="262.54" y="138.08" width=".23" height="107.44"/>
            <rect class="cls-72" x="262.77" y="138.08" width=".23" height="107.44"/>
            <rect class="cls-133" x="263" y="138.08" width=".23" height="107.44"/>
            <rect class="cls-251" x="263.24" y="138.08" width=".23" height="107.44"/>
            <rect class="cls-206" x="263.47" y="138.08" width=".23" height="107.44"/>
            <rect class="cls-17" x="263.7" y="138.08" width=".23" height="107.44"/>
            <rect class="cls-117" x="263.93" y="138.08" width=".23" height="107.44"/>
            <rect class="cls-113" x="264.16" y="138.08" width=".23" height="107.44"/>
            <rect class="cls-137" x="264.39" y="138.08" width=".23" height="107.44"/>
            <rect class="cls-20" x="264.62" y="138.08" width=".23" height="107.44"/>
            <rect class="cls-106" x="264.85" y="138.08" width=".23" height="107.44"/>
            <rect class="cls-240" x="265.09" y="138.08" width=".23" height="107.44"/>
            <rect class="cls-180" x="265.32" y="138.08" width=".23" height="107.44"/>
            <rect class="cls-22" x="265.55" y="138.08" width=".23" height="107.44"/>
            <rect class="cls-119" x="265.78" y="138.08" width=".23" height="107.44"/>
          </g>
          <g>
            <path class="cls-182" d="M226.6,185.01c0-6.11-4.95-11.06-11.06-11.06s-11.06,4.95-11.06,11.06c0,3.49,1.62,6.6,4.15,8.63v24.98h13.82v-24.98c2.53-2.03,4.15-5.13,4.15-8.63Z"/>
            <path class="cls-182" d="M222.78,218.93h-14.46v-25.14c-2.64-2.17-4.15-5.36-4.15-8.78,0-6.27,5.1-11.38,11.38-11.38s11.38,5.1,11.38,11.38c0,3.41-1.51,6.6-4.15,8.78v25.14ZM208.95,218.29h13.18v-24.81l.12-.1c2.56-2.05,4.03-5.11,4.03-8.38,0-5.92-4.82-10.74-10.74-10.74s-10.74,4.82-10.74,10.74c0,3.27,1.47,6.32,4.03,8.38l.12.1v24.81Z"/>
          </g>
        </g>
      </g>
      <g>
        <g>
          <g>
            <g>
              <path class="cls-182" d="M68.26,201.37l-2,9.7-10.45,32.97c-.35,1.38-.79,2.74-1.34,4.05l-7.81,22.87,3.23,2.05,15.57-23.47c.91-1.38,1.86-2.4,2.62-3.87l13.96-24.04,1.03-.86,15.34,24.79c.68.84,1.24,1.77,1.66,2.77l11.11,26.25,6.17-.35-5.07-30.59c-.29-1.75-.98-3.41-2.02-4.85l-17.21-33.47-.73-5.26-24.08,1.29Z"/>
              <path class="cls-182" d="M111.2,274.9c-.13,0-.24-.08-.29-.19l-11.11-26.25c-.41-.97-.95-1.87-1.62-2.69l-15.17-24.51-.71.59-13.93,23.99c-.49.94-1.05,1.7-1.64,2.5-.33.44-.66.89-.99,1.39l-15.57,23.47c-.1.15-.29.19-.44.09l-3.23-2.05c-.12-.08-.18-.23-.13-.37l7.81-22.87c.54-1.32.99-2.67,1.33-4.03l10.45-32.99,1.99-9.67c.03-.14.15-.25.3-.25l24.08-1.29c.16-.01.31.11.33.27l.73,5.2,17.18,33.42c1.04,1.43,1.75,3.15,2.05,4.94l5.07,30.58c.01.09,0,.18-.07.25s-.14.11-.23.12l-6.17.35s-.01,0-.02,0ZM83.08,220.46s.03,0,.05,0c.09.01.17.07.22.15l15.34,24.79c.68.83,1.25,1.79,1.69,2.81l11.03,26.04,5.59-.31-5.01-30.23c-.28-1.69-.96-3.32-1.96-4.71l-17.23-33.51s-.03-.07-.03-.1l-.69-4.97-23.54,1.26-1.95,9.46-10.45,33.01c-.34,1.38-.8,2.75-1.35,4.08l-7.73,22.61,2.76,1.75,15.4-23.21c.34-.51.68-.96,1.01-1.41.58-.78,1.12-1.51,1.59-2.42l13.97-24.05s.04-.06.07-.08l1.03-.86c.06-.05.13-.07.2-.07Z"/>
            </g>
            <g>
              <path class="cls-182" d="M89.74,211.82c-.09,0-.18-.04-.24-.11-.12-.13-.11-.33.03-.45l.88-.78c.13-.12.33-.11.45.03.12.13.11.33-.03.45l-.88.78c-.06.05-.14.08-.21.08Z"/>
              <path class="cls-182" d="M84.27,220.41c-.05,0-.11-.01-.16-.04-.15-.09-.2-.28-.11-.44l4.53-7.75c.09-.15.28-.2.44-.11.15.09.2.28.11.44l-4.53,7.75c-.06.1-.17.16-.28.16Z"/>
            </g>
          </g>
          <g>
            <path class="cls-275" d="M88.86,166.09l14.04,10.56,18.25-10.86,3.04,4.49s-21.87,16.95-22.45,17.09c-.58.14-10.72-2.61-10.72-2.61l-2.16-18.68Z"/>
            <path class="cls-182" d="M101.73,187.69c-1.03,0-7.83-1.81-10.79-2.62-.13-.03-.22-.14-.23-.27l-2.16-18.68c-.01-.13.05-.25.16-.31.11-.06.25-.06.35.02l13.87,10.43,18.07-10.76c.15-.09.33-.04.43.1l3.04,4.49c.09.14.06.33-.07.43-6.59,5.11-21.99,17.01-22.57,17.15-.02,0-.05,0-.09,0ZM91.31,184.51c3.8,1.03,9.82,2.57,10.37,2.54.64-.32,13.47-10.18,22.08-16.85l-2.71-3.99-17.99,10.71c-.11.07-.25.06-.36-.02l-13.45-10.12,2.05,17.72Z"/>
          </g>
          <g>
            <path class="cls-275" d="M68.44,162.98s-9.05.26-9.43,1.03c-.39.78,1.42,10.99,3.49,18.22,2.07,7.24,5.3,15.25,5.3,16.03s-.39,3.23.52,3.88c.9.65,14.22.9,17.96,1.16,3.75.26,5.69-1.81,6.07-3.23.39-1.42-1.03-6.07-1.03-6.07,0,0-1.16-21.71-1.29-23.78-.13-2.07,0-2.71-1.16-4.14-1.16-1.42-11.63-3.36-13.7-3.36s-6.72.26-6.72.26Z"/>
            <path class="cls-182" d="M86.9,203.65c-.21,0-.43,0-.65-.02-1.12-.08-3.08-.15-5.35-.24-8.18-.32-12.18-.55-12.78-.98-.88-.63-.76-2.39-.68-3.56.02-.24.03-.44.03-.58,0-.29-.68-2.17-1.39-4.17-1.14-3.2-2.7-7.59-3.9-11.77-1.94-6.8-3.95-17.49-3.47-18.45.39-.78,5.49-1.09,9.71-1.21.17,0,4.71-.26,6.73-.26s12.67,1.91,13.95,3.48c1.08,1.32,1.12,2.08,1.19,3.59.01.22.02.47.04.73.13,2.05,1.28,23.57,1.29,23.78.13.41,1.42,4.71,1.02,6.18-.4,1.45-2.24,3.49-5.75,3.49ZM75.16,163.04c-2.04,0-6.66.26-6.7.26,0,0,0,0,0,0-4.16.12-8.73.48-9.18.89-.25.75,1.39,10.45,3.53,17.96,1.19,4.16,2.75,8.54,3.89,11.73.99,2.77,1.42,4.01,1.42,4.38,0,.15-.01.37-.03.62-.06.9-.17,2.58.41,3,.64.4,8.02.69,12.44.86,2.27.09,4.24.17,5.37.24,3.55.23,5.38-1.66,5.74-3,.3-1.09-.64-4.63-1.03-5.9-.03-.29-1.18-21.81-1.31-23.85-.02-.27-.03-.51-.04-.74-.08-1.5-.1-2.06-1.05-3.21-.99-1.21-11.15-3.24-13.45-3.24ZM68.44,162.98h0,0Z"/>
          </g>
          <path class="cls-182" d="M86.45,198.56c-.16,0-.3-.12-.32-.29-.93-8.65-5.88-29.17-5.93-29.38-.04-.17.06-.34.24-.39.17-.04.34.06.39.24.05.21,5.01,20.77,5.95,29.46.02.18-.11.33-.28.35-.01,0-.02,0-.03,0Z"/>
          <g>
            <g>
              <polygon class="cls-275" points="82.56 162.56 84.26 166.07 80.76 164.72 82.56 162.56"/>
              <path class="cls-182" d="M84.26,166.38s-.08,0-.11-.02l-3.5-1.35c-.1-.04-.17-.12-.19-.22s0-.21.06-.29l1.8-2.16c.07-.08.18-.13.28-.11.11.01.2.08.25.18l1.71,3.5c.06.12.04.26-.05.36-.06.07-.15.1-.24.1ZM81.29,164.58l2.33.9-1.13-2.33-1.19,1.43Z"/>
            </g>
            <g>
              <polygon class="cls-275" points="79.5 166.96 82.56 162.56 78.78 160.77 79.5 166.96"/>
              <path class="cls-182" d="M79.5,167.28s-.05,0-.08,0c-.13-.03-.22-.14-.24-.27l-.72-6.2c-.01-.12.04-.23.13-.3.09-.07.22-.08.32-.03l3.77,1.8c.08.04.15.12.17.21s0,.19-.05.26l-3.05,4.4c-.06.09-.16.14-.26.14ZM79.17,161.3l.55,4.78,2.36-3.4-2.91-1.39Z"/>
            </g>
            <g>
              <g>
                <polygon class="cls-152" points="70.16 151.34 70.7 161.31 79.5 166.96 80.31 156.28 70.16 151.34"/>
                <path class="cls-182" d="M79.5,167.28c-.06,0-.12-.02-.17-.05l-8.8-5.66c-.09-.06-.14-.15-.15-.25l-.54-9.97c0-.11.05-.22.14-.28.09-.06.22-.07.32-.02l10.15,4.94c.12.06.19.18.18.31l-.81,10.69c0,.11-.08.21-.18.26-.04.02-.09.03-.14.03ZM71.01,161.13l8.21,5.28.75-9.94-9.46-4.61.5,9.26Z"/>
              </g>
              <g>
                <polygon class="cls-182" points="70.17 151.48 70.68 160.87 80.29 156.6 80.31 156.28 70.29 151.4 70.17 151.48"/>
                <path class="cls-182" d="M70.68,161.19c-.06,0-.12-.02-.17-.05-.09-.06-.15-.15-.15-.26l-.51-9.39c0-.11.04-.21.13-.28l.11-.08c.1-.07.22-.08.33-.03l10.03,4.88c.12.06.19.18.18.31l-.02.32c0,.12-.08.22-.19.27l-9.61,4.27s-.09.03-.13.03ZM70.51,151.86l.46,8.53,8.92-3.96-9.38-4.57Z"/>
              </g>
              <g>
                <g>
                  <g>
                    <path class="cls-152" d="M80.49,139.49s2.16,3.5,1.8,4.31c-.36.81-.54,1.26-.27,1.44.27.18,3.23,2.78,3.05,3.41-.18.63-1.71,1.44-1.71,1.44,0,0,.7,7.46.25,7.73-.45.27-8.15-.81-8.78-1.08s-3.59-3.23-4.58-4.58c-.99-1.35-2.33-4.76-2.33-6.73s2.07-6.2,6.2-6.91c4.13-.72,6.38.99,6.38.99Z"/>
                    <path class="cls-182" d="M83.14,158.16c-2.05,0-8.06-.98-8.43-1.14-.73-.31-3.75-3.38-4.71-4.68-.97-1.32-2.4-4.8-2.4-6.92s2.22-6.49,6.46-7.23c4.22-.73,6.53.97,6.62,1.05.03.02.06.05.08.09.53.86,2.21,3.72,1.82,4.61-.15.35-.41.92-.37,1.06.02,0,3.44,2.79,3.17,3.75-.18.62-1.21,1.26-1.68,1.53.69,7.45.26,7.71.07,7.82-.09.05-.32.08-.64.08ZM76.08,138.64c-.58,0-1.22.05-1.91.17-3.89.68-5.93,4.66-5.93,6.6,0,1.82,1.27,5.18,2.27,6.55.99,1.36,3.92,4.25,4.45,4.48.54.23,7.35,1.18,8.43,1.1.15-.7-.05-4.23-.35-7.42-.01-.13.05-.25.17-.31.57-.3,1.45-.9,1.55-1.24-.04-.49-2.53-2.79-2.92-3.06-.51-.34-.22-1,.16-1.83.17-.39-.76-2.35-1.74-3.96-.27-.18-1.71-1.07-4.17-1.07Z"/>
                  </g>
                  <path class="cls-182" d="M81.17,151.86c-2.02,0-2.49-1.25-2.51-1.32-.06-.17.03-.35.19-.41.17-.06.35.03.41.19.02.06.53,1.26,2.96.78.17-.03.34.08.37.25.03.17-.08.34-.25.37-.44.08-.83.12-1.17.12Z"/>
                  <path class="cls-182" d="M77.44,144.02c-.07,0-.14-.02-.2-.07-.14-.11-.16-.31-.05-.45.05-.06,1.14-1.42,3.03-.92.17.04.27.22.23.39-.05.17-.22.27-.39.23-1.47-.39-2.33.65-2.36.7-.06.08-.16.12-.25.12Z"/>
                  <path class="cls-182" d="M80.13,146.18c0,.47-.22.85-.49.85s-.49-.38-.49-.85.22-.85.49-.85.49.38.49.85Z"/>
                </g>
                <g>
                  <path class="cls-182" d="M70.34,149.63l1.26-.18s-1.71-1.53-.9-2.33c.81-.81,3.23-1.98,2.96-2.96-.27-.99-2.87-2.6-1.26-3.32,1.62-.72,11.58-.54,12.66-.9s1.44-3.14-1.44-4.31c-2.87-1.17-5.3-1.17-5.3-1.17,0,0,1.98-1.08,1.08-1.53-.9-.45-7.27.45-10.96,2.16-3.68,1.71-5.3,4.22-5.03,6.38.27,2.16,3.68,8.26,4.04,8.53.36.27,2.87-.36,2.87-.36Z"/>
                  <path class="cls-182" d="M67.88,150.37c-.27,0-.49-.04-.6-.12-.45-.34-3.9-6.58-4.17-8.75-.31-2.5,1.68-5.07,5.21-6.7,3.63-1.68,10.19-2.68,11.23-2.15.35.18.41.44.41.58,0,.35-.3.69-.66.98.99.11,2.62.39,4.45,1.13,1.84.75,2.46,2.15,2.43,3.21-.03.82-.43,1.5-1.01,1.7-.46.15-2.1.21-4.73.29-2.96.09-7.01.2-7.9.6-.2.09-.31.18-.33.29-.07.31.47.92.86,1.36.41.46.79.89.9,1.3.24.9-.89,1.69-1.99,2.46-.42.3-.82.58-1.05.81-.09.09-.13.19-.12.32.01.55.73,1.31,1.01,1.55.09.08.13.21.09.33s-.14.21-.26.22l-1.24.18c-.86.21-1.87.42-2.52.42ZM78.53,133.14c-1.97,0-6.82.79-9.94,2.24-3.27,1.51-5.12,3.83-4.85,6.05.26,2.06,3.55,7.95,3.93,8.33.21.07,1.52-.16,2.59-.42.01,0,.02,0,.03,0l.64-.09c-.34-.4-.75-.98-.77-1.55,0-.3.1-.58.31-.79.27-.27.69-.57,1.14-.88.74-.52,1.87-1.31,1.74-1.77-.07-.27-.42-.66-.76-1.04-.56-.64-1.15-1.29-1.01-1.92.07-.31.3-.56.7-.74,1.01-.45,4.8-.56,8.14-.66,2.04-.06,4.15-.12,4.55-.25.31-.1.55-.57.57-1.11.01-.41-.09-1.81-2.03-2.6-2.78-1.13-5.15-1.14-5.18-1.14-.15,0-.27-.1-.31-.24-.04-.14.03-.29.16-.36.57-.31,1.13-.77,1.15-.94-.13-.06-.41-.09-.79-.09Z"/>
                </g>
                <g>
                  <path class="cls-152" d="M71.23,150.11s-.36-2.33-2.42-2.69c-2.07-.36-2.47,2.17-1.85,3.43.63,1.26,3.37,2.23,4.18,1.78.81-.45.9-.72.9-.72"/>
                  <path class="cls-182" d="M70.58,153.06c-.45,0-.93-.12-1.24-.22-.95-.29-2.21-.95-2.66-1.85-.42-.85-.46-2.26.22-3.17.45-.61,1.15-.86,1.97-.72,2.27.39,2.67,2.85,2.69,2.96.03.17-.09.34-.27.36-.17.03-.34-.09-.36-.27-.01-.09-.35-2.11-2.16-2.43-.58-.1-1.04.06-1.35.47-.5.68-.49,1.84-.16,2.5.29.57,1.22,1.2,2.28,1.52.74.23,1.27.22,1.46.12.64-.35.76-.57.76-.57.06-.17.23-.24.4-.19.17.06.25.25.2.42-.04.12-.22.44-1.05.9-.2.11-.45.15-.72.15Z"/>
                </g>
              </g>
            </g>
            <g>
              <path class="cls-275" d="M69.54,159.78c.45,0,8.08,3.95,8.08,3.95l1.89,3.23-10.51-4.4.54-2.78Z"/>
              <path class="cls-182" d="M79.5,167.28s-.08,0-.12-.02l-10.51-4.4c-.14-.06-.22-.21-.19-.35l.54-2.78c.03-.15.16-.26.31-.26.46,0,5.35,2.5,8.23,3.99.05.03.1.07.13.12l1.89,3.23c.07.12.05.27-.04.37-.06.07-.15.11-.24.11ZM69.36,162.37l9.39,3.93-1.36-2.33c-2.54-1.31-6.48-3.31-7.61-3.78l-.42,2.17Z"/>
            </g>
            <g>
              <polygon class="cls-275" points="69.54 159.78 67.29 163.01 75.28 167.68 77.62 163.73 69.54 159.78"/>
              <path class="cls-182" d="M75.28,168c-.05,0-.11-.01-.16-.04l-7.99-4.67c-.08-.04-.13-.12-.15-.21s0-.18.05-.25l2.25-3.23c.09-.13.26-.17.4-.1l8.08,3.95c.08.04.14.11.17.19.03.09.01.18-.03.25l-2.33,3.95c-.06.1-.17.16-.28.16ZM67.75,162.91l7.42,4.33,2-3.38-7.53-3.68-1.89,2.72Z"/>
            </g>
          </g>
          <g>
            <path class="cls-182" d="M111.2,274.58l.35,7.26s7.61-.12,9.37.35c1.76.47,5.62.35,7.61.23,0,0,.59-.7.59-1.29s-2.46-1.4-3.04-1.76c-.59-.35-4.92-1.64-5.39-2.11-.47-.47-3.63-3.16-3.63-3.16l-5.85.47Z"/>
            <path class="cls-182" d="M125.08,282.85c-1.55,0-3.22-.08-4.24-.35-1.69-.45-9.2-.34-9.28-.34-.19.02-.32-.13-.32-.3l-.35-7.26c0-.17.12-.32.29-.33l5.85-.47c.08,0,.17.02.23.08.13.11,3.18,2.71,3.65,3.18.23.23,2.07.87,3.18,1.25,1.16.4,1.89.66,2.15.81.15.09.49.24.84.39,1.42.61,2.36,1.06,2.36,1.64,0,.68-.59,1.41-.66,1.49-.06.07-.14.11-.23.11-.63.04-2,.11-3.47.11ZM113.62,281.51c2.4,0,6.18.05,7.38.38,1.48.4,4.75.38,7.36.23.17-.23.43-.66.43-.98-.11-.25-1.41-.81-1.97-1.05-.39-.17-.73-.31-.92-.43-.21-.13-1.14-.45-2.03-.76-1.92-.67-3.11-1.09-3.42-1.4-.41-.41-2.97-2.6-3.51-3.06l-5.41.43.32,6.64c.36,0,.99,0,1.76,0Z"/>
          </g>
          <g>
            <path class="cls-182" d="M46.67,270.97l-1.21,1.85s-4.23,3.66-4.97,5.11c-.73,1.45-1.32,5.36-1.32,5.36,0,0,.51.67,1.69.72,1.18.05,5.22-2.9,5.87-3.76.65-.86,2.05-4.82,2.48-5.43.43-.61.68-1.81.68-1.81l-3.23-2.05Z"/>
            <path class="cls-182" d="M40.89,284.33s-.02,0-.04,0c-1.31-.05-1.9-.81-1.93-.84-.05-.07-.07-.15-.06-.24.02-.16.6-3.97,1.35-5.46.72-1.44,4.57-4.8,5.01-5.18l1.18-1.82c.1-.15.29-.19.44-.1l3.23,2.05c.11.07.17.2.14.33-.01.05-.27,1.26-.73,1.92-.17.24-.56,1.2-.94,2.12-.57,1.38-1.15,2.8-1.55,3.32-.68.89-4.72,3.89-6.1,3.89ZM39.52,283.19c.17.16.6.47,1.36.5h.02c1.01,0,4.9-2.73,5.58-3.63.34-.45.96-1.96,1.46-3.17.5-1.21.81-1.96,1.01-2.25.27-.38.48-1.07.58-1.47l-2.77-1.76-1.03,1.59s-.04.05-.06.07c-.04.04-4.19,3.63-4.89,5.01-.62,1.23-1.15,4.38-1.26,5.11ZM45.47,272.83h0,0Z"/>
          </g>
        </g>
        <g>
          <g>
            <g>
              <g>
                <rect class="cls-152" x="192.55" y="189.81" width="12" height="26.53"/>
                <path class="cls-182" d="M204.55,216.66h-12c-.18,0-.32-.14-.32-.32v-26.53c0-.18.14-.32.32-.32h12c.18,0,.32.14.32.32v26.53c0,.18-.14.32-.32.32ZM192.87,216.02h11.36v-25.89h-11.36v25.89Z"/>
              </g>
              <g>
                <rect class="cls-152" x="195.46" y="189.81" width="12" height="26.53"/>
                <path class="cls-182" d="M207.47,216.66h-12c-.18,0-.32-.14-.32-.32v-26.53c0-.18.14-.32.32-.32h12c.18,0,.32.14.32.32v26.53c0,.18-.14.32-.32.32ZM195.78,216.02h11.36v-25.89h-11.36v25.89Z"/>
              </g>
            </g>
            <g>
              <g>
                <rect class="cls-152" x="175.34" y="189.81" width="12" height="14.87"/>
                <path class="cls-182" d="M187.34,205h-12c-.18,0-.32-.14-.32-.32v-14.87c0-.18.14-.32.32-.32h12c.18,0,.32.14.32.32v14.87c0,.18-.14.32-.32.32ZM175.66,204.36h11.36v-14.23h-11.36v14.23Z"/>
              </g>
              <g>
                <rect class="cls-152" x="178.25" y="189.81" width="12" height="14.87"/>
                <path class="cls-182" d="M190.25,205h-12c-.18,0-.32-.14-.32-.32v-14.87c0-.18.14-.32.32-.32h12c.18,0,.32.14.32.32v14.87c0,.18-.14.32-.32.32ZM178.57,204.36h11.36v-14.23h-11.36v14.23Z"/>
              </g>
            </g>
          </g>
          <g>
            <path class="cls-152" d="M208.2,178.49h-72.18c-3.14-9.85-12.35-16.98-23.24-16.98-13.47,0-24.39,10.92-24.39,24.39s10.92,24.39,24.39,24.39c11.41,0,20.99-7.84,23.65-18.42h71.77c3.69,0,6.69-2.99,6.69-6.69s-2.99-6.69-6.69-6.69ZM112.5,197.76c-6.47,0-11.72-5.25-11.72-11.72s5.25-11.72,11.72-11.72,11.72,5.25,11.72,11.72-5.25,11.72-11.72,11.72Z"/>
            <path class="cls-182" d="M112.78,210.61c-13.62,0-24.71-11.08-24.71-24.71s11.08-24.71,24.71-24.71c10.73,0,20.13,6.81,23.47,16.98h71.95c3.86,0,7.01,3.14,7.01,7.01s-3.14,7.01-7.01,7.01h-71.52c-2.85,10.86-12.64,18.42-23.89,18.42ZM112.78,161.83c-13.27,0-24.07,10.8-24.07,24.07s10.8,24.07,24.07,24.07c11.05,0,20.65-7.47,23.34-18.18.04-.14.16-.24.31-.24h71.77c3.51,0,6.37-2.86,6.37-6.37s-2.86-6.37-6.37-6.37h-72.18c-.14,0-.26-.09-.3-.22-3.19-10.02-12.41-16.76-22.93-16.76ZM112.5,198.08c-6.64,0-12.04-5.4-12.04-12.04s5.4-12.04,12.04-12.04,12.04,5.4,12.04,12.04-5.4,12.04-12.04,12.04ZM112.5,174.64c-6.29,0-11.4,5.11-11.4,11.4s5.11,11.4,11.4,11.4,11.4-5.11,11.4-11.4-5.11-11.4-11.4-11.4Z"/>
          </g>
        </g>
        <g>
          <g>
            <path class="cls-152" d="M87.02,180.47s1.13-3.49,1.45-3.83,4.51-2.99,4.51-2.99c0,0,.86.26.24,1.03s-3.02,2.48-3.02,2.48l-.94,1.77,3.16-1.75,3.3-1.03s.87.59.47,1.06c-.39.47-3.33,1.26-3.33,1.26l-2.3,2.01,3.21-.66,2.43.61s.24.69-.45.93c-.69.24-2.72-.17-2.72-.17l-1.98.68,3.79,1.02s.54.92-.55.97c-1.09.04-3.75-.26-3.75-.26,0,0-2.59,2.45-3.65,2.92-1.06.47-5.13.55-5.13.55l-.37-3.97,5.64-2.61Z"/>
            <path class="cls-182" d="M81.75,187.37c-.16,0-.3-.13-.32-.29l-.37-3.97c-.01-.13.06-.26.18-.32l5.51-2.55c.37-1.13,1.16-3.48,1.49-3.82.34-.34,3.86-2.59,4.57-3.04.08-.05.17-.06.26-.04.05.02.53.17.66.6.09.29,0,.6-.26.93-.59.73-2.64,2.22-3.03,2.5l-.4.75,2.22-1.23,3.36-1.05c.09-.03.19-.01.27.04.11.07.64.46.71.95.03.21-.03.41-.17.58-.41.49-2.64,1.13-3.43,1.34l-1.33,1.16,2.02-.42s.1,0,.14,0l2.43.61c.1.03.19.1.22.21,0,.02.08.25.05.52-.05.39-.3.68-.7.82-.69.24-2.36-.06-2.8-.14l-.92.32,2.78.75c.08.02.15.07.19.15.03.06.32.57.08,1-.15.28-.45.42-.9.44-.97.04-3.07-.18-3.65-.25-.51.48-2.65,2.44-3.63,2.88-1.08.49-4.83.57-5.26.58h0ZM81.72,183.27l.32,3.45c1.29-.04,3.96-.17,4.71-.51.99-.45,3.54-2.84,3.56-2.86.07-.06.16-.1.26-.08.03,0,2.64.3,3.7.26.23,0,.34-.06.37-.11.03-.06.01-.17-.03-.27l-3.65-.98c-.14-.04-.23-.16-.24-.3,0-.14.08-.27.22-.31l1.98-.68c.05-.02.11-.02.17-.01.75.15,2.11.33,2.55.18.23-.08.29-.24.28-.37l-2.16-.54-3.14.65c-.14.03-.29-.04-.35-.17s-.03-.29.08-.38l2.3-2.01s.08-.06.13-.07c1.37-.37,2.97-.92,3.17-1.16.03-.03.03-.06.03-.08-.02-.13-.18-.3-.32-.42l-3.15.98-3.1,1.73c-.12.07-.28.05-.38-.05-.1-.1-.12-.25-.06-.38l.94-1.77s.06-.08.1-.11c.02-.02,2.37-1.7,2.96-2.42.11-.14.17-.27.15-.34-.01-.05-.06-.09-.12-.12-1.61,1.03-4.09,2.63-4.31,2.86-.19.22-.85,2.06-1.38,3.7-.03.08-.09.15-.17.19l-5.44,2.51ZM87.02,180.47h0,0Z"/>
          </g>
          <g>
            <path class="cls-275" d="M59,164.02s-2.38.34-3.06,2.64c-.67,2.29-3.51,28.75-3.51,28.75l29.31-8.35-.37-3.97-17.88.45,2.43-11.61"/>
            <path class="cls-182" d="M52.44,195.72c-.07,0-.15-.03-.21-.08-.08-.07-.12-.17-.11-.28.12-1.08,2.84-26.51,3.52-28.8.72-2.46,3.21-2.85,3.32-2.86.18-.03.34.1.36.27.03.17-.1.34-.27.36-.09.01-2.19.35-2.8,2.41-.61,2.07-3.06,24.65-3.45,28.22l28.6-8.15-.32-3.41-17.58.44c-.09,0-.19-.04-.25-.11-.06-.08-.09-.17-.07-.27l2.43-11.61c.04-.17.21-.28.38-.25.17.04.28.21.25.38l-2.35,11.21,17.47-.44c.17-.01.31.12.33.29l.37,3.97c.01.15-.08.29-.23.34l-29.31,8.35s-.06.01-.09.01Z"/>
          </g>
          <path class="cls-182" d="M56.76,186.54c-.09,0-.18-.04-.25-.11-.11-.14-.09-.34.04-.45,3.29-2.74,6.8-2.77,6.95-2.77.18,0,.32.14.32.32s-.14.32-.32.32c-.03,0-3.44.04-6.54,2.62-.06.05-.13.07-.2.07Z"/>
        </g>
        <g>
          <g>
            <path class="cls-152" d="M125.58,163.22s1.27.53,1.6.87c.34.35.83,1.74.87,1.95.07.36-.18.79-.76.3-.59-.49-1.18-1.58-1.18-1.58l-.53-1.55Z"/>
            <path class="cls-182" d="M127.76,166.88c-.17,0-.4-.07-.67-.29-.63-.52-1.23-1.63-1.25-1.67l-.56-1.59c-.04-.12,0-.25.08-.34.09-.09.22-.11.34-.06.22.09,1.35.57,1.71.94.42.43.92,1.92.96,2.11.07.34-.05.67-.3.82-.07.04-.17.08-.31.08ZM126.42,164.66s.55,1.01,1.08,1.44c.18.15.25.15.26.15-.01,0,0-.06-.01-.14-.04-.21-.53-1.52-.79-1.8-.13-.13-.47-.32-.83-.5l.29.85h0Z"/>
          </g>
          <g>
            <path class="cls-152" d="M123.78,162.06s1.49.75,1.89,1.24.98,2.48,1.03,2.79c.09.51-.21,1.12-.9.43-.69-.69-1.39-2.25-1.39-2.25l-.63-2.21Z"/>
            <path class="cls-182" d="M126.34,167.15c-.2,0-.46-.1-.77-.41-.73-.73-1.42-2.28-1.45-2.35l-.65-2.25c-.03-.12,0-.25.1-.33.1-.08.23-.1.35-.04.16.08,1.57.8,1.99,1.33.45.56,1.04,2.61,1.09,2.93.06.39-.03.86-.39,1.04-.08.04-.17.07-.28.07ZM124.72,164.18s.67,1.48,1.3,2.12c.23.23.32.22.32.22.02-.02.07-.16.04-.37-.05-.32-.62-2.22-.96-2.64-.17-.21-.65-.53-1.12-.8l.42,1.48h0Z"/>
          </g>
          <g>
            <path class="cls-152" d="M121.34,161.89s1.94-.13,2.44.17c.49.3,1.21,3.15,1.12,3.65-.1.49-.86-.13-.86-.13l-2.69-3.68Z"/>
            <path class="cls-182" d="M124.69,166.22c-.33,0-.7-.26-.85-.39-.02-.02-.04-.04-.06-.06l-2.69-3.68c-.07-.09-.08-.22-.03-.32.05-.11.15-.18.27-.18.34-.02,2.07-.12,2.62.21.68.41,1.36,3.48,1.26,3.98-.06.28-.24.38-.34.42-.06.02-.12.03-.18.03ZM124.27,165.35c.1.08.23.16.32.19,0-.65-.65-2.97-.98-3.22-.2-.12-.93-.16-1.66-.15l2.32,3.17Z"/>
          </g>
          <g>
            <path class="cls-152" d="M119.66,162.29s1.19-.49,1.68-.4,2.18,2.18,2.08,2.67c-.1.49-1.29.49-1.58.1-.3-.4-.99-1.29-.99-1.29l-1.19-1.09Z"/>
            <path class="cls-182" d="M122.65,165.27c-.41,0-.85-.13-1.06-.41-.3-.4-.99-1.28-.99-1.28l-1.15-1.05c-.08-.07-.12-.18-.1-.29s.09-.2.19-.24c.21-.09,1.31-.53,1.87-.41.45.09,1.16.94,1.45,1.3.65.82.95,1.41.88,1.74-.06.29-.31.51-.7.6-.12.03-.26.04-.39.04ZM120.26,162.41l.8.74s.73.93,1.03,1.33c.08.11.46.21.8.13.16-.04.21-.09.21-.1-.01-.38-1.43-2.17-1.83-2.3-.19-.04-.62.07-1.01.2Z"/>
          </g>
        </g>
      </g>
    </g>
  </g>
</svg>