<?xml version="1.0" encoding="UTF-8"?>
<svg id="Layer_2" data-name="Layer 2" xmlns="http://www.w3.org/2000/svg" viewBox="0 0 223.97 31.36">
  <defs>
    <style>
      .cls-1 {
        fill: #ededed;
      }
    </style>
  </defs>
  <g id="Layer_1-2" data-name="Layer 1">
    <g>
      <g>
        <path class="cls-1" d="M54.39,1.27c1.7.84,3.02,2.05,3.95,3.62.93,1.57,1.4,3.39,1.4,5.46s-.47,3.89-1.4,5.44c-.93,1.55-2.25,2.75-3.95,3.6-1.7.84-3.66,1.27-5.89,1.27h-6v10.44h-6.66V0h12.66c2.22,0,4.18.42,5.89,1.27ZM47.88,15.1c1.57,0,2.81-.43,3.73-1.29s1.38-2.01,1.38-3.46-.46-2.65-1.38-3.51-2.16-1.29-3.73-1.29h-5.38v9.55h5.38Z"/>
        <path class="cls-1" d="M76.88,13.95h-2.49c-1.78,0-3.08.53-3.91,1.6s-1.24,2.52-1.24,4.35v11.19h-6.26V8.26h5.69l.58,3.42c.68-1.13,1.52-1.98,2.53-2.55s2.35-.87,4.04-.87h1.07v5.69Z"/>
        <path class="cls-1" d="M79.52,25.81c-.99-1.78-1.49-3.82-1.49-6.13s.5-4.35,1.49-6.13c.99-1.78,2.4-3.15,4.22-4.11,1.82-.96,3.93-1.44,6.33-1.44s4.51.48,6.33,1.44c1.82.96,3.23,2.33,4.22,4.11.99,1.78,1.49,3.82,1.49,6.13s-.5,4.39-1.49,6.15c-.99,1.76-2.4,3.12-4.22,4.09-1.82.96-3.93,1.44-6.33,1.44s-4.51-.48-6.33-1.44c-1.82-.96-3.23-2.33-4.22-4.11ZM95.76,19.68c0-1.95-.51-3.54-1.53-4.75-1.02-1.21-2.41-1.82-4.15-1.82s-3.09.61-4.11,1.82c-1.02,1.21-1.53,2.8-1.53,4.75s.51,3.54,1.53,4.75c1.02,1.21,2.39,1.82,4.11,1.82s3.13-.61,4.15-1.82c1.02-1.21,1.53-2.8,1.53-4.75Z"/>
        <path class="cls-1" d="M141.33,18.57v12.57h-6.26v-12.79c0-3.46-1.32-5.2-3.95-5.2-1.36,0-2.46.48-3.29,1.44s-1.24,2.3-1.24,4.02v12.53h-6.26v-12.79c0-3.46-1.33-5.2-4-5.2-1.36,0-2.45.5-3.26,1.49-.81.99-1.22,2.33-1.22,4.02v12.48h-6.26V8.26h5.46l.58,2.84c.77-.98,1.69-1.73,2.75-2.27,1.07-.53,2.4-.81,4-.84,3.26,0,5.52,1.29,6.8,3.86.83-1.24,1.92-2.2,3.26-2.87,1.35-.67,2.88-1,4.6-1,2.46,0,4.46.81,6,2.44,1.54,1.63,2.31,4.34,2.31,8.13Z"/>
        <path class="cls-1" d="M142.96,13.55v-5.29h3.78V1.87h6.26v6.4h5.2v5.29h-5.2v9.99c0,.8.17,1.38.51,1.73.34.36.91.53,1.71.53h3.24v5.29h-5.2c-4.35,0-6.53-2.18-6.53-6.53v-11.02h-3.78Z"/>
        <path class="cls-1" d="M183.43,31.09h-3.2c-2.87,0-4.28-1.24-4.22-3.73-.83,1.3-1.85,2.29-3.06,2.98-1.21.68-2.68,1.02-4.4,1.02-2.55,0-4.6-.58-6.15-1.75-1.55-1.17-2.33-2.82-2.33-4.95,0-2.43.9-4.3,2.69-5.62s4.39-1.98,7.8-1.98h4.53v-1.11c0-1.04-.39-1.86-1.16-2.47-.77-.61-1.81-.91-3.11-.91-1.16,0-2.1.25-2.84.76-.74.5-1.18,1.18-1.33,2.04h-6.04c.21-2.34,1.24-4.15,3.11-5.44,1.87-1.29,4.34-1.93,7.42-1.93s5.72.71,7.48,2.13c1.76,1.42,2.64,3.48,2.64,6.17v8.04c0,.56.12.95.36,1.15.24.21.61.31,1.11.31h.71v5.29ZM170.5,21.23c-1.3,0-2.32.26-3.04.78-.73.52-1.09,1.25-1.09,2.2,0,.8.3,1.44.91,1.91.61.47,1.43.71,2.46.71,1.63,0,2.92-.47,3.86-1.4.95-.93,1.44-2.18,1.47-3.75v-.44h-4.58Z"/>
        <path class="cls-1" d="M208.34,31.09h-3.2c-2.87,0-4.28-1.24-4.22-3.73-.83,1.3-1.85,2.29-3.06,2.98-1.21.68-2.68,1.02-4.4,1.02-2.55,0-4.6-.58-6.15-1.75-1.55-1.17-2.33-2.82-2.33-4.95,0-2.43.9-4.3,2.69-5.62s4.39-1.98,7.8-1.98h4.53v-1.11c0-1.04-.39-1.86-1.16-2.47-.77-.61-1.81-.91-3.11-.91-1.16,0-2.1.25-2.84.76-.74.5-1.18,1.18-1.33,2.04h-6.04c.21-2.34,1.24-4.15,3.11-5.44,1.87-1.29,4.34-1.93,7.42-1.93s5.72.71,7.48,2.13c1.76,1.42,2.64,3.48,2.64,6.17v8.04c0,.56.12.95.36,1.15.24.21.61.31,1.11.31h.71v5.29ZM195.42,21.23c-1.3,0-2.32.26-3.04.78-.73.52-1.09,1.25-1.09,2.2,0,.8.3,1.44.91,1.91.61.47,1.43.71,2.46.71,1.63,0,2.92-.47,3.86-1.4.95-.93,1.44-2.18,1.47-3.75v-.44h-4.58Z"/>
        <path class="cls-1" d="M208.47,13.55v-5.29h3.78V1.87h6.26v6.4h5.2v5.29h-5.2v9.99c0,.8.17,1.38.51,1.73.34.36.91.53,1.71.53h3.24v5.29h-5.2c-4.35,0-6.53-2.18-6.53-6.53v-11.02h-3.78Z"/>
      </g>
      <g>
        <path class="cls-1" d="M6.66,0v31.09H0V0h6.66Z"/>
        <path class="cls-1" d="M18.61,0v31.09h-6.66V0h6.66Z"/>
        <path class="cls-1" d="M30.56,0v15.55h-6.66V0h6.66Z"/>
      </g>
    </g>
  </g>
</svg>