<?xml version="1.0" encoding="UTF-8"?>
<svg id="Layer_2" data-name="Layer 2" xmlns="http://www.w3.org/2000/svg" viewBox="0 0 1008.52 399">
  <defs>
    <style>
      .cls-1 {
        fill: #4e5564;
      }
    </style>
  </defs>
  <g id="Layer_1-2" data-name="Layer 1">
    <g>
      <rect class="cls-1" width="3" height="3"/>
      <rect class="cls-1" x="37.24" width="3" height="3"/>
      <rect class="cls-1" x="74.48" width="3" height="3"/>
      <rect class="cls-1" x="111.72" width="3" height="3"/>
      <rect class="cls-1" x="148.97" width="3" height="3"/>
      <rect class="cls-1" x="186.21" width="3" height="3"/>
      <rect class="cls-1" x="223.45" width="3" height="3"/>
      <rect class="cls-1" x="260.69" width="3" height="3"/>
      <rect class="cls-1" x="297.93" width="3" height="3"/>
      <rect class="cls-1" x="335.17" width="3" height="3"/>
      <rect class="cls-1" x="372.41" width="3" height="3"/>
      <rect class="cls-1" x="409.66" width="3" height="3"/>
      <rect class="cls-1" x="446.9" width="3" height="3"/>
      <rect class="cls-1" x="484.14" width="3" height="3"/>
      <rect class="cls-1" x="521.38" width="3" height="3"/>
      <rect class="cls-1" x="558.62" width="3" height="3"/>
      <rect class="cls-1" x="595.86" width="3" height="3"/>
      <rect class="cls-1" x="633.1" width="3" height="3"/>
      <rect class="cls-1" x="670.34" width="3" height="3"/>
      <rect class="cls-1" x="707.59" width="3" height="3"/>
      <rect class="cls-1" x="744.83" width="3" height="3"/>
      <rect class="cls-1" x="782.07" width="3" height="3"/>
      <rect class="cls-1" x="819.31" width="3" height="3"/>
      <rect class="cls-1" x="856.55" width="3" height="3"/>
      <rect class="cls-1" x="893.79" width="3" height="3"/>
      <rect class="cls-1" x="931.03" width="3" height="3"/>
      <rect class="cls-1" x="968.28" width="3" height="3"/>
      <rect class="cls-1" x="1005.52" width="3" height="3"/>
      <rect class="cls-1" y="36" width="3" height="3"/>
      <rect class="cls-1" x="37.24" y="36" width="3" height="3"/>
      <rect class="cls-1" x="74.48" y="36" width="3" height="3"/>
      <rect class="cls-1" x="111.72" y="36" width="3" height="3"/>
      <rect class="cls-1" x="148.97" y="36" width="3" height="3"/>
      <rect class="cls-1" x="186.21" y="36" width="3" height="3"/>
      <rect class="cls-1" x="223.45" y="36" width="3" height="3"/>
      <rect class="cls-1" x="260.69" y="36" width="3" height="3"/>
      <rect class="cls-1" x="297.93" y="36" width="3" height="3"/>
      <rect class="cls-1" x="335.17" y="36" width="3" height="3"/>
      <rect class="cls-1" x="372.41" y="36" width="3" height="3"/>
      <rect class="cls-1" x="409.66" y="36" width="3" height="3"/>
      <rect class="cls-1" x="446.9" y="36" width="3" height="3"/>
      <rect class="cls-1" x="484.14" y="36" width="3" height="3"/>
      <rect class="cls-1" x="521.38" y="36" width="3" height="3"/>
      <rect class="cls-1" x="558.62" y="36" width="3" height="3"/>
      <rect class="cls-1" x="595.86" y="36" width="3" height="3"/>
      <rect class="cls-1" x="633.1" y="36" width="3" height="3"/>
      <rect class="cls-1" x="670.34" y="36" width="3" height="3"/>
      <rect class="cls-1" x="707.59" y="36" width="3" height="3"/>
      <rect class="cls-1" x="744.83" y="36" width="3" height="3"/>
      <rect class="cls-1" x="782.07" y="36" width="3" height="3"/>
      <rect class="cls-1" x="819.31" y="36" width="3" height="3"/>
      <rect class="cls-1" x="856.55" y="36" width="3" height="3"/>
      <rect class="cls-1" x="893.79" y="36" width="3" height="3"/>
      <rect class="cls-1" x="931.03" y="36" width="3" height="3"/>
      <rect class="cls-1" x="968.28" y="36" width="3" height="3"/>
      <rect class="cls-1" x="1005.52" y="36" width="3" height="3"/>
      <rect class="cls-1" y="72" width="3" height="3"/>
      <rect class="cls-1" x="37.24" y="72" width="3" height="3"/>
      <rect class="cls-1" x="74.48" y="72" width="3" height="3"/>
      <rect class="cls-1" x="111.72" y="72" width="3" height="3"/>
      <rect class="cls-1" x="148.97" y="72" width="3" height="3"/>
      <rect class="cls-1" x="186.21" y="72" width="3" height="3"/>
      <rect class="cls-1" x="223.45" y="72" width="3" height="3"/>
      <rect class="cls-1" x="260.69" y="72" width="3" height="3"/>
      <rect class="cls-1" x="297.93" y="72" width="3" height="3"/>
      <rect class="cls-1" x="335.17" y="72" width="3" height="3"/>
      <rect class="cls-1" x="372.41" y="72" width="3" height="3"/>
      <rect class="cls-1" x="409.66" y="72" width="3" height="3"/>
      <rect class="cls-1" x="446.9" y="72" width="3" height="3"/>
      <rect class="cls-1" x="484.14" y="72" width="3" height="3"/>
      <rect class="cls-1" x="521.38" y="72" width="3" height="3"/>
      <rect class="cls-1" x="558.62" y="72" width="3" height="3"/>
      <rect class="cls-1" x="595.86" y="72" width="3" height="3"/>
      <rect class="cls-1" x="633.1" y="72" width="3" height="3"/>
      <rect class="cls-1" x="670.34" y="72" width="3" height="3"/>
      <rect class="cls-1" x="707.59" y="72" width="3" height="3"/>
      <rect class="cls-1" x="744.83" y="72" width="3" height="3"/>
      <rect class="cls-1" x="782.07" y="72" width="3" height="3"/>
      <rect class="cls-1" x="819.31" y="72" width="3" height="3"/>
      <rect class="cls-1" x="856.55" y="72" width="3" height="3"/>
      <rect class="cls-1" x="893.79" y="72" width="3" height="3"/>
      <rect class="cls-1" x="931.03" y="72" width="3" height="3"/>
      <rect class="cls-1" x="968.28" y="72" width="3" height="3"/>
      <rect class="cls-1" x="1005.52" y="72" width="3" height="3"/>
      <rect class="cls-1" y="108" width="3" height="3"/>
      <rect class="cls-1" x="37.24" y="108" width="3" height="3"/>
      <rect class="cls-1" x="74.48" y="108" width="3" height="3"/>
      <rect class="cls-1" x="111.72" y="108" width="3" height="3"/>
      <rect class="cls-1" x="148.97" y="108" width="3" height="3"/>
      <rect class="cls-1" x="186.21" y="108" width="3" height="3"/>
      <rect class="cls-1" x="223.45" y="108" width="3" height="3"/>
      <rect class="cls-1" x="260.69" y="108" width="3" height="3"/>
      <rect class="cls-1" x="297.93" y="108" width="3" height="3"/>
      <rect class="cls-1" x="335.17" y="108" width="3" height="3"/>
      <rect class="cls-1" x="372.41" y="108" width="3" height="3"/>
      <rect class="cls-1" x="409.66" y="108" width="3" height="3"/>
      <rect class="cls-1" x="446.9" y="108" width="3" height="3"/>
      <rect class="cls-1" x="484.14" y="108" width="3" height="3"/>
      <rect class="cls-1" x="521.38" y="108" width="3" height="3"/>
      <rect class="cls-1" x="558.62" y="108" width="3" height="3"/>
      <rect class="cls-1" x="595.86" y="108" width="3" height="3"/>
      <rect class="cls-1" x="633.1" y="108" width="3" height="3"/>
      <rect class="cls-1" x="670.34" y="108" width="3" height="3"/>
      <rect class="cls-1" x="707.59" y="108" width="3" height="3"/>
      <rect class="cls-1" x="744.83" y="108" width="3" height="3"/>
      <rect class="cls-1" x="782.07" y="108" width="3" height="3"/>
      <rect class="cls-1" x="819.31" y="108" width="3" height="3"/>
      <rect class="cls-1" x="856.55" y="108" width="3" height="3"/>
      <rect class="cls-1" x="893.79" y="108" width="3" height="3"/>
      <rect class="cls-1" x="931.03" y="108" width="3" height="3"/>
      <rect class="cls-1" x="968.28" y="108" width="3" height="3"/>
      <rect class="cls-1" x="1005.52" y="108" width="3" height="3"/>
      <rect class="cls-1" y="144" width="3" height="3"/>
      <rect class="cls-1" x="37.24" y="144" width="3" height="3"/>
      <rect class="cls-1" x="74.48" y="144" width="3" height="3"/>
      <rect class="cls-1" x="111.72" y="144" width="3" height="3"/>
      <rect class="cls-1" x="148.97" y="144" width="3" height="3"/>
      <rect class="cls-1" x="186.21" y="144" width="3" height="3"/>
      <rect class="cls-1" x="223.45" y="144" width="3" height="3"/>
      <rect class="cls-1" x="260.69" y="144" width="3" height="3"/>
      <rect class="cls-1" x="297.93" y="144" width="3" height="3"/>
      <rect class="cls-1" x="335.17" y="144" width="3" height="3"/>
      <rect class="cls-1" x="372.41" y="144" width="3" height="3"/>
      <rect class="cls-1" x="409.66" y="144" width="3" height="3"/>
      <rect class="cls-1" x="446.9" y="144" width="3" height="3"/>
      <rect class="cls-1" x="484.14" y="144" width="3" height="3"/>
      <rect class="cls-1" x="521.38" y="144" width="3" height="3"/>
      <rect class="cls-1" x="558.62" y="144" width="3" height="3"/>
      <rect class="cls-1" x="595.86" y="144" width="3" height="3"/>
      <rect class="cls-1" x="633.1" y="144" width="3" height="3"/>
      <rect class="cls-1" x="670.34" y="144" width="3" height="3"/>
      <rect class="cls-1" x="707.59" y="144" width="3" height="3"/>
      <rect class="cls-1" x="744.83" y="144" width="3" height="3"/>
      <rect class="cls-1" x="782.07" y="144" width="3" height="3"/>
      <rect class="cls-1" x="819.31" y="144" width="3" height="3"/>
      <rect class="cls-1" x="856.55" y="144" width="3" height="3"/>
      <rect class="cls-1" x="893.79" y="144" width="3" height="3"/>
      <rect class="cls-1" x="931.03" y="144" width="3" height="3"/>
      <rect class="cls-1" x="968.28" y="144" width="3" height="3"/>
      <rect class="cls-1" x="1005.52" y="144" width="3" height="3"/>
      <rect class="cls-1" y="180" width="3" height="3"/>
      <rect class="cls-1" x="37.24" y="180" width="3" height="3"/>
      <rect class="cls-1" x="74.48" y="180" width="3" height="3"/>
      <rect class="cls-1" x="111.72" y="180" width="3" height="3"/>
      <rect class="cls-1" x="148.97" y="180" width="3" height="3"/>
      <rect class="cls-1" x="186.21" y="180" width="3" height="3"/>
      <rect class="cls-1" x="223.45" y="180" width="3" height="3"/>
      <rect class="cls-1" x="260.69" y="180" width="3" height="3"/>
      <rect class="cls-1" x="297.93" y="180" width="3" height="3"/>
      <rect class="cls-1" x="335.17" y="180" width="3" height="3"/>
      <rect class="cls-1" x="372.41" y="180" width="3" height="3"/>
      <rect class="cls-1" x="409.66" y="180" width="3" height="3"/>
      <rect class="cls-1" x="446.9" y="180" width="3" height="3"/>
      <rect class="cls-1" x="484.14" y="180" width="3" height="3"/>
      <rect class="cls-1" x="521.38" y="180" width="3" height="3"/>
      <rect class="cls-1" x="558.62" y="180" width="3" height="3"/>
      <rect class="cls-1" x="595.86" y="180" width="3" height="3"/>
      <rect class="cls-1" x="633.1" y="180" width="3" height="3"/>
      <rect class="cls-1" x="670.34" y="180" width="3" height="3"/>
      <rect class="cls-1" x="707.59" y="180" width="3" height="3"/>
      <rect class="cls-1" x="744.83" y="180" width="3" height="3"/>
      <rect class="cls-1" x="782.07" y="180" width="3" height="3"/>
      <rect class="cls-1" x="819.31" y="180" width="3" height="3"/>
      <rect class="cls-1" x="856.55" y="180" width="3" height="3"/>
      <rect class="cls-1" x="893.79" y="180" width="3" height="3"/>
      <rect class="cls-1" x="931.03" y="180" width="3" height="3"/>
      <rect class="cls-1" x="968.28" y="180" width="3" height="3"/>
      <rect class="cls-1" x="1005.52" y="180" width="3" height="3"/>
      <rect class="cls-1" y="216" width="3" height="3"/>
      <rect class="cls-1" x="37.24" y="216" width="3" height="3"/>
      <rect class="cls-1" x="74.48" y="216" width="3" height="3"/>
      <rect class="cls-1" x="111.72" y="216" width="3" height="3"/>
      <rect class="cls-1" x="148.97" y="216" width="3" height="3"/>
      <rect class="cls-1" x="186.21" y="216" width="3" height="3"/>
      <rect class="cls-1" x="223.45" y="216" width="3" height="3"/>
      <rect class="cls-1" x="260.69" y="216" width="3" height="3"/>
      <rect class="cls-1" x="297.93" y="216" width="3" height="3"/>
      <rect class="cls-1" x="335.17" y="216" width="3" height="3"/>
      <rect class="cls-1" x="372.41" y="216" width="3" height="3"/>
      <rect class="cls-1" x="409.66" y="216" width="3" height="3"/>
      <rect class="cls-1" x="446.9" y="216" width="3" height="3"/>
      <rect class="cls-1" x="484.14" y="216" width="3" height="3"/>
      <rect class="cls-1" x="521.38" y="216" width="3" height="3"/>
      <rect class="cls-1" x="558.62" y="216" width="3" height="3"/>
      <rect class="cls-1" x="595.86" y="216" width="3" height="3"/>
      <rect class="cls-1" x="633.1" y="216" width="3" height="3"/>
      <rect class="cls-1" x="670.34" y="216" width="3" height="3"/>
      <rect class="cls-1" x="707.59" y="216" width="3" height="3"/>
      <rect class="cls-1" x="744.83" y="216" width="3" height="3"/>
      <rect class="cls-1" x="782.07" y="216" width="3" height="3"/>
      <rect class="cls-1" x="819.31" y="216" width="3" height="3"/>
      <rect class="cls-1" x="856.55" y="216" width="3" height="3"/>
      <rect class="cls-1" x="893.79" y="216" width="3" height="3"/>
      <rect class="cls-1" x="931.03" y="216" width="3" height="3"/>
      <rect class="cls-1" x="968.28" y="216" width="3" height="3"/>
      <rect class="cls-1" x="1005.52" y="216" width="3" height="3"/>
      <rect class="cls-1" y="252" width="3" height="3"/>
      <rect class="cls-1" x="37.24" y="252" width="3" height="3"/>
      <rect class="cls-1" x="74.48" y="252" width="3" height="3"/>
      <rect class="cls-1" x="111.72" y="252" width="3" height="3"/>
      <rect class="cls-1" x="148.97" y="252" width="3" height="3"/>
      <rect class="cls-1" x="186.21" y="252" width="3" height="3"/>
      <rect class="cls-1" x="223.45" y="252" width="3" height="3"/>
      <rect class="cls-1" x="260.69" y="252" width="3" height="3"/>
      <rect class="cls-1" x="297.93" y="252" width="3" height="3"/>
      <rect class="cls-1" x="335.17" y="252" width="3" height="3"/>
      <rect class="cls-1" x="372.41" y="252" width="3" height="3"/>
      <rect class="cls-1" x="409.66" y="252" width="3" height="3"/>
      <rect class="cls-1" x="446.9" y="252" width="3" height="3"/>
      <rect class="cls-1" x="484.14" y="252" width="3" height="3"/>
      <rect class="cls-1" x="521.38" y="252" width="3" height="3"/>
      <rect class="cls-1" x="558.62" y="252" width="3" height="3"/>
      <rect class="cls-1" x="595.86" y="252" width="3" height="3"/>
      <rect class="cls-1" x="633.1" y="252" width="3" height="3"/>
      <rect class="cls-1" x="670.34" y="252" width="3" height="3"/>
      <rect class="cls-1" x="707.59" y="252" width="3" height="3"/>
      <rect class="cls-1" x="744.83" y="252" width="3" height="3"/>
      <rect class="cls-1" x="782.07" y="252" width="3" height="3"/>
      <rect class="cls-1" x="819.31" y="252" width="3" height="3"/>
      <rect class="cls-1" x="856.55" y="252" width="3" height="3"/>
      <rect class="cls-1" x="893.79" y="252" width="3" height="3"/>
      <rect class="cls-1" x="931.03" y="252" width="3" height="3"/>
      <rect class="cls-1" x="968.28" y="252" width="3" height="3"/>
      <rect class="cls-1" x="1005.52" y="252" width="3" height="3"/>
      <rect class="cls-1" y="288" width="3" height="3"/>
      <rect class="cls-1" x="37.24" y="288" width="3" height="3"/>
      <rect class="cls-1" x="74.48" y="288" width="3" height="3"/>
      <rect class="cls-1" x="111.72" y="288" width="3" height="3"/>
      <rect class="cls-1" x="148.97" y="288" width="3" height="3"/>
      <rect class="cls-1" x="186.21" y="288" width="3" height="3"/>
      <rect class="cls-1" x="223.45" y="288" width="3" height="3"/>
      <rect class="cls-1" x="260.69" y="288" width="3" height="3"/>
      <rect class="cls-1" x="297.93" y="288" width="3" height="3"/>
      <rect class="cls-1" x="335.17" y="288" width="3" height="3"/>
      <rect class="cls-1" x="372.41" y="288" width="3" height="3"/>
      <rect class="cls-1" x="409.66" y="288" width="3" height="3"/>
      <rect class="cls-1" x="446.9" y="288" width="3" height="3"/>
      <rect class="cls-1" x="484.14" y="288" width="3" height="3"/>
      <rect class="cls-1" x="521.38" y="288" width="3" height="3"/>
      <rect class="cls-1" x="558.62" y="288" width="3" height="3"/>
      <rect class="cls-1" x="595.86" y="288" width="3" height="3"/>
      <rect class="cls-1" x="633.1" y="288" width="3" height="3"/>
      <rect class="cls-1" x="670.34" y="288" width="3" height="3"/>
      <rect class="cls-1" x="707.59" y="288" width="3" height="3"/>
      <rect class="cls-1" x="744.83" y="288" width="3" height="3"/>
      <rect class="cls-1" x="782.07" y="288" width="3" height="3"/>
      <rect class="cls-1" x="819.31" y="288" width="3" height="3"/>
      <rect class="cls-1" x="856.55" y="288" width="3" height="3"/>
      <rect class="cls-1" x="893.79" y="288" width="3" height="3"/>
      <rect class="cls-1" x="931.03" y="288" width="3" height="3"/>
      <rect class="cls-1" x="968.28" y="288" width="3" height="3"/>
      <rect class="cls-1" x="1005.52" y="288" width="3" height="3"/>
      <rect class="cls-1" y="324" width="3" height="3"/>
      <rect class="cls-1" x="37.24" y="324" width="3" height="3"/>
      <rect class="cls-1" x="74.48" y="324" width="3" height="3"/>
      <rect class="cls-1" x="111.72" y="324" width="3" height="3"/>
      <rect class="cls-1" x="148.97" y="324" width="3" height="3"/>
      <rect class="cls-1" x="186.21" y="324" width="3" height="3"/>
      <rect class="cls-1" x="223.45" y="324" width="3" height="3"/>
      <rect class="cls-1" x="260.69" y="324" width="3" height="3"/>
      <rect class="cls-1" x="297.93" y="324" width="3" height="3"/>
      <rect class="cls-1" x="335.17" y="324" width="3" height="3"/>
      <rect class="cls-1" x="372.41" y="324" width="3" height="3"/>
      <rect class="cls-1" x="409.66" y="324" width="3" height="3"/>
      <rect class="cls-1" x="446.9" y="324" width="3" height="3"/>
      <rect class="cls-1" x="484.14" y="324" width="3" height="3"/>
      <rect class="cls-1" x="521.38" y="324" width="3" height="3"/>
      <rect class="cls-1" x="558.62" y="324" width="3" height="3"/>
      <rect class="cls-1" x="595.86" y="324" width="3" height="3"/>
      <rect class="cls-1" x="633.1" y="324" width="3" height="3"/>
      <rect class="cls-1" x="670.34" y="324" width="3" height="3"/>
      <rect class="cls-1" x="707.59" y="324" width="3" height="3"/>
      <rect class="cls-1" x="744.83" y="324" width="3" height="3"/>
      <rect class="cls-1" x="782.07" y="324" width="3" height="3"/>
      <rect class="cls-1" x="819.31" y="324" width="3" height="3"/>
      <rect class="cls-1" x="856.55" y="324" width="3" height="3"/>
      <rect class="cls-1" x="893.79" y="324" width="3" height="3"/>
      <rect class="cls-1" x="931.03" y="324" width="3" height="3"/>
      <rect class="cls-1" x="968.28" y="324" width="3" height="3"/>
      <rect class="cls-1" x="1005.52" y="324" width="3" height="3"/>
      <rect class="cls-1" y="360" width="3" height="3"/>
      <rect class="cls-1" x="37.24" y="360" width="3" height="3"/>
      <rect class="cls-1" x="74.48" y="360" width="3" height="3"/>
      <rect class="cls-1" x="111.72" y="360" width="3" height="3"/>
      <rect class="cls-1" x="148.97" y="360" width="3" height="3"/>
      <rect class="cls-1" x="186.21" y="360" width="3" height="3"/>
      <rect class="cls-1" x="223.45" y="360" width="3" height="3"/>
      <rect class="cls-1" x="260.69" y="360" width="3" height="3"/>
      <rect class="cls-1" x="297.93" y="360" width="3" height="3"/>
      <rect class="cls-1" x="335.17" y="360" width="3" height="3"/>
      <rect class="cls-1" x="372.41" y="360" width="3" height="3"/>
      <rect class="cls-1" x="409.66" y="360" width="3" height="3"/>
      <rect class="cls-1" x="446.9" y="360" width="3" height="3"/>
      <rect class="cls-1" x="484.14" y="360" width="3" height="3"/>
      <rect class="cls-1" x="521.38" y="360" width="3" height="3"/>
      <rect class="cls-1" x="558.62" y="360" width="3" height="3"/>
      <rect class="cls-1" x="595.86" y="360" width="3" height="3"/>
      <rect class="cls-1" x="633.1" y="360" width="3" height="3"/>
      <rect class="cls-1" x="670.34" y="360" width="3" height="3"/>
      <rect class="cls-1" x="707.59" y="360" width="3" height="3"/>
      <rect class="cls-1" x="744.83" y="360" width="3" height="3"/>
      <rect class="cls-1" x="782.07" y="360" width="3" height="3"/>
      <rect class="cls-1" x="819.31" y="360" width="3" height="3"/>
      <rect class="cls-1" x="856.55" y="360" width="3" height="3"/>
      <rect class="cls-1" x="893.79" y="360" width="3" height="3"/>
      <rect class="cls-1" x="931.03" y="360" width="3" height="3"/>
      <rect class="cls-1" x="968.28" y="360" width="3" height="3"/>
      <rect class="cls-1" x="1005.52" y="360" width="3" height="3"/>
      <rect class="cls-1" y="396" width="3" height="3"/>
      <rect class="cls-1" x="37.24" y="396" width="3" height="3"/>
      <rect class="cls-1" x="74.48" y="396" width="3" height="3"/>
      <rect class="cls-1" x="111.72" y="396" width="3" height="3"/>
      <rect class="cls-1" x="148.97" y="396" width="3" height="3"/>
      <rect class="cls-1" x="186.21" y="396" width="3" height="3"/>
      <rect class="cls-1" x="223.45" y="396" width="3" height="3"/>
      <rect class="cls-1" x="260.69" y="396" width="3" height="3"/>
      <rect class="cls-1" x="297.93" y="396" width="3" height="3"/>
      <rect class="cls-1" x="335.17" y="396" width="3" height="3"/>
      <rect class="cls-1" x="372.41" y="396" width="3" height="3"/>
      <rect class="cls-1" x="409.66" y="396" width="3" height="3"/>
      <rect class="cls-1" x="446.9" y="396" width="3" height="3"/>
      <rect class="cls-1" x="484.14" y="396" width="3" height="3"/>
      <rect class="cls-1" x="521.38" y="396" width="3" height="3"/>
      <rect class="cls-1" x="558.62" y="396" width="3" height="3"/>
      <rect class="cls-1" x="595.86" y="396" width="3" height="3"/>
      <rect class="cls-1" x="633.1" y="396" width="3" height="3"/>
      <rect class="cls-1" x="670.34" y="396" width="3" height="3"/>
      <rect class="cls-1" x="707.59" y="396" width="3" height="3"/>
      <rect class="cls-1" x="744.83" y="396" width="3" height="3"/>
      <rect class="cls-1" x="782.07" y="396" width="3" height="3"/>
      <rect class="cls-1" x="819.31" y="396" width="3" height="3"/>
      <rect class="cls-1" x="856.55" y="396" width="3" height="3"/>
      <rect class="cls-1" x="893.79" y="396" width="3" height="3"/>
      <rect class="cls-1" x="931.03" y="396" width="3" height="3"/>
      <rect class="cls-1" x="968.28" y="396" width="3" height="3"/>
      <rect class="cls-1" x="1005.52" y="396" width="3" height="3"/>
    </g>
  </g>
</svg>